thinwide_sans_ik.ufo
<glyph name="exclam" format="1">
  <advance width="241.0"/>
  <unicode hex="0021"/>
  <outline>
    <contour>
      <point x="140.0" y="19.0" type="curve"/>
      <point x="140.0" y="30.0"/>
      <point x="132.0" y="37.0"/>
      <point x="120.0" y="37.0" type="curve"/>
      <point x="109.0" y="37.0"/>
      <point x="102.0" y="30.0"/>
      <point x="102.0" y="19.0" type="curve"/>
      <point x="116.0" y="19.0"/>
      <point x="126.0" y="19.0"/>
      <point x="140.0" y="19.0" type="curve"/>
      <point x="140.0" y="8.0"/>
      <point x="132.0" y="1.0"/>
      <point x="120.0" y="1.0" type="curve"/>
      <point x="109.0" y="1.0"/>
      <point x="102.0" y="8.0"/>
      <point x="102.0" y="19.0" type="curve"/>
      <point x="116.0" y="19.0"/>
      <point x="126.0" y="19.0"/>
    </contour>
    <contour>
      <point x="132.0" y="229.0" type="curve"/>
      <point x="132.0" y="393.0"/>
      <point x="132.0" y="558.0"/>
      <point x="132.0" y="722.0" type="curve"/>
      <point x="109.0" y="722.0"/>
      <point x="132.0" y="722.0"/>
      <point x="109.0" y="722.0" type="curve"/>
      <point x="109.0" y="558.0"/>
      <point x="109.0" y="393.0"/>
      <point x="109.0" y="229.0" type="curve"/>
      <point x="132.0" y="229.0"/>
      <point x="109.0" y="229.0"/>
    </contour>
  </outline>
</glyph>
<glyph name="quotedbl" format="1">
  <advance width="431.0"/>
  <unicode hex="0022"/>
  <outline>
    <contour>
      <point x="102.2" y="658.0" type="curve"/>
      <point x="102.2" y="720.66604"/>
      <point x="102.2" y="783.33396"/>
      <point x="102.2" y="846.0" type="curve"/>
      <point x="78.0" y="846.0"/>
      <point x="102.2" y="846.0"/>
      <point x="78.0" y="846.0" type="curve"/>
      <point x="78.0" y="783.33396"/>
      <point x="78.0" y="720.66604"/>
      <point x="78.0" y="658.0" type="curve"/>
      <point x="102.2" y="658.0"/>
      <point x="78.0" y="658.0"/>
    </contour>
    <contour>
      <point x="353.425" y="658.0" type="curve"/>
      <point x="353.425" y="720.66604"/>
      <point x="353.425" y="783.33396"/>
      <point x="353.425" y="846.0" type="curve"/>
      <point x="330.325" y="846.0"/>
      <point x="353.425" y="846.0"/>
      <point x="330.325" y="846.0" type="curve"/>
      <point x="330.325" y="783.33396"/>
      <point x="330.325" y="720.66604"/>
      <point x="330.325" y="658.0" type="curve"/>
      <point x="353.425" y="658.0"/>
      <point x="330.325" y="658.0"/>
    </contour>
  </outline>
</glyph>
<glyph name="numbersign" format="1">
  <advance width="855.0"/>
  <unicode hex="0023"/>
  <outline>
    <contour>
      <point x="46.825" y="247.448888889" type="curve"/>
      <point x="265.03115125" y="247.448888889"/>
      <point x="483.24384875" y="247.448888889"/>
      <point x="701.45" y="247.448888889" type="curve"/>
      <point x="708.05" y="269.008888889"/>
      <point x="701.45" y="247.448888889"/>
      <point x="708.05" y="269.008888889" type="curve"/>
      <point x="490.21051175" y="269.008888889"/>
      <point x="272.36448825" y="269.008888889"/>
      <point x="54.525" y="269.008888889" type="curve"/>
      <point x="46.825" y="247.448888889"/>
      <point x="54.525" y="269.008888889"/>
    </contour>
    <contour>
      <point x="145.375" y="491.904444444" type="curve"/>
      <point x="363.58115125" y="491.904444444"/>
      <point x="581.79384875" y="491.904444444"/>
      <point x="800.0" y="491.904444444" type="curve"/>
      <point x="806.6" y="513.464444444"/>
      <point x="800.0" y="491.904444444"/>
      <point x="806.6" y="513.464444444" type="curve"/>
      <point x="588.76051175" y="513.464444444"/>
      <point x="370.91448825" y="513.464444444"/>
      <point x="153.075" y="513.464444444" type="curve"/>
      <point x="145.375" y="491.904444444"/>
      <point x="153.075" y="513.464444444"/>
    </contour>
    <contour>
      <point x="499.5" y="39.0" type="curve"/>
      <point x="499.5" y="39.0"/>
      <point x="792.45" y="722.0"/>
      <point x="792.45" y="722.0" type="curve"/>
      <point x="768.25" y="722.0"/>
      <point x="792.45" y="722.0"/>
      <point x="768.25" y="722.0" type="curve"/>
      <point x="768.25" y="722.0"/>
      <point x="475.3" y="39.0"/>
      <point x="475.3" y="39.0" type="curve"/>
      <point x="499.5" y="39.0"/>
      <point x="475.3" y="39.0"/>
    </contour>
    <contour>
      <point x="121.625" y="46.0" type="curve"/>
      <point x="121.625" y="46.0"/>
      <point x="409.05" y="722.0"/>
      <point x="409.05" y="722.0" type="curve"/>
      <point x="384.85" y="722.0"/>
      <point x="409.05" y="722.0"/>
      <point x="384.85" y="722.0" type="curve"/>
      <point x="384.85" y="722.0"/>
      <point x="98.525" y="46.0"/>
      <point x="98.525" y="46.0" type="curve"/>
      <point x="121.625" y="46.0"/>
      <point x="98.525" y="46.0"/>
    </contour>
  </outline>
</glyph>
<glyph name="dollar" format="1">
  <advance width="679.0"/>
  <unicode hex="0024"/>
  <outline>
    <contour>
      <point x="328.5" y="-43.1" type="curve"/>
      <point x="328.5" y="-9.1758948"/>
      <point x="328.5" y="24.7492281333"/>
      <point x="328.5" y="58.6733333333" type="curve"/>
      <point x="304.3" y="58.6733333333"/>
      <point x="328.5" y="58.6733333333"/>
      <point x="304.3" y="58.6733333333" type="curve"/>
      <point x="304.3" y="24.7492281333"/>
      <point x="304.3" y="-9.1758948"/>
      <point x="304.3" y="-43.1" type="curve"/>
      <point x="328.5" y="-43.1"/>
      <point x="304.3" y="-43.1"/>
    </contour>
    <contour>
      <point x="344.7" y="671.308888889" type="curve"/>
      <point x="344.7" y="705.232994089"/>
      <point x="344.7" y="739.158117022"/>
      <point x="344.7" y="773.082222222" type="curve"/>
      <point x="320.5" y="773.082222222"/>
      <point x="344.7" y="773.082222222"/>
      <point x="320.5" y="773.082222222" type="curve"/>
      <point x="320.5" y="739.158117022"/>
      <point x="320.5" y="705.232994089"/>
      <point x="320.5" y="671.308888889" type="curve"/>
      <point x="344.7" y="671.308888889"/>
      <point x="320.5" y="671.308888889"/>
    </contour>
    <contour>
      <point x="55.0" y="99.0" type="curve"/>
      <point x="127" y="71"/>
      <point x="217.0" y="48.0"/>
      <point x="315.0" y="48.0" type="curve"/>
      <point x="476.0" y="48.0"/>
      <point x="619.0" y="73.0"/>
      <point x="619.0" y="198.0" type="curve"/>
      <point x="619.0" y="320.0"/>
      <point x="478.0" y="342.0"/>
      <point x="343.0" y="385.0" type="curve"/>
      <point x="223.0" y="423.0"/>
      <point x="114.0" y="443.0"/>
      <point x="114.0" y="543.0" type="curve"/>
      <point x="114.0" y="635.0"/>
      <point x="218.0" y="662.0"/>
      <point x="339.0" y="662.0" type="curve"/>
      <point x="434.0" y="662.0"/>
      <point x="524" y="639"/>
      <point x="586.0" y="613.0" type="curve"/>
      <point x="596" y="631"/>
      <point x="586" y="613"/>
      <point x="596" y="631" type="curve"/>
      <point x="533" y="658"/>
      <point x="439.0" y="683.0"/>
      <point x="341.0" y="683.0" type="curve"/>
      <point x="203.0" y="683.0"/>
      <point x="90.0" y="651.0"/>
      <point x="90.0" y="543.0" type="curve"/>
      <point x="90.0" y="429.0"/>
      <point x="203.0" y="405.0"/>
      <point x="329.0" y="365.0" type="curve"/>
      <point x="457.0" y="326.0"/>
      <point x="595.0" y="304.0"/>
      <point x="595.0" y="197.0" type="curve"/>
      <point x="595.0" y="93.0"/>
      <point x="465.0" y="69.0"/>
      <point x="318.0" y="69.0" type="curve"/>
      <point x="223.0" y="69.0"/>
      <point x="137" y="93"/>
      <point x="64" y="119" type="curve"/>
      <point x="55" y="99"/>
      <point x="64" y="119"/>
    </contour>
  </outline>
</glyph>
<glyph name="ampersand" format="1">
  <advance width="857.0"/>
  <unicode hex="0026"/>
  <outline>
    <contour>
      <point x="845.0" y="2.22932783345e-013" type="curve"/>
      <point x="691.0" y="115.0"/>
      <point x="537.134337307" y="233.000703606"/>
      <point x="382.625" y="348.510222222" type="curve"/>
      <point x="297.250433245" y="419.410450759"/>
      <point x="188.7" y="464.299349128"/>
      <point x="188.7" y="576.52" type="curve"/>
      <point x="188.7" y="660.450572995"/>
      <point x="258.523404886" y="705.44"/>
      <point x="349.525" y="705.44" type="curve"/>
      <point x="448.131795569" y="705.44"/>
      <point x="529.0" y="666.788653802"/>
      <point x="529.0" y="578.515555556" type="curve"/>
      <point x="528.800930793" y="465.726789011"/>
      <point x="422.019025874" y="432.467569256"/>
      <point x="312.725" y="386.586222222" type="curve"/>
      <point x="193.086076931" y="334.857671575"/>
      <point x="72.7" y="302.187544721"/>
      <point x="72.7" y="177.408888889" type="curve"/>
      <point x="72.7" y="46.9019510685"/>
      <point x="196.241954666" y="-5.0"/>
      <point x="342.775" y="-5.0" type="curve"/>
      <point x="557.650115" y="-5.0"/>
      <point x="702.515488135" y="116.914450338"/>
      <point x="785.775" y="317.895" type="curve"/>
      <point x="765.825" y="323.09"/>
      <point x="785.775" y="317.895"/>
      <point x="765.825" y="323.09" type="curve"/>
      <point x="685.530664606" y="132.332752739"/>
      <point x="548.201795602" y="15.78"/>
      <point x="343.825" y="15.78" type="curve"/>
      <point x="209.676055108" y="15.78"/>
      <point x="95.8" y="59.0168625012"/>
      <point x="95.8" y="177.408888889" type="curve"/>
      <point x="95.8" y="294.050570801"/>
      <point x="210.361059667" y="321.50818366"/>
      <point x="322.175" y="369.962222222" type="curve"/>
      <point x="438.107761742" y="420.396573582"/>
      <point x="550.721819147" y="457.415900755"/>
      <point x="552.1" y="578.515555556" type="curve"/>
      <point x="552.1" y="680.221236355"/>
      <point x="461.584101096" y="726.22"/>
      <point x="350.575" y="726.22" type="curve"/>
      <point x="245.923417129" y="726.22"/>
      <point x="165.6" y="674.134728724"/>
      <point x="165.6" y="576.52" type="curve"/>
      <point x="165.6" y="459.368827272"/>
      <point x="274.651085573" y="407.991488312"/>
      <point x="366.875" y="336.042222222" type="curve"/>
      <point x="515.886299637" y="223.891209057"/>
      <point x="666.0" y="112.0"/>
      <point x="815.0" y="2.24709140184e-013" type="curve"/>
      <point x="845.0" y="2.22932783345e-013"/>
      <point x="815.0" y="2.24709140184e-013"/>
    </contour>
  </outline>
</glyph>
<glyph name="quotesingle" format="1">
  <advance width="180.0"/>
  <unicode hex="0027"/>
  <outline>
    <contour>
      <point x="102.0" y="658.0" type="curve"/>
      <point x="102.0" y="721.0"/>
      <point x="102.0" y="783.0"/>
      <point x="102.0" y="846.0" type="curve"/>
      <point x="78.0" y="846.0"/>
      <point x="102.0" y="846.0"/>
      <point x="78.0" y="846.0" type="curve"/>
      <point x="78.0" y="783.0"/>
      <point x="78.0" y="721.0"/>
      <point x="78.0" y="658.0" type="curve"/>
      <point x="102.0" y="658.0"/>
      <point x="78.0" y="658.0"/>
    </contour>
  </outline>
</glyph>
<glyph name="parenleft" format="1">
  <advance width="410.0"/>
  <unicode hex="0028"/>
  <outline>
    <contour>
      <point x="407.0" y="-235.0" type="curve"/>
      <point x="202.0" y="-86.0"/>
      <point x="88.0" y="73.0"/>
      <point x="88.0" y="326.0" type="curve"/>
      <point x="88.0" y="578.0"/>
      <point x="203.0" y="735.0"/>
      <point x="405.0" y="888.0" type="curve"/>
      <point x="391.0" y="903.0"/>
      <point x="405.0" y="888.0"/>
      <point x="391.0" y="903.0" type="curve"/>
      <point x="180.0" y="749.0"/>
      <point x="63.0" y="586.0"/>
      <point x="63.0" y="326.0" type="curve"/>
      <point x="63.0" y="66.0"/>
      <point x="181.0" y="-96.0"/>
      <point x="393.0" y="-251.0" type="curve"/>
      <point x="407.0" y="-235.0"/>
      <point x="393.0" y="-251.0"/>
    </contour>
  </outline>
</glyph>
<glyph name="parenright" format="1">
  <advance width="425.0"/>
  <unicode hex="0029"/>
  <outline>
    <contour>
      <point x="16.0" y="-267.0" type="curve"/>
      <point x="232.0" y="-104.0"/>
      <point x="363.0" y="57.0"/>
      <point x="363.0" y="327.0" type="curve"/>
      <point x="363.0" y="591.0"/>
      <point x="239.0" y="751.0"/>
      <point x="21.0" y="903.0" type="curve"/>
      <point x="7.0" y="887.0"/>
      <point x="21.0" y="903.0"/>
      <point x="7.0" y="887.0" type="curve"/>
      <point x="216.0" y="736.0"/>
      <point x="337.0" y="582.0"/>
      <point x="337.0" y="326.0" type="curve"/>
      <point x="337.0" y="65.0"/>
      <point x="206.0" y="-89.0"/>
      <point x="1.0" y="-252.0" type="curve"/>
      <point x="16.0" y="-267.0"/>
      <point x="1.0" y="-252.0"/>
    </contour>
  </outline>
</glyph>
<glyph name="asterisk" format="1">
  <advance width="555.0"/>
  <unicode hex="002A"/>
  <outline>
    <contour>
      <point x="265.5" y="669.313333333" type="curve"/>
      <point x="266.165191236" y="618.758799405"/>
      <point x="267.034808764" y="568.20564504"/>
      <point x="267.7" y="517.651111111" type="curve"/>
      <point x="286.6" y="517.651111111"/>
      <point x="267.7" y="517.651111111"/>
      <point x="286.6" y="517.651111111" type="curve"/>
      <point x="287.26517879" y="568.204699167"/>
      <point x="287.93482121" y="618.759745278"/>
      <point x="288.6" y="669.313333333" type="curve"/>
      <point x="265.5" y="669.313333333"/>
      <point x="288.6" y="669.313333333"/>
    </contour>
    <contour>
      <point x="464.9" y="583.349" type="curve"/>
      <point x="401.427637501" y="564.123646655"/>
      <point x="337.772362499" y="545.500464456"/>
      <point x="274.3" y="526.275111111" type="curve"/>
      <point x="280.6" y="509.651111111"/>
      <point x="274.3" y="526.275111111"/>
      <point x="280.6" y="509.651111111" type="curve"/>
      <point x="344.906322842" y="526.669232483"/>
      <point x="408.993677158" y="544.511878628"/>
      <point x="473.3" y="561.53" type="curve"/>
      <point x="464.9" y="583.349"/>
      <point x="473.3" y="561.53"/>
    </contour>
    <contour>
      <point x="426.8" y="415.481666667" type="curve"/>
      <point x="379.609656713" y="451.66232208"/>
      <point x="332.490343287" y="487.938455698"/>
      <point x="285.3" y="524.119111111" type="curve"/>
      <point x="270.6" y="511.651111111"/>
      <point x="285.3" y="524.119111111"/>
      <point x="270.6" y="511.651111111" type="curve"/>
      <point x="317.010957767" y="474.331144024"/>
      <point x="363.589042233" y="437.216633754"/>
      <point x="410.0" y="399.896666667" type="curve"/>
      <point x="426.8" y="415.481666667"/>
      <point x="410.0" y="399.896666667"/>
    </contour>
    <contour>
      <point x="81.5" y="560.711" type="curve"/>
      <point x="145.821011503" y="543.688991399"/>
      <point x="209.978988497" y="526.049119712"/>
      <point x="274.3" y="509.027111111" type="curve"/>
      <point x="280.6" y="525.651111111"/>
      <point x="274.3" y="509.027111111"/>
      <point x="280.6" y="525.651111111" type="curve"/>
      <point x="217.114756932" y="544.880365894"/>
      <point x="153.385243068" y="563.300745217"/>
      <point x="89.9" y="582.53" type="curve"/>
      <point x="81.5" y="560.711"/>
      <point x="89.9" y="582.53"/>
    </contour>
    <contour>
      <point x="146.0" y="399.311666667" type="curve"/>
      <point x="192.409696713" y="436.630619716"/>
      <point x="238.890303287" y="473.864158062"/>
      <point x="285.3" y="511.183111111" type="curve"/>
      <point x="270.6" y="523.651111111"/>
      <point x="285.3" y="511.183111111"/>
      <point x="270.6" y="523.651111111" type="curve"/>
      <point x="223.411751305" y="487.472061613"/>
      <point x="176.388248695" y="451.075716165"/>
      <point x="129.2" y="414.896666667" type="curve"/>
      <point x="146.0" y="399.311666667"/>
      <point x="129.2" y="414.896666667"/>
    </contour>
  </outline>
</glyph>
<glyph name="plus" format="1">
  <advance width="721.0"/>
  <unicode hex="002B"/>
  <outline>
    <contour>
      <point x="48.0" y="297.0" type="curve"/>
      <point x="48.0" y="297.0"/>
      <point x="673.0" y="297.0"/>
      <point x="673.0" y="297.0" type="curve"/>
      <point x="673.0" y="321.0"/>
      <point x="673.0" y="297.0"/>
      <point x="673.0" y="321.0" type="curve"/>
      <point x="673.0" y="321.0"/>
      <point x="48.0" y="321.0"/>
      <point x="48.0" y="321.0" type="curve"/>
      <point x="48.0" y="297.0"/>
      <point x="48.0" y="321.0"/>
    </contour>
    <contour>
      <point x="367.15" y="18.0" type="curve"/>
      <point x="367.15" y="18.0"/>
      <point x="367.15" y="588.0"/>
      <point x="367.15" y="588.0" type="curve"/>
      <point x="342.95" y="588.0"/>
      <point x="367.15" y="588.0"/>
      <point x="342.95" y="588.0" type="curve"/>
      <point x="342.95" y="588.0"/>
      <point x="342.95" y="18.0"/>
      <point x="342.95" y="18.0" type="curve"/>
      <point x="367.15" y="18.0"/>
      <point x="342.95" y="18.0"/>
    </contour>
  </outline>
</glyph>
<glyph name="comma" format="1">
  <advance width="221.0"/>
  <unicode hex="002C"/>
  <outline>
    <contour>
      <point x="49.0" y="148.0" type="move" name="_bottom"/>
    </contour>
    <contour>
      <point x="-12.0" y="-149.0" type="line"/>
      <point x="136.0" y="32.0" type="line"/>
      <point x="103.0" y="32.0" type="line"/>
      <point x="-38.0" y="-149.0" type="line"/>
    </contour>
  </outline>
</glyph>
<glyph name="hyphen" format="1">
  <advance width="573.0"/>
  <unicode hex="002D"/>
  <outline>
    <contour>
      <point x="89.85" y="260.339777778" type="curve"/>
      <point x="220.7986905" y="260.339777778"/>
      <point x="351.7513095" y="260.339777778"/>
      <point x="482.7" y="260.339777778" type="curve"/>
      <point x="482.7" y="284.055777778"/>
      <point x="482.7" y="260.339777778"/>
      <point x="482.7" y="284.055777778" type="curve"/>
      <point x="351.7513095" y="284.055777778"/>
      <point x="220.7986905" y="284.055777778"/>
      <point x="89.85" y="284.055777778" type="curve"/>
      <point x="89.85" y="260.339777778"/>
      <point x="89.85" y="284.055777778"/>
    </contour>
  </outline>
</glyph>
<glyph name="period" format="1">
  <advance width="187.0"/>
  <unicode hex="002E"/>
  <outline>
    <contour>
      <point x="113.0" y="12.0" type="curve"/>
      <point x="113.0" y="23.0"/>
      <point x="105.0" y="30.0"/>
      <point x="93.0" y="30.0" type="curve"/>
      <point x="82.0" y="30.0"/>
      <point x="75.0" y="23.0"/>
      <point x="75.0" y="12.0" type="curve"/>
      <point x="89.0" y="12.0"/>
      <point x="99.0" y="12.0"/>
      <point x="113.0" y="12.0" type="curve"/>
      <point x="113.0" y="1.0"/>
      <point x="105.0" y="-6.0"/>
      <point x="93.0" y="-6.0" type="curve"/>
      <point x="82.0" y="-6.0"/>
      <point x="75.0" y="1.0"/>
      <point x="75.0" y="12.0" type="curve"/>
      <point x="89.0" y="12.0"/>
      <point x="99.0" y="12.0"/>
    </contour>
  </outline>
</glyph>
<glyph name="slash" format="1">
  <advance width="659.0"/>
  <unicode hex="002F"/>
  <outline>
    <contour>
      <point x="54.35" y="-67.0466666667" type="curve"/>
      <point x="246.048083" y="236.274744533"/>
      <point x="437.751917" y="539.605255467"/>
      <point x="629.45" y="842.926666667" type="curve"/>
      <point x="605.25" y="842.926666667"/>
      <point x="629.45" y="842.926666667"/>
      <point x="605.25" y="842.926666667" type="curve"/>
      <point x="413.551917" y="539.605255467"/>
      <point x="221.848083" y="236.274744533"/>
      <point x="30.15" y="-67.0466666667" type="curve"/>
      <point x="54.35" y="-67.0466666667"/>
      <point x="30.15" y="-67.0466666667"/>
    </contour>
  </outline>
</glyph>
<glyph name="zero" format="1">
  <advance width="898.0"/>
  <unicode hex="0030"/>
  <outline>
    <contour>
      <point x="100.0" y="360.0" type="curve"/>
      <point x="100.0" y="576.0"/>
      <point x="233.0" y="703.0"/>
      <point x="451.0" y="703.0" type="curve"/>
      <point x="667.0" y="703.0"/>
      <point x="799.0" y="575.0"/>
      <point x="799.0" y="362.0" type="curve"/>
      <point x="799.0" y="148.0"/>
      <point x="668.0" y="20.0"/>
      <point x="454.0" y="20.0" type="curve"/>
      <point x="235.0" y="20.0"/>
      <point x="100.0" y="145.0"/>
      <point x="100.0" y="360.0" type="curve"/>
      <point x="77.0" y="360.0"/>
      <point x="98.0" y="360.0"/>
      <point x="75.0" y="360.0" type="curve"/>
      <point x="75.0" y="130.0"/>
      <point x="220.0" y="-5.0"/>
      <point x="453.0" y="-5.0" type="curve"/>
      <point x="683.0" y="-5.0"/>
      <point x="823.0" y="133.0"/>
      <point x="823.0" y="363.0" type="curve"/>
      <point x="823.0" y="592.0"/>
      <point x="682.0" y="727.0"/>
      <point x="452.0" y="727.0" type="curve"/>
      <point x="219.0" y="727.0"/>
      <point x="75.0" y="591.0"/>
      <point x="75.0" y="360.0" type="curve"/>
      <point x="98.0" y="360.0"/>
      <point x="77.0" y="360.0"/>
    </contour>
  </outline>
</glyph>
<glyph name="two" format="1">
  <advance width="691.0"/>
  <unicode hex="0032"/>
  <outline>
    <contour>
      <point x="46.0" y="0.0" type="curve"/>
      <point x="246.0" y="0.0"/>
      <point x="428.0" y="0.0"/>
      <point x="629.0" y="0.0" type="curve"/>
      <point x="629.0" y="22.0"/>
      <point x="629.0" y="0.0"/>
      <point x="629.0" y="22.0" type="curve"/>
      <point x="424.0" y="22.0"/>
      <point x="250.0" y="22.0"/>
      <point x="46.0" y="22.0" type="curve"/>
      <point x="46.0" y="0.0"/>
      <point x="46.0" y="22.0"/>
    </contour>
    <contour>
      <point x="95.0" y="563.0" type="curve"/>
      <point x="162.0" y="656.0"/>
      <point x="239.0" y="702.0"/>
      <point x="353.0" y="702.0" type="curve"/>
      <point x="484.0" y="702.0"/>
      <point x="581.0" y="651.0"/>
      <point x="581.0" y="526.0" type="curve"/>
      <point x="581.0" y="380.0"/>
      <point x="479.0" y="319.0"/>
      <point x="354.0" y="237.0" type="curve"/>
      <point x="251.0" y="165.0"/>
      <point x="148.0" y="93.0"/>
      <point x="46.0" y="22.0" type="curve"/>
      <point x="57.0" y="0.0"/>
      <point x="46.0" y="22.0"/>
      <point x="57.0" y="0.0" type="curve"/>
      <point x="161.0" y="73.0"/>
      <point x="265.0" y="147.0"/>
      <point x="369.0" y="220.0" type="curve"/>
      <point x="500.0" y="305.0"/>
      <point x="605.0" y="373.0"/>
      <point x="605.0" y="527.0" type="curve"/>
      <point x="605.0" y="665.0"/>
      <point x="501.0" y="727.0"/>
      <point x="355.0" y="727.0" type="curve"/>
      <point x="232.0" y="727.0"/>
      <point x="141.0" y="675.0"/>
      <point x="76.0" y="576.0" type="curve"/>
      <point x="95.0" y="563.0"/>
      <point x="76.0" y="576.0"/>
    </contour>
  </outline>
</glyph>
<glyph name="three" format="1">
  <advance width="675.0"/>
  <unicode hex="0033"/>
  <outline>
    <contour>
      <point x="60" y="56" type="curve"/>
      <point x="143" y="16"/>
      <point x="209" y="-5"/>
      <point x="302" y="-5" type="curve"/>
      <point x="473" y="-5"/>
      <point x="603" y="39"/>
      <point x="603" y="195" type="curve"/>
      <point x="603" y="344"/>
      <point x="466" y="394"/>
      <point x="283" y="394" type="curve"/>
      <point x="283" y="375"/>
      <point x="283" y="391"/>
      <point x="283" y="372" type="curve"/>
      <point x="429" y="372"/>
      <point x="580" y="337"/>
      <point x="580" y="194" type="curve"/>
      <point x="580" y="55"/>
      <point x="442" y="22"/>
      <point x="303" y="22" type="curve"/>
      <point x="216" y="22"/>
      <point x="148" y="44"/>
      <point x="72" y="78" type="curve"/>
      <point x="60" y="56"/>
      <point x="72" y="78"/>
    </contour>
    <contour>
      <point x="86" y="622" type="curve"/>
      <point x="139" y="669"/>
      <point x="215" y="700"/>
      <point x="302" y="700" type="curve"/>
      <point x="433" y="700"/>
      <point x="535" y="668"/>
      <point x="535" y="550" type="curve"/>
      <point x="535" y="430"/>
      <point x="411" y="397"/>
      <point x="283" y="397" type="curve"/>
      <point x="283" y="378"/>
      <point x="283" y="394"/>
      <point x="283" y="375" type="curve"/>
      <point x="433" y="375"/>
      <point x="558" y="418"/>
      <point x="558" y="551" type="curve"/>
      <point x="558" y="682"/>
      <point x="448" y="727"/>
      <point x="304" y="727" type="curve"/>
      <point x="209" y="727"/>
      <point x="121" y="690"/>
      <point x="70" y="639" type="curve"/>
      <point x="86" y="622"/>
      <point x="70" y="639"/>
    </contour>
  </outline>
</glyph>
<glyph name="four" format="1">
  <advance width="796.0"/>
  <unicode hex="0034"/>
  <outline>
    <contour>
      <point x="42" y="244" type="curve"/>
      <point x="491.0" y="705.0" type="line"/>
      <point x="475.0" y="722.0"/>
      <point x="491.0" y="705.0"/>
      <point x="475.0" y="722.0" type="curve"/>
      <point x="29" y="268" type="line"/>
      <point x="42" y="244"/>
      <point x="29" y="268"/>
    </contour>
    <contour>
      <point x="753" y="268" type="curve"/>
      <point x="753" y="268"/>
      <point x="29" y="268"/>
      <point x="29" y="268" type="curve"/>
      <point x="42" y="244"/>
      <point x="29" y="268"/>
      <point x="42" y="244" type="curve"/>
      <point x="42" y="244"/>
      <point x="753" y="244"/>
      <point x="753" y="244" type="curve"/>
      <point x="753" y="268"/>
      <point x="753" y="244"/>
    </contour>
    <contour>
      <point x="475.0" y="722.0" type="curve"/>
      <point x="475.0" y="722.0"/>
      <point x="475.0" y="1.0"/>
      <point x="475.0" y="1.0" type="curve"/>
      <point x="499.0" y="1.0"/>
      <point x="475.0" y="1.0"/>
      <point x="499.0" y="1.0" type="curve"/>
      <point x="499.0" y="1.0"/>
      <point x="499.0" y="722.0"/>
      <point x="499.0" y="722.0" type="curve"/>
      <point x="475.0" y="722.0"/>
      <point x="499.0" y="722.0"/>
    </contour>
  </outline>
</glyph>
<glyph name="five" format="1">
  <advance width="653.0"/>
  <unicode hex="0035"/>
  <outline>
    <contour>
      <point x="114" y="722" type="curve"/>
      <point x="114" y="619"/>
      <point x="114" y="504"/>
      <point x="114" y="400" type="curve"/>
      <point x="137" y="396"/>
      <point x="114" y="400"/>
      <point x="137" y="396" type="curve"/>
      <point x="137" y="498"/>
      <point x="137" y="599"/>
      <point x="137" y="700" type="curve"/>
      <point x="114" y="722"/>
      <point x="137" y="700"/>
    </contour>
    <contour>
      <point x="137" y="396" type="curve"/>
      <point x="173.881681872" y="410.752672749"/>
      <point x="252.770186335" y="422.0"/>
      <point x="308.0" y="422.0" type="curve"/>
      <point x="451.0" y="422.0"/>
      <point x="563.45" y="354.723932203"/>
      <point x="563.45" y="224.304444444" type="curve"/>
      <point x="563.45" y="91.8078230516"/>
      <point x="439.856423648" y="21.56"/>
      <point x="293.275" y="21.56" type="curve"/>
      <point x="210.902335429" y="21.56"/>
      <point x="145.0" y="38.0"/>
      <point x="69.0" y="68.0" type="curve"/>
      <point x="58.0" y="44.0"/>
      <point x="69.0" y="68.0"/>
      <point x="58.0" y="44.0" type="curve"/>
      <point x="133.0" y="12.0"/>
      <point x="206.263567659" y="-5.0"/>
      <point x="292.175" y="-5.0" type="curve"/>
      <point x="453.805879169" y="-5.0"/>
      <point x="587.65" y="74.8789838803"/>
      <point x="587.65" y="224.304444444" type="curve"/>
      <point x="587.65" y="367.522831111"/>
      <point x="465.630646882" y="445.655666667"/>
      <point x="309.35" y="445.655666667" type="curve"/>
      <point x="243.39032745" y="445.655666667"/>
      <point x="158.949160257" y="431.861256858"/>
      <point x="114" y="412" type="curve"/>
      <point x="137" y="396"/>
      <point x="114" y="412"/>
    </contour>
    <contour>
      <point x="565.0" y="722.0" type="curve"/>
      <point x="409.553287982" y="722.0"/>
      <point x="269.446712018" y="722.0"/>
      <point x="114" y="722" type="curve"/>
      <point x="137" y="700"/>
      <point x="114" y="722"/>
      <point x="137" y="700" type="curve"/>
      <point x="284.444976077" y="700.0"/>
      <point x="417.555023923" y="700.0"/>
      <point x="565.0" y="700.0" type="curve"/>
      <point x="565.0" y="722.0"/>
      <point x="565.0" y="700.0"/>
    </contour>
  </outline>
</glyph>
<glyph name="six" format="1">
  <advance width="726.0"/>
  <unicode hex="0036"/>
  <outline>
    <contour>
      <point x="93.0" y="230.0" type="curve"/>
      <point x="156.0" y="343.0"/>
      <point x="256.0" y="385.0"/>
      <point x="376.0" y="385.0" type="curve"/>
      <point x="519.0" y="385.0"/>
      <point x="624.0" y="332.0"/>
      <point x="624.0" y="202.0" type="curve"/>
      <point x="624.0" y="76.0"/>
      <point x="520.0" y="21.0"/>
      <point x="382.0" y="21.0" type="curve"/>
      <point x="217.0" y="21.0"/>
      <point x="97.0" y="91.0"/>
      <point x="97.0" y="242.0" type="curve"/>
      <point x="97.0" y="543.0"/>
      <point x="354.0" y="645.0"/>
      <point x="665.0" y="717.0" type="curve"/>
      <point x="660" y="738"/>
      <point x="665" y="717"/>
      <point x="660" y="738" type="curve"/>
      <point x="331" y="665"/>
      <point x="72.0" y="554.0"/>
      <point x="72.0" y="241.0" type="curve"/>
      <point x="72.0" y="75.0"/>
      <point x="203.0" y="-5.0"/>
      <point x="381.0" y="-5.0" type="curve"/>
      <point x="537.0" y="-5.0"/>
      <point x="650.0" y="61.0"/>
      <point x="650.0" y="203.0" type="curve"/>
      <point x="650.0" y="347.0"/>
      <point x="534.0" y="409.0"/>
      <point x="378.0" y="409.0" type="curve"/>
      <point x="239.0" y="409.0"/>
      <point x="134.0" y="357.0"/>
      <point x="76.0" y="241.0" type="curve"/>
      <point x="93.0" y="230.0"/>
      <point x="76.0" y="241.0"/>
    </contour>
  </outline>
</glyph>
<glyph name="seven" format="1">
  <advance width="690.0"/>
  <unicode hex="0037"/>
  <outline>
    <contour>
      <point x="37.0" y="700.0" type="curve"/>
      <point x="250.0" y="700.0"/>
      <point x="463.0" y="700.0"/>
      <point x="675.0" y="700.0" type="curve"/>
      <point x="675.0" y="722.0"/>
      <point x="675.0" y="700.0"/>
      <point x="675.0" y="722.0" type="curve"/>
      <point x="454.0" y="722.0"/>
      <point x="245.0" y="722.0"/>
      <point x="37.0" y="722.0" type="curve"/>
      <point x="37.0" y="700.0"/>
      <point x="37.0" y="722.0"/>
    </contour>
    <contour>
      <point x="662.0" y="722.0" type="curve"/>
      <point x="92.0" y="0.0"/>
      <point x="660.0" y="721.0"/>
      <point x="91.0" y="0.0" type="curve"/>
      <point x="118.0" y="0.0"/>
      <point x="107.0" y="0.0"/>
      <point x="122.0" y="0.0" type="curve"/>
      <point x="674.0" y="699.0"/>
      <point x="122.0" y="0.0"/>
      <point x="675.0" y="700.0" type="curve"/>
      <point x="662.0" y="722.0"/>
      <point x="675.0" y="700.0"/>
    </contour>
  </outline>
</glyph>
<glyph name="eight" format="1">
  <advance width="694.0"/>
  <unicode hex="0038"/>
  <outline>
    <contour>
      <point x="101.0" y="562.0" type="curve"/>
      <point x="101.0" y="434.0"/>
      <point x="214.0" y="415.0"/>
      <point x="340.0" y="369.0" type="curve"/>
      <point x="473.0" y="320.0"/>
      <point x="594.0" y="297.0"/>
      <point x="594.0" y="170.0" type="curve"/>
      <point x="594.0" y="47.0"/>
      <point x="485.0" y="19.0"/>
      <point x="344.0" y="19.0" type="curve"/>
      <point x="204.0" y="19.0"/>
      <point x="99.0" y="49.0"/>
      <point x="99.0" y="170.0" type="curve"/>
      <point x="99.0" y="301.0"/>
      <point x="222.0" y="319.0"/>
      <point x="357.0" y="369.0" type="curve"/>
      <point x="479.0" y="417.0"/>
      <point x="592.0" y="434.0"/>
      <point x="592.0" y="560.0" type="curve"/>
      <point x="592.0" y="688.0"/>
      <point x="489.0" y="727.0"/>
      <point x="344.0" y="727.0" type="curve"/>
      <point x="205.0" y="727.0"/>
      <point x="101.0" y="685.0"/>
      <point x="101.0" y="562.0" type="curve"/>
      <point x="125.0" y="562.0"/>
      <point x="101.0" y="562.0"/>
      <point x="125.0" y="562.0" type="curve"/>
      <point x="125.0" y="670.0"/>
      <point x="220.0" y="703.0"/>
      <point x="343.0" y="703.0" type="curve"/>
      <point x="473.0" y="703.0"/>
      <point x="568.0" y="674.0"/>
      <point x="568.0" y="560.0" type="curve"/>
      <point x="568.0" y="446.0"/>
      <point x="458.0" y="429.0"/>
      <point x="340.0" y="387.0" type="curve"/>
      <point x="200.0" y="334.0"/>
      <point x="75.0" y="313.0"/>
      <point x="75.0" y="170.0" type="curve"/>
      <point x="75.0" y="36.0"/>
      <point x="189.0" y="-5.0"/>
      <point x="343.0" y="-5.0" type="curve"/>
      <point x="499.0" y="-5.0"/>
      <point x="618.0" y="32.0"/>
      <point x="618.0" y="170.0" type="curve"/>
      <point x="618.0" y="310.0"/>
      <point x="494.0" y="335.0"/>
      <point x="357.0" y="387.0" type="curve"/>
      <point x="237.0" y="432.0"/>
      <point x="125.0" y="445.0"/>
      <point x="125.0" y="562.0" type="curve"/>
      <point x="101.0" y="562.0"/>
      <point x="125.0" y="562.0"/>
    </contour>
  </outline>
</glyph>
<glyph name="nine" format="1">
  <advance width="727.0"/>
  <unicode hex="0039"/>
  <outline>
    <contour>
      <point x="636.675" y="492.11" type="curve"/>
      <point x="573.443310264" y="379.418360606"/>
      <point x="484.263138353" y="335.900111111"/>
      <point x="353.75" y="335.900111111" type="curve"/>
      <point x="210.643584045" y="335.900111111"/>
      <point x="104.2" y="390.131979551"/>
      <point x="104.2" y="519.686777778" type="curve"/>
      <point x="104.2" y="646.040694508"/>
      <point x="209.0" y="702.0"/>
      <point x="347.0" y="702.0" type="curve"/>
      <point x="512.0" y="702.0"/>
      <point x="632.025" y="630.757370947"/>
      <point x="632.025" y="479.695444444" type="curve"/>
      <point x="632.025" y="179.018946666"/>
      <point x="381.0" y="49.0"/>
      <point x="64.25" y="7.51088888889" type="curve"/>
      <point x="68.0" y="-15.0"/>
      <point x="64.0" y="8.0"/>
      <point x="68.0" y="-15.0" type="curve"/>
      <point x="400.0" y="24.0"/>
      <point x="655.125" y="167.769767567"/>
      <point x="655.125" y="480.773444444" type="curve"/>
      <point x="655.125" y="647.360075288"/>
      <point x="526.841086446" y="727.120333333"/>
      <point x="348.475" y="727.120333333" type="curve"/>
      <point x="192.998117157" y="727.120333333"/>
      <point x="80.0" y="661.453533771"/>
      <point x="80.0" y="518.608777778" type="curve"/>
      <point x="80.0" y="375.149370677"/>
      <point x="195.487131066" y="313.262111111"/>
      <point x="351.55" y="313.262111111" type="curve"/>
      <point x="490.581295804" y="313.262111111"/>
      <point x="599.0" y="364.0"/>
      <point x="650.0" y="485.0" type="curve"/>
      <point x="637.0" y="492.0"/>
      <point x="650.0" y="485.0"/>
    </contour>
  </outline>
</glyph>
<glyph name="colon" format="1">
  <advance width="199.0"/>
  <unicode hex="003A"/>
  <outline>
    <contour>
      <point x="109.0" y="427.0" type="curve"/>
      <point x="109.0" y="436.0"/>
      <point x="103.0" y="441.0"/>
      <point x="94.0" y="441.0" type="curve"/>
      <point x="86.0" y="441.0"/>
      <point x="81.0" y="435.0"/>
      <point x="81.0" y="427.0" type="curve"/>
      <point x="109.0" y="427.0"/>
      <point x="81.0" y="427.0"/>
      <point x="109.0" y="427.0" type="curve"/>
      <point x="109.0" y="417.0"/>
      <point x="103.0" y="413.0"/>
      <point x="94.0" y="413.0" type="curve"/>
      <point x="86.0" y="413.0"/>
      <point x="81.0" y="419.0"/>
      <point x="81.0" y="427.0" type="curve"/>
      <point x="109.0" y="427.0"/>
      <point x="81.0" y="427.0"/>
    </contour>
    <contour>
      <point x="109.0" y="12.0" type="curve"/>
      <point x="109.0" y="21.0"/>
      <point x="103.0" y="26.0"/>
      <point x="94.0" y="26.0" type="curve"/>
      <point x="86.0" y="26.0"/>
      <point x="81.0" y="20.0"/>
      <point x="81.0" y="12.0" type="curve"/>
      <point x="109.0" y="12.0"/>
      <point x="81.0" y="12.0"/>
      <point x="109.0" y="12.0" type="curve"/>
      <point x="109.0" y="2.0"/>
      <point x="103.0" y="-2.0"/>
      <point x="94.0" y="-2.0" type="curve"/>
      <point x="86.0" y="-2.0"/>
      <point x="81.0" y="4.0"/>
      <point x="81.0" y="12.0" type="curve"/>
      <point x="109.0" y="12.0"/>
      <point x="81.0" y="12.0"/>
    </contour>
  </outline>
</glyph>
<glyph name="semicolon" format="1">
  <advance width="184.0"/>
  <unicode hex="003B"/>
  <outline>
    <contour>
      <point x="109.0" y="427.0" type="curve"/>
      <point x="109.0" y="436.0"/>
      <point x="103.0" y="441.0"/>
      <point x="94.0" y="441.0" type="curve"/>
      <point x="86.0" y="441.0"/>
      <point x="81.0" y="435.0"/>
      <point x="81.0" y="427.0" type="curve"/>
      <point x="109.0" y="427.0"/>
      <point x="81.0" y="427.0"/>
      <point x="109.0" y="427.0" type="curve"/>
      <point x="109.0" y="417.0"/>
      <point x="103.0" y="413.0"/>
      <point x="94.0" y="413.0" type="curve"/>
      <point x="86.0" y="413.0"/>
      <point x="81.0" y="419.0"/>
      <point x="81.0" y="427.0" type="curve"/>
      <point x="109.0" y="427.0"/>
      <point x="81.0" y="427.0"/>
    </contour>
    <component base="comma" xOffset="-24.0"/>
  </outline>
</glyph>
<glyph name="less" format="1">
  <advance width="935.0"/>
  <unicode hex="003C"/>
  <outline>
    <contour>
      <point x="863.45" y="581.858" type="curve"/>
      <point x="41.3" y="311.858" type="line"/>
      <point x="41.3" y="288.142"/>
      <point x="41.3" y="311.858"/>
      <point x="41.3" y="288.142" type="curve"/>
      <point x="863.45" y="558.142" type="line"/>
      <point x="863.45" y="581.858"/>
      <point x="863.45" y="558.142"/>
    </contour>
    <contour>
      <point x="876.95" y="47.858" type="curve"/>
      <point x="41.3" y="311.858" type="line"/>
      <point x="41.3" y="288.142"/>
      <point x="41.3" y="311.858"/>
      <point x="41.3" y="288.142" type="curve"/>
      <point x="876.95" y="24.142" type="line"/>
      <point x="876.95" y="47.858"/>
      <point x="876.95" y="24.142"/>
    </contour>
  </outline>
</glyph>
<glyph name="equal" format="1">
  <advance width="958.0"/>
  <unicode hex="003D"/>
  <outline>
    <contour>
      <point x="67.3" y="206.181" type="curve"/>
      <point x="350.3471695" y="206.181"/>
      <point x="633.4028305" y="206.181"/>
      <point x="916.45" y="206.181" type="curve"/>
      <point x="916.45" y="228.819"/>
      <point x="916.45" y="206.181"/>
      <point x="916.45" y="228.819" type="curve"/>
      <point x="633.4028305" y="228.819"/>
      <point x="350.3471695" y="228.819"/>
      <point x="67.3" y="228.819" type="curve"/>
      <point x="67.3" y="206.181"/>
      <point x="67.3" y="228.819"/>
    </contour>
    <contour>
      <point x="67.3" y="428.181" type="curve"/>
      <point x="350.3471695" y="428.181"/>
      <point x="633.4028305" y="428.181"/>
      <point x="916.45" y="428.181" type="curve"/>
      <point x="916.45" y="450.819"/>
      <point x="916.45" y="428.181"/>
      <point x="916.45" y="450.819" type="curve"/>
      <point x="633.4028305" y="450.819"/>
      <point x="350.3471695" y="450.819"/>
      <point x="67.3" y="450.819" type="curve"/>
      <point x="67.3" y="428.181"/>
      <point x="67.3" y="450.819"/>
    </contour>
  </outline>
</glyph>
<glyph name="greater" format="1">
  <advance width="934.0"/>
  <unicode hex="003E"/>
  <outline>
    <contour>
      <point x="70.45" y="24.142" type="curve"/>
      <point x="892.6" y="294.142" type="line"/>
      <point x="892.6" y="317.858"/>
      <point x="892.6" y="294.142"/>
      <point x="892.6" y="317.858" type="curve"/>
      <point x="70.45" y="47.858" type="line"/>
      <point x="70.45" y="24.142"/>
      <point x="70.45" y="47.858"/>
    </contour>
    <contour>
      <point x="56.95" y="558.142" type="curve"/>
      <point x="892.6" y="294.142" type="line"/>
      <point x="892.6" y="317.858"/>
      <point x="892.6" y="294.142"/>
      <point x="892.6" y="317.858" type="curve"/>
      <point x="56.95" y="581.858" type="line"/>
      <point x="56.95" y="558.142"/>
      <point x="56.95" y="581.858"/>
    </contour>
  </outline>
</glyph>
<glyph name="question" format="1">
  <advance width="499.0"/>
  <unicode hex="003F"/>
  <outline>
    <contour>
      <point x="148.0" y="334.0" type="curve"/>
      <point x="148.0" y="297.0"/>
      <point x="148.0" y="259.0"/>
      <point x="148.0" y="222.0" type="curve"/>
      <point x="173.0" y="222.0"/>
      <point x="148.0" y="222.0"/>
      <point x="173.0" y="222.0" type="curve"/>
      <point x="173.0" y="259.0"/>
      <point x="173.0" y="297.0"/>
      <point x="173.0" y="334.0" type="curve"/>
      <point x="148.0" y="334.0"/>
      <point x="173.0" y="334.0"/>
    </contour>
    <contour>
      <point x="67.0" y="672.0" type="curve"/>
      <point x="105.0" y="683.0"/>
      <point x="133.0" y="688.0"/>
      <point x="172.0" y="688.0" type="curve"/>
      <point x="304.0" y="688.0"/>
      <point x="411.0" y="637.0"/>
      <point x="411.0" y="519.0" type="curve"/>
      <point x="411.0" y="390.0"/>
      <point x="292.0" y="334.0"/>
      <point x="148.0" y="334.0" type="curve"/>
      <point x="148.0" y="311.0"/>
      <point x="148.0" y="334.0"/>
      <point x="148.0" y="311.0" type="curve"/>
      <point x="305.0" y="311.0"/>
      <point x="434.0" y="376.0"/>
      <point x="434.0" y="519.0" type="curve"/>
      <point x="434.0" y="649.0"/>
      <point x="316.0" y="710.0"/>
      <point x="174.0" y="710.0" type="curve"/>
      <point x="132.0" y="710.0"/>
      <point x="100.0" y="704.0"/>
      <point x="59.0" y="694.0" type="curve"/>
      <point x="67.0" y="672.0"/>
      <point x="59.0" y="694.0"/>
    </contour>
    <contour>
      <point x="175.0" y="11.0" type="curve"/>
      <point x="175.0" y="20.0"/>
      <point x="170.0" y="25.0"/>
      <point x="161.0" y="25.0" type="curve"/>
      <point x="152.0" y="25.0"/>
      <point x="147.0" y="19.0"/>
      <point x="147.0" y="11.0" type="curve"/>
      <point x="175.0" y="11.0"/>
      <point x="147.0" y="11.0"/>
      <point x="175.0" y="11.0" type="curve"/>
      <point x="175.0" y="2.0"/>
      <point x="170.0" y="-2.0"/>
      <point x="161.0" y="-2.0" type="curve"/>
      <point x="152.0" y="-2.0"/>
      <point x="147.0" y="3.0"/>
      <point x="147.0" y="11.0" type="curve"/>
      <point x="175.0" y="11.0"/>
      <point x="147.0" y="11.0"/>
    </contour>
  </outline>
</glyph>
<glyph name="at" format="1">
  <advance width="1048.0"/>
  <unicode hex="0040"/>
  <outline>
    <contour>
      <point x="756.0" y="-74.0" type="curve"/>
      <point x="678.0" y="-107.0"/>
      <point x="623.0" y="-111.0"/>
      <point x="539.0" y="-111.0" type="curve"/>
      <point x="279.0" y="-111.0"/>
      <point x="92.0" y="-16.0"/>
      <point x="92.0" y="219.0" type="curve"/>
      <point x="92.0" y="451.0"/>
      <point x="281.0" y="545.0"/>
      <point x="537.0" y="545.0" type="curve"/>
      <point x="778.0" y="545.0"/>
      <point x="950.0" y="445.0"/>
      <point x="950.0" y="224.0" type="curve"/>
      <point x="950.0" y="136.0"/>
      <point x="915.0" y="73.0"/>
      <point x="834.0" y="73.0" type="curve"/>
      <point x="752.0" y="73.0"/>
      <point x="713.0" y="136.0"/>
      <point x="713.0" y="224.0" type="curve"/>
      <point x="713.0" y="337.0"/>
      <point x="634.0" y="397.0"/>
      <point x="517.0" y="397.0" type="curve"/>
      <point x="392.0" y="397.0"/>
      <point x="308.0" y="341.0"/>
      <point x="308.0" y="225.0" type="curve"/>
      <point x="308.0" y="105.0"/>
      <point x="389.0" y="41.0"/>
      <point x="513.0" y="41.0" type="curve"/>
      <point x="623.0" y="41.0"/>
      <point x="686.0" y="105.0"/>
      <point x="708.0" y="214.0" type="curve"/>
      <point x="693.0" y="219.0"/>
      <point x="708.0" y="214.0"/>
      <point x="693.0" y="219.0" type="curve"/>
      <point x="664.0" y="122.0"/>
      <point x="614.0" y="63.0"/>
      <point x="517.0" y="63.0" type="curve"/>
      <point x="404.0" y="63.0"/>
      <point x="331.0" y="119.0"/>
      <point x="331.0" y="226.0" type="curve"/>
      <point x="331.0" y="328.0"/>
      <point x="407.0" y="375.0"/>
      <point x="515.0" y="375.0" type="curve"/>
      <point x="620.0" y="375.0"/>
      <point x="691.0" y="324.0"/>
      <point x="691.0" y="223.0" type="curve"/>
      <point x="691.0" y="123.0"/>
      <point x="737.0" y="53.0"/>
      <point x="832.0" y="53.0" type="curve"/>
      <point x="928.0" y="53.0"/>
      <point x="973.0" y="123.0"/>
      <point x="973.0" y="225.0" type="curve"/>
      <point x="973.0" y="461.0"/>
      <point x="793.0" y="568.0"/>
      <point x="539.0" y="568.0" type="curve"/>
      <point x="266.0" y="568.0"/>
      <point x="69.0" y="467.0"/>
      <point x="69.0" y="218.0" type="curve"/>
      <point x="69.0" y="-30.0"/>
      <point x="265.0" y="-133.0"/>
      <point x="537.0" y="-133.0" type="curve"/>
      <point x="626.0" y="-133.0"/>
      <point x="685.0" y="-126.0"/>
      <point x="767.0" y="-94.0" type="curve"/>
      <point x="756.0" y="-74.0"/>
      <point x="767.0" y="-94.0"/>
    </contour>
  </outline>
</glyph>
<glyph name="A" format="1">
  <advance width="828.0"/>
  <unicode hex="0041"/>
  <outline>
    <contour>
      <point x="423.0" y="855.0" type="move" name="top"/>
    </contour>
    <contour>
      <point x="792.0" y="5.0" type="move" name="bottom"/>
    </contour>
    <contour>
      <point x="653.0" y="277.0" type="curve"/>
      <point x="494.0" y="277.0"/>
      <point x="335.0" y="277.0"/>
      <point x="177.0" y="277.0" type="curve"/>
      <point x="167.0" y="254.0"/>
      <point x="177.0" y="277.0"/>
      <point x="167.0" y="254.0" type="curve"/>
      <point x="331.0" y="254.0"/>
      <point x="496.0" y="254.0"/>
      <point x="660.0" y="254.0" type="curve"/>
      <point x="653.0" y="277.0"/>
      <point x="660.0" y="254.0"/>
    </contour>
    <contour>
      <point x="802.0" y="0.0" type="curve"/>
      <point x="680.0" y="241.0"/>
      <point x="559.0" y="481.0"/>
      <point x="437.0" y="722.0" type="curve"/>
      <point x="415.0" y="722.0"/>
      <point x="437.0" y="722.0"/>
      <point x="415.0" y="722.0" type="curve"/>
      <point x="536.0" y="481.0"/>
      <point x="656.0" y="241.0"/>
      <point x="776.0" y="0.0" type="curve"/>
      <point x="802.0" y="0.0"/>
      <point x="776.0" y="0.0"/>
    </contour>
    <contour>
      <point x="32.0" y="0.0" type="curve"/>
      <point x="166.0" y="241.0"/>
      <point x="300.0" y="481.0"/>
      <point x="435.0" y="722.0" type="curve"/>
      <point x="413.0" y="722.0"/>
      <point x="435.0" y="722.0"/>
      <point x="413.0" y="722.0" type="curve"/>
      <point x="277.0" y="481.0"/>
      <point x="141.0" y="241.0"/>
      <point x="6.0" y="0.0" type="curve"/>
      <point x="32.0" y="0.0"/>
      <point x="6.0" y="0.0"/>
    </contour>
  </outline>
</glyph>
<glyph name="B" format="1">
  <advance width="762.0"/>
  <unicode hex="0042"/>
  <outline>
    <contour>
      <point x="131.0" y="700.0" type="curve"/>
      <point x="228.0" y="700.0"/>
      <point x="325.0" y="700.0"/>
      <point x="422.0" y="700.0" type="curve"/>
      <point x="527.0" y="700.0"/>
      <point x="609.0" y="656.0"/>
      <point x="609.0" y="555.0" type="curve"/>
      <point x="609.0" y="447.0"/>
      <point x="485.0" y="421.0"/>
      <point x="364.0" y="421.0" type="curve"/>
      <point x="286.0" y="421.0"/>
      <point x="208.0" y="421.0"/>
      <point x="131.0" y="421.0" type="curve"/>
      <point x="131.0" y="399.0"/>
      <point x="131.0" y="421.0"/>
      <point x="131.0" y="399.0" type="curve"/>
      <point x="204.0" y="399.0"/>
      <point x="278.0" y="399.0"/>
      <point x="352.0" y="399.0" type="curve"/>
      <point x="493.0" y="399.0"/>
      <point x="633.0" y="430.0"/>
      <point x="633.0" y="555.0" type="curve"/>
      <point x="633.0" y="669.0"/>
      <point x="545.0" y="722.0"/>
      <point x="422.0" y="722.0" type="curve"/>
      <point x="325.0" y="722.0"/>
      <point x="228.0" y="722.0"/>
      <point x="131.0" y="722.0" type="curve"/>
      <point x="131.0" y="700.0"/>
      <point x="131.0" y="722.0"/>
    </contour>
    <contour>
      <point x="153" y="0" type="curve"/>
      <point x="153" y="241"/>
      <point x="153" y="481"/>
      <point x="153" y="722" type="curve"/>
      <point x="128" y="722"/>
      <point x="153" y="722"/>
      <point x="128" y="722" type="curve"/>
      <point x="128" y="481"/>
      <point x="128" y="241"/>
      <point x="128" y="0" type="curve"/>
      <point x="153" y="0"/>
      <point x="128" y="0"/>
    </contour>
    <contour>
      <point x="131.0" y="399.0" type="curve"/>
      <point x="208.0" y="399.0"/>
      <point x="286.0" y="399.0"/>
      <point x="364.0" y="399.0" type="curve"/>
      <point x="529.0" y="399.0"/>
      <point x="672.0" y="355.0"/>
      <point x="672.0" y="204.0" type="curve"/>
      <point x="672.0" y="73.0"/>
      <point x="566.0" y="22.0"/>
      <point x="420.0" y="22.0" type="curve"/>
      <point x="323.0" y="22.0"/>
      <point x="227.0" y="22.0"/>
      <point x="131.0" y="22.0" type="curve"/>
      <point x="131.0" y="0.0"/>
      <point x="131.0" y="22.0"/>
      <point x="131.0" y="0.0" type="curve"/>
      <point x="227.0" y="0.0"/>
      <point x="323.0" y="0.0"/>
      <point x="420.0" y="0.0" type="curve"/>
      <point x="581.0" y="0.0"/>
      <point x="696.0" y="59.0"/>
      <point x="696.0" y="204.0" type="curve"/>
      <point x="696.0" y="372.0"/>
      <point x="537.0" y="421.0"/>
      <point x="352.0" y="421.0" type="curve"/>
      <point x="278.0" y="421.0"/>
      <point x="204.0" y="421.0"/>
      <point x="131.0" y="421.0" type="curve"/>
      <point x="131.0" y="399.0"/>
      <point x="131.0" y="421.0"/>
    </contour>
  </outline>
</glyph>
<glyph name="C" format="1">
  <advance width="866.0"/>
  <unicode hex="0043"/>
  <outline>
    <contour>
      <point x="504.0" y="855.0" type="move" name="top"/>
    </contour>
    <contour>
      <point x="468.0" y="10.0" type="move" name="bottom"/>
    </contour>
    <contour>
      <point x="805.0" y="655.0" type="curve"/>
      <point x="728" y="696"/>
      <point x="613.0" y="727.0"/>
      <point x="503.0" y="727.0" type="curve"/>
      <point x="245.0" y="727.0"/>
      <point x="72.0" y="594.0"/>
      <point x="72.0" y="344.0" type="curve"/>
      <point x="72.0" y="113.0"/>
      <point x="234.0" y="-5.0"/>
      <point x="475.0" y="-5.0" type="curve"/>
      <point x="617.0" y="-5.0"/>
      <point x="712" y="20"/>
      <point x="830.0" y="96.0" type="curve"/>
      <point x="815.0" y="113.0"/>
      <point x="830.0" y="96.0"/>
      <point x="815.0" y="113.0" type="curve"/>
      <point x="704.0" y="43.0"/>
      <point x="610.0" y="19.0"/>
      <point x="476.0" y="19.0" type="curve"/>
      <point x="250.0" y="19.0"/>
      <point x="96.0" y="130.0"/>
      <point x="96.0" y="345.0" type="curve"/>
      <point x="96.0" y="578.0"/>
      <point x="260.0" y="704.0"/>
      <point x="502.0" y="704.0" type="curve"/>
      <point x="607.0" y="704.0"/>
      <point x="704.0" y="680.0"/>
      <point x="792.0" y="638.0" type="curve"/>
      <point x="805.0" y="655.0"/>
      <point x="792.0" y="638.0"/>
    </contour>
  </outline>
</glyph>
<glyph name="D" format="1">
  <advance width="908.0"/>
  <unicode hex="0044"/>
  <outline>
    <contour>
      <point x="368.0" y="854.0" type="move" name="top"/>
    </contour>
    <contour>
      <point x="128.0" y="722.0" type="curve"/>
      <point x="128.0" y="481.0"/>
      <point x="128.0" y="241.0"/>
      <point x="128.0" y="0.0" type="curve"/>
      <point x="153.0" y="0.0"/>
      <point x="128.0" y="0.0"/>
      <point x="153.0" y="0.0" type="curve"/>
      <point x="153.0" y="241.0"/>
      <point x="153.0" y="481.0"/>
      <point x="153.0" y="722.0" type="curve"/>
      <point x="128.0" y="722.0"/>
      <point x="153.0" y="722.0"/>
    </contour>
    <contour>
      <point x="143.0" y="0.0" type="curve"/>
      <point x="233.0" y="0.0"/>
      <point x="323.0" y="0.0"/>
      <point x="413.0" y="0.0" type="curve"/>
      <point x="673.0" y="0.0"/>
      <point x="834.0" y="106.0"/>
      <point x="834.0" y="350.0" type="curve"/>
      <point x="834.0" y="608.0"/>
      <point x="668.0" y="722.0"/>
      <point x="396.0" y="722.0" type="curve"/>
      <point x="311.0" y="722.0"/>
      <point x="227.0" y="722.0"/>
      <point x="143.0" y="722.0" type="curve"/>
      <point x="143.0" y="700.0"/>
      <point x="143.0" y="722.0"/>
      <point x="143.0" y="700.0" type="curve"/>
      <point x="227.0" y="700.0"/>
      <point x="311.0" y="700.0"/>
      <point x="394.0" y="700.0" type="curve"/>
      <point x="652.0" y="700.0"/>
      <point x="811.0" y="593.0"/>
      <point x="811.0" y="350.0" type="curve"/>
      <point x="811.0" y="121.0"/>
      <point x="660.0" y="22.0"/>
      <point x="416.0" y="22.0" type="curve"/>
      <point x="325.0" y="22.0"/>
      <point x="234.0" y="22.0"/>
      <point x="143.0" y="22.0" type="curve"/>
      <point x="143.0" y="0.0"/>
      <point x="143.0" y="22.0"/>
    </contour>
  </outline>
</glyph>
<glyph name="E" format="1">
  <advance width="747.0"/>
  <unicode hex="0045"/>
  <outline>
    <contour>
      <point x="380.0" y="855.0" type="move" name="top"/>
    </contour>
    <contour>
      <point x="710.0" y="7.0" type="move" name="bottom"/>
    </contour>
    <contour>
      <point x="149.0" y="363.0" type="curve"/>
      <point x="296.0" y="363.0"/>
      <point x="444.0" y="363.0"/>
      <point x="592.0" y="363.0" type="curve"/>
      <point x="592.0" y="385.0"/>
      <point x="592.0" y="363.0"/>
      <point x="592.0" y="385.0" type="curve"/>
      <point x="444.0" y="385.0"/>
      <point x="296.0" y="385.0"/>
      <point x="149.0" y="385.0" type="curve"/>
      <point x="149.0" y="363.0"/>
      <point x="149.0" y="385.0"/>
    </contour>
    <contour>
      <point x="128.0" y="700.0" type="curve"/>
      <point x="311.0" y="700.0"/>
      <point x="494.0" y="700.0"/>
      <point x="677.0" y="700.0" type="curve"/>
      <point x="677.0" y="722.0"/>
      <point x="677.0" y="700.0"/>
      <point x="677.0" y="722.0" type="curve"/>
      <point x="494.0" y="722.0"/>
      <point x="311.0" y="722.0"/>
      <point x="128.0" y="722.0" type="curve"/>
      <point x="128.0" y="700.0"/>
      <point x="128.0" y="722.0"/>
    </contour>
    <contour>
      <point x="152" y="0" type="curve"/>
      <point x="152" y="0"/>
      <point x="152" y="722"/>
      <point x="152" y="722" type="curve"/>
      <point x="128" y="722"/>
      <point x="152" y="722"/>
      <point x="128" y="722" type="curve"/>
      <point x="128" y="481"/>
      <point x="128" y="241"/>
      <point x="128" y="0" type="curve"/>
      <point x="152" y="0"/>
      <point x="128" y="0"/>
    </contour>
    <contour>
      <point x="128.0" y="0.0" type="curve"/>
      <point x="326.0" y="0.0"/>
      <point x="524.0" y="0.0"/>
      <point x="722.0" y="0.0" type="curve"/>
      <point x="722.0" y="22.0"/>
      <point x="722.0" y="0.0"/>
      <point x="722.0" y="22.0" type="curve"/>
      <point x="524.0" y="22.0"/>
      <point x="326.0" y="22.0"/>
      <point x="128.0" y="22.0" type="curve"/>
      <point x="128.0" y="0.0"/>
      <point x="128.0" y="22.0"/>
    </contour>
  </outline>
</glyph>
<glyph name="F" format="1">
  <advance width="703.0"/>
  <unicode hex="0046"/>
  <outline>
    <contour>
      <point x="148.0" y="363.0" type="curve"/>
      <point x="293.0" y="363.0"/>
      <point x="438.0" y="363.0"/>
      <point x="583.0" y="363.0" type="curve"/>
      <point x="583.0" y="385.0"/>
      <point x="583.0" y="363.0"/>
      <point x="583.0" y="385.0" type="curve"/>
      <point x="438.0" y="385.0"/>
      <point x="293.0" y="385.0"/>
      <point x="148.0" y="385.0" type="curve"/>
      <point x="148.0" y="363.0"/>
      <point x="148.0" y="385.0"/>
    </contour>
    <contour>
      <point x="152" y="0" type="curve"/>
      <point x="152" y="0"/>
      <point x="152" y="722"/>
      <point x="152" y="722" type="curve"/>
      <point x="128" y="722"/>
      <point x="152" y="722"/>
      <point x="128" y="722" type="curve"/>
      <point x="128" y="481"/>
      <point x="128" y="241"/>
      <point x="128" y="0" type="curve"/>
      <point x="152" y="0"/>
      <point x="128" y="0"/>
    </contour>
    <contour>
      <point x="128.0" y="700.0" type="curve"/>
      <point x="312.0" y="700.0"/>
      <point x="497.0" y="700.0"/>
      <point x="682.0" y="700.0" type="curve"/>
      <point x="682.0" y="722.0"/>
      <point x="682.0" y="700.0"/>
      <point x="682.0" y="722.0" type="curve"/>
      <point x="497.0" y="722.0"/>
      <point x="312.0" y="722.0"/>
      <point x="128.0" y="722.0" type="curve"/>
      <point x="128.0" y="700.0"/>
      <point x="128.0" y="722.0"/>
    </contour>
  </outline>
</glyph>
<glyph name="G" format="1">
  <advance width="982.0"/>
  <unicode hex="0047"/>
  <outline>
    <contour>
      <point x="516.0" y="855.0" type="move" name="top"/>
    </contour>
    <contour>
      <point x="513.0" y="14.0" type="move" name="bottom"/>
    </contour>
    <contour>
      <point x="897.0" y="319.0" type="curve"/>
      <point x="798.0" y="319.0"/>
      <point x="699.0" y="319.0"/>
      <point x="600.0" y="319.0" type="curve"/>
      <point x="600.0" y="297.0"/>
      <point x="600.0" y="319.0"/>
      <point x="600.0" y="297.0" type="curve"/>
      <point x="699.0" y="297.0"/>
      <point x="798.0" y="297.0"/>
      <point x="897.0" y="297.0" type="curve"/>
      <point x="897.0" y="319.0"/>
      <point x="897.0" y="297.0"/>
    </contour>
    <contour>
      <point x="906.0" y="77.0" type="curve"/>
      <point x="906.0" y="158.0"/>
      <point x="906.0" y="238.0"/>
      <point x="906.0" y="319.0" type="curve"/>
      <point x="884.0" y="319.0"/>
      <point x="906.0" y="319.0"/>
      <point x="884.0" y="319.0" type="curve"/>
      <point x="884.0" y="238.0"/>
      <point x="884.0" y="158.0"/>
      <point x="884.0" y="77.0" type="curve"/>
      <point x="906.0" y="77.0"/>
      <point x="884.0" y="77.0"/>
    </contour>
    <contour>
      <point x="883.0" y="642.0" type="curve"/>
      <point x="786" y="694"/>
      <point x="650.0" y="727.0"/>
      <point x="512.0" y="727.0" type="curve"/>
      <point x="252.0" y="727.0"/>
      <point x="72.0" y="611.0"/>
      <point x="72.0" y="365.0" type="curve"/>
      <point x="72.0" y="112.0"/>
      <point x="259.0" y="-5.0"/>
      <point x="527.0" y="-5.0" type="curve"/>
      <point x="675.0" y="-5.0"/>
      <point x="771.0" y="19.0"/>
      <point x="906.0" y="77.0" type="curve"/>
      <point x="893" y="96"/>
      <point x="906" y="77"/>
      <point x="893" y="96" type="curve"/>
      <point x="769" y="46"/>
      <point x="668.0" y="20.0"/>
      <point x="528.0" y="20.0" type="curve"/>
      <point x="274.0" y="20.0"/>
      <point x="96.0" y="129.0"/>
      <point x="96.0" y="367.0" type="curve"/>
      <point x="96.0" y="595.0"/>
      <point x="269.0" y="704.0"/>
      <point x="513.0" y="704.0" type="curve"/>
      <point x="646.0" y="704.0"/>
      <point x="763" y="677"/>
      <point x="871.0" y="624.0" type="curve"/>
      <point x="883.0" y="642.0"/>
      <point x="871.0" y="624.0"/>
    </contour>
  </outline>
</glyph>
<glyph name="H" format="1">
  <advance width="962.0"/>
  <unicode hex="0048"/>
  <outline>
    <contour>
      <point x="152.0" y="0.0" type="curve"/>
      <point x="152.0" y="0.0"/>
      <point x="152.0" y="722.0"/>
      <point x="152.0" y="722.0" type="curve"/>
      <point x="128.0" y="722.0"/>
      <point x="152.0" y="722.0"/>
      <point x="128.0" y="722.0" type="curve"/>
      <point x="128.0" y="481.0"/>
      <point x="128.0" y="241.0"/>
      <point x="128.0" y="0.0" type="curve"/>
      <point x="152.0" y="0.0"/>
      <point x="128.0" y="0.0"/>
    </contour>
    <contour>
      <point x="819.0" y="374.0" type="curve"/>
      <point x="593.0" y="374.0"/>
      <point x="366.0" y="374.0"/>
      <point x="140.0" y="374.0" type="curve"/>
      <point x="140.0" y="352.0"/>
      <point x="140.0" y="374.0"/>
      <point x="140.0" y="352.0" type="curve"/>
      <point x="366.0" y="352.0"/>
      <point x="593.0" y="352.0"/>
      <point x="819.0" y="352.0" type="curve"/>
      <point x="819.0" y="374.0"/>
      <point x="819.0" y="352.0"/>
    </contour>
    <contour>
      <point x="834.0" y="1.0" type="curve"/>
      <point x="834.0" y="241.0"/>
      <point x="834.0" y="481.0"/>
      <point x="834.0" y="721.0" type="curve"/>
      <point x="810.0" y="721.0"/>
      <point x="834.0" y="721.0"/>
      <point x="810.0" y="721.0" type="curve"/>
      <point x="810.0" y="721.0"/>
      <point x="810.0" y="1.0"/>
      <point x="810.0" y="1.0" type="curve"/>
      <point x="834.0" y="1.0"/>
      <point x="810.0" y="1.0"/>
    </contour>
  </outline>
</glyph>
<glyph name="I" format="1">
  <advance width="280.0"/>
  <unicode hex="0049"/>
  <outline>
    <contour>
      <point x="141.0" y="855.0" type="move" name="top"/>
    </contour>
    <contour>
      <point x="148.0" y="9.0" type="move" name="bottom"/>
    </contour>
    <contour>
      <point x="152.0" y="0.0" type="curve"/>
      <point x="152.0" y="241.0"/>
      <point x="152.0" y="481.0"/>
      <point x="152.0" y="722.0" type="curve"/>
      <point x="128.0" y="722.0"/>
      <point x="152.0" y="722.0"/>
      <point x="128.0" y="722.0" type="curve"/>
      <point x="128.0" y="481.0"/>
      <point x="128.0" y="241.0"/>
      <point x="128.0" y="0.0" type="curve"/>
      <point x="152.0" y="0.0"/>
      <point x="128.0" y="0.0"/>
    </contour>
  </outline>
</glyph>
<glyph name="J" format="1">
  <advance width="538.0"/>
  <unicode hex="004A"/>
  <outline>
    <contour>
      <point x="16" y="43" type="curve"/>
      <point x="54" y="23"/>
      <point x="108" y="0"/>
      <point x="173" y="0" type="curve"/>
      <point x="323" y="0"/>
      <point x="419" y="75"/>
      <point x="419" y="219" type="curve"/>
      <point x="419" y="386"/>
      <point x="419" y="554"/>
      <point x="419" y="722" type="curve"/>
      <point x="394" y="722"/>
      <point x="419" y="722"/>
      <point x="394" y="722" type="curve"/>
      <point x="394" y="554"/>
      <point x="394" y="386"/>
      <point x="394" y="219" type="curve"/>
      <point x="394" y="90"/>
      <point x="307" y="22"/>
      <point x="173" y="22" type="curve"/>
      <point x="115" y="22"/>
      <point x="76" y="39"/>
      <point x="27" y="60" type="curve"/>
      <point x="16" y="43"/>
      <point x="27" y="60"/>
    </contour>
  </outline>
</glyph>
<glyph name="K" format="1">
  <advance width="765.0"/>
  <unicode hex="004B"/>
  <outline>
    <contour>
      <point x="449.0" y="14.0" type="move" name="bottom"/>
    </contour>
    <contour>
      <point x="687.0" y="722.0" type="curve"/>
      <point x="505.0" y="608.0"/>
      <point x="322.0" y="494.0"/>
      <point x="140.0" y="380.0" type="curve"/>
      <point x="177.578947368" y="380.0"/>
      <point x="144.421052632" y="380.0"/>
      <point x="182" y="380" type="curve"/>
      <point x="365.038495582" y="493.404285306"/>
      <point x="546.969631698" y="608.597502776"/>
      <point x="731.0" y="722.0" type="curve"/>
      <point x="691.0" y="722.0"/>
      <point x="727.0" y="722.0"/>
    </contour>
    <contour>
      <point x="153.0" y="0.0" type="curve"/>
      <point x="153.0" y="0.0"/>
      <point x="153.0" y="722.0"/>
      <point x="153.0" y="722.0" type="curve"/>
      <point x="128.0" y="722.0"/>
      <point x="153.0" y="722.0"/>
      <point x="128.0" y="722.0" type="curve"/>
      <point x="128.0" y="481.0"/>
      <point x="128.0" y="241.0"/>
      <point x="128.0" y="0.0" type="curve"/>
      <point x="153.0" y="0.0"/>
      <point x="128.0" y="0.0"/>
    </contour>
    <contour>
      <point x="762" y="0" type="curve"/>
      <point x="568.235411854" y="124.848317104"/>
      <point x="375.824532332" y="254.759532954"/>
      <point x="182" y="380" type="curve"/>
      <point x="144.421052632" y="380.0"/>
      <point x="177.578947368" y="380.0"/>
      <point x="140.0" y="380.0" type="curve"/>
      <point x="332.0" y="253.0"/>
      <point x="526.0" y="127.0"/>
      <point x="718.0" y="0.0" type="curve"/>
      <point x="758.088888889" y="0.0"/>
      <point x="721.911111111" y="0.0"/>
    </contour>
  </outline>
</glyph>
<glyph name="L" format="1">
  <advance width="719.0"/>
  <unicode hex="004C"/>
  <outline>
    <contour>
      <point x="141.0" y="854.0" type="move" name="top"/>
    </contour>
    <contour>
      <point x="366.0" y="14.0" type="move" name="bottom"/>
    </contour>
    <contour>
      <point x="153.0" y="0.0" type="curve"/>
      <point x="153.0" y="241.0"/>
      <point x="153.0" y="481.0"/>
      <point x="153.0" y="722.0" type="curve"/>
      <point x="128.0" y="722.0"/>
      <point x="153.0" y="722.0"/>
      <point x="128.0" y="722.0" type="curve"/>
      <point x="128.0" y="481.0"/>
      <point x="128.0" y="241.0"/>
      <point x="128.0" y="0.0" type="curve"/>
      <point x="153.0" y="0.0"/>
      <point x="128.0" y="0.0"/>
    </contour>
    <contour>
      <point x="139" y="0" type="curve"/>
      <point x="329" y="0"/>
      <point x="519" y="0"/>
      <point x="709" y="0" type="curve"/>
      <point x="709" y="22"/>
      <point x="709" y="0"/>
      <point x="709" y="22" type="curve"/>
      <point x="519" y="22"/>
      <point x="329" y="22"/>
      <point x="139" y="22" type="curve"/>
      <point x="139" y="0"/>
      <point x="139" y="22"/>
    </contour>
  </outline>
</glyph>
<glyph name="M" format="1">
  <advance width="1134.0"/>
  <unicode hex="004D"/>
  <outline>
    <contour>
      <point x="1045.0" y="0.0" type="curve"/>
      <point x="1017.0" y="241.0"/>
      <point x="989.0" y="481.0"/>
      <point x="962.0" y="722.0" type="curve"/>
      <point x="940.0" y="722.0"/>
      <point x="962.0" y="722.0"/>
      <point x="940.0" y="722.0" type="curve"/>
      <point x="967.0" y="481.0"/>
      <point x="994.0" y="241.0"/>
      <point x="1021.0" y="0.0" type="curve"/>
      <point x="1045.0" y="0.0"/>
      <point x="1021.0" y="0.0"/>
    </contour>
    <contour>
      <point x="115.0" y="0.0" type="curve"/>
      <point x="141.0" y="241.0"/>
      <point x="166.0" y="481.0"/>
      <point x="192.0" y="722.0" type="curve"/>
      <point x="170.0" y="722.0"/>
      <point x="192.0" y="722.0"/>
      <point x="170.0" y="722.0" type="curve"/>
      <point x="144.0" y="481.0"/>
      <point x="117.0" y="241.0"/>
      <point x="91.0" y="0.0" type="curve"/>
      <point x="115.0" y="0.0"/>
      <point x="91.0" y="0.0"/>
    </contour>
    <contour>
      <point x="577.0" y="0.0" type="curve"/>
      <point x="452.0" y="241.0"/>
      <point x="326.0" y="481.0"/>
      <point x="197.0" y="722.0" type="curve"/>
      <point x="175.0" y="722.0"/>
      <point x="195.0" y="722.0"/>
      <point x="173.0" y="722.0" type="curve"/>
      <point x="299.0" y="481.0"/>
      <point x="425.0" y="241.0"/>
      <point x="551.0" y="0.0" type="curve"/>
      <point x="575.0" y="0.0"/>
      <point x="553.0" y="0.0"/>
    </contour>
    <contour>
      <point x="587.0" y="0.0" type="curve"/>
      <point x="711.0" y="241.0"/>
      <point x="835.0" y="481.0"/>
      <point x="959.0" y="722.0" type="curve"/>
      <point x="937.0" y="722.0"/>
      <point x="957.0" y="722.0"/>
      <point x="935.0" y="722.0" type="curve"/>
      <point x="808.0" y="481.0"/>
      <point x="685.0" y="241.0"/>
      <point x="560.0" y="0.0" type="curve"/>
      <point x="585.0" y="0.0"/>
      <point x="562.0" y="0.0"/>
    </contour>
  </outline>
</glyph>
<glyph name="O" format="1">
  <advance width="949.0"/>
  <unicode hex="004F"/>
  <outline>
    <contour>
      <point x="475.0" y="855.0" type="move" name="top"/>
    </contour>
    <contour>
      <point x="96.35" y="360.002222222" type="curve"/>
      <point x="96.35" y="575.547340941"/>
      <point x="250.0" y="705.0"/>
      <point x="473.0" y="705.0" type="curve"/>
      <point x="697.0" y="705.0"/>
      <point x="852.45" y="578.118303516"/>
      <point x="852.45" y="362.995555556" type="curve"/>
      <point x="852.45" y="147.456181739"/>
      <point x="699.0" y="18.0"/>
      <point x="476.0" y="18.0" type="curve"/>
      <point x="251.0" y="18.0"/>
      <point x="96.35" y="143.978507114"/>
      <point x="96.35" y="360.002222222" type="curve"/>
      <point x="72.15" y="360.002222222"/>
      <point x="96.35" y="360.002222222"/>
      <point x="72.15" y="360.002222222" type="curve"/>
      <point x="72.15" y="128.927712475"/>
      <point x="236.608988697" y="-5.0"/>
      <point x="474.525" y="-5.0" type="curve"/>
      <point x="713.207614155" y="-5.0"/>
      <point x="876.65" y="131.165325334"/>
      <point x="876.65" y="362.995555556" type="curve"/>
      <point x="876.65" y="593.091153168"/>
      <point x="712.232236894" y="727.0"/>
      <point x="474.15" y="727.0" type="curve"/>
      <point x="235.407153428" y="727.0"/>
      <point x="72.15" y="590.797706239"/>
      <point x="72.15" y="360.002222222" type="curve"/>
      <point x="96.35" y="360.002222222"/>
      <point x="72.15" y="360.002222222"/>
    </contour>
  </outline>
</glyph>
<glyph name="P" format="1">
  <advance width="702.0"/>
  <unicode hex="0050"/>
  <outline>
    <contour>
      <point x="140.0" y="326.0" type="curve"/>
      <point x="211.0" y="299.0"/>
      <point x="275.0" y="280.0"/>
      <point x="351.0" y="280.0" type="curve"/>
      <point x="514.0" y="283.0"/>
      <point x="643.0" y="347.0"/>
      <point x="643.0" y="494.0" type="curve"/>
      <point x="643.0" y="654.0"/>
      <point x="497.0" y="722.0"/>
      <point x="318.0" y="722.0" type="curve"/>
      <point x="261.0" y="722.0"/>
      <point x="203.0" y="722.0"/>
      <point x="146.0" y="722.0" type="curve"/>
      <point x="146.0" y="700.0"/>
      <point x="146.0" y="722.0"/>
      <point x="146.0" y="700.0" type="curve"/>
      <point x="202.0" y="700.0"/>
      <point x="259.0" y="700.0"/>
      <point x="315.0" y="700.0" type="curve"/>
      <point x="482.0" y="700.0"/>
      <point x="618.0" y="642.0"/>
      <point x="618.0" y="493.0" type="curve"/>
      <point x="618.0" y="360.0"/>
      <point x="500.0" y="302.0"/>
      <point x="354.0" y="302.0" type="curve"/>
      <point x="276.0" y="302.0"/>
      <point x="220.0" y="318.0"/>
      <point x="148.0" y="346.0" type="curve"/>
      <point x="140.0" y="326.0"/>
      <point x="148.0" y="346.0"/>
    </contour>
    <contour>
      <point x="153.0" y="0.0" type="curve"/>
      <point x="153.0" y="241.0"/>
      <point x="153.0" y="481.0"/>
      <point x="153.0" y="722.0" type="curve"/>
      <point x="128.0" y="722.0"/>
      <point x="153.0" y="722.0"/>
      <point x="128.0" y="722.0" type="curve"/>
      <point x="128.0" y="481.0"/>
      <point x="128.0" y="241.0"/>
      <point x="128.0" y="0.0" type="curve"/>
      <point x="153.0" y="0.0"/>
      <point x="128.0" y="0.0"/>
    </contour>
  </outline>
</glyph>
<glyph name="Q" format="1">
  <advance width="952.0"/>
  <unicode hex="0051"/>
  <outline>
    <contour>
      <point x="477.0" y="4.0" type="curve"/>
      <point x="624.0" y="-196.0"/>
      <point x="786.0" y="-240.0"/>
      <point x="1023.0" y="-240.0" type="curve"/>
      <point x="1023.0" y="-217.0"/>
      <point x="1023.0" y="-240.0"/>
      <point x="1023.0" y="-217.0" type="curve"/>
      <point x="797.0" y="-217.0"/>
      <point x="641.0" y="-177.0"/>
      <point x="498.0" y="15.0" type="curve"/>
      <point x="477.0" y="4.0"/>
      <point x="498.0" y="15.0"/>
    </contour>
    <contour>
      <point x="97.0" y="360.0" type="curve"/>
      <point x="97.0" y="576.0"/>
      <point x="252.0" y="703.0"/>
      <point x="476.0" y="703.0" type="curve"/>
      <point x="700.0" y="703.0"/>
      <point x="855.0" y="578.0"/>
      <point x="855.0" y="363.0" type="curve"/>
      <point x="855.0" y="147.0"/>
      <point x="702.0" y="19.0"/>
      <point x="479.0" y="19.0" type="curve"/>
      <point x="253.0" y="19.0"/>
      <point x="97.0" y="144.0"/>
      <point x="97.0" y="360.0" type="curve"/>
      <point x="72.0" y="360.0"/>
      <point x="97.0" y="360.0"/>
      <point x="72.0" y="360.0" type="curve"/>
      <point x="72.0" y="129.0"/>
      <point x="239.0" y="-5.0"/>
      <point x="478.0" y="-5.0" type="curve"/>
      <point x="716.0" y="-5.0"/>
      <point x="880.0" y="132.0"/>
      <point x="880.0" y="364.0" type="curve"/>
      <point x="880.0" y="594.0"/>
      <point x="715.0" y="727.0"/>
      <point x="477.0" y="727.0" type="curve"/>
      <point x="238.0" y="727.0"/>
      <point x="72.0" y="591.0"/>
      <point x="72.0" y="360.0" type="curve"/>
      <point x="97.0" y="360.0"/>
      <point x="72.0" y="360.0"/>
    </contour>
  </outline>
</glyph>
<glyph name="R" format="1">
  <advance width="784.0"/>
  <unicode hex="0052"/>
  <outline>
    <contour>
      <point x="352.0" y="855.0" type="move" name="top"/>
    </contour>
    <contour>
      <point x="418.0" y="14.0" type="move" name="bottom"/>
    </contour>
    <contour>
      <point x="403.0" y="354.0" type="curve"/>
      <point x="518.0" y="236.0"/>
      <point x="633.0" y="118.0"/>
      <point x="748.0" y="0.0" type="curve"/>
      <point x="778.0" y="0.0"/>
      <point x="750.0" y="0.0"/>
      <point x="780.0" y="0.0" type="curve"/>
      <point x="664.0" y="118.0"/>
      <point x="549.0" y="236.0"/>
      <point x="434.0" y="354.0" type="curve"/>
      <point x="405.0" y="354.0"/>
      <point x="432.0" y="354.0"/>
    </contour>
    <contour>
      <point x="153" y="0" type="curve"/>
      <point x="153" y="241"/>
      <point x="153" y="481"/>
      <point x="153" y="722" type="curve"/>
      <point x="128" y="722"/>
      <point x="153" y="722"/>
      <point x="128" y="722" type="curve"/>
      <point x="128" y="481"/>
      <point x="128" y="241"/>
      <point x="128" y="0" type="curve"/>
      <point x="153" y="0"/>
      <point x="128" y="0"/>
    </contour>
    <contour>
      <point x="143.0" y="340.0" type="curve"/>
      <point x="220.0" y="340.0"/>
      <point x="297.0" y="340.0"/>
      <point x="373.0" y="340.0" type="curve"/>
      <point x="540.0" y="340.0"/>
      <point x="664.0" y="389.0"/>
      <point x="664.0" y="537.0" type="curve"/>
      <point x="664.0" y="679.0"/>
      <point x="543.0" y="722.0"/>
      <point x="383.0" y="722.0" type="curve"/>
      <point x="303.0" y="722.0"/>
      <point x="223.0" y="722.0"/>
      <point x="143.0" y="722.0" type="curve"/>
      <point x="143.0" y="700.0"/>
      <point x="143.0" y="722.0"/>
      <point x="143.0" y="700.0" type="curve"/>
      <point x="222.0" y="700.0"/>
      <point x="300.0" y="700.0"/>
      <point x="379.0" y="700.0" type="curve"/>
      <point x="527.0" y="700.0"/>
      <point x="640.0" y="664.0"/>
      <point x="640.0" y="535.0" type="curve"/>
      <point x="640.0" y="403.0"/>
      <point x="525.0" y="362.0"/>
      <point x="376.0" y="362.0" type="curve"/>
      <point x="299.0" y="362.0"/>
      <point x="221.0" y="362.0"/>
      <point x="143.0" y="362.0" type="curve"/>
      <point x="143.0" y="340.0"/>
      <point x="143.0" y="362.0"/>
    </contour>
  </outline>
</glyph>
<glyph name="S" format="1">
  <advance width="676.0"/>
  <unicode hex="0053"/>
  <outline>
    <contour>
      <point x="335.0" y="855.0" type="move" name="top"/>
    </contour>
    <contour>
      <point x="296.0" y="9.0" type="move" name="bottom"/>
    </contour>
    <contour>
      <point x="49.0" y="58.0" type="curve"/>
      <point x="139.0" y="16.0"/>
      <point x="232.0" y="-5.0"/>
      <point x="330.0" y="-5.0" type="curve"/>
      <point x="491.0" y="-5.0"/>
      <point x="613.0" y="30.0"/>
      <point x="613.0" y="169.0" type="curve"/>
      <point x="613.0" y="304.0"/>
      <point x="483.0" y="334.0"/>
      <point x="349.0" y="382.0" type="curve"/>
      <point x="230.0" y="424.0"/>
      <point x="108.0" y="447.0"/>
      <point x="108.0" y="563.0" type="curve"/>
      <point x="108.0" y="666.0"/>
      <point x="212.0" y="706.0"/>
      <point x="332.0" y="706.0" type="curve"/>
      <point x="426.0" y="706.0"/>
      <point x="496.0" y="684.0"/>
      <point x="582.0" y="646.0" type="curve"/>
      <point x="593.0" y="663.0"/>
      <point x="582.0" y="646.0"/>
      <point x="593.0" y="663.0" type="curve"/>
      <point x="504.0" y="703.0"/>
      <point x="431.0" y="727.0"/>
      <point x="333.0" y="727.0" type="curve"/>
      <point x="198.0" y="727.0"/>
      <point x="84.0" y="679.0"/>
      <point x="84.0" y="562.0" type="curve"/>
      <point x="84.0" y="434.0"/>
      <point x="209.0" y="407.0"/>
      <point x="335.0" y="362.0" type="curve"/>
      <point x="462.0" y="318.0"/>
      <point x="589.0" y="290.0"/>
      <point x="589.0" y="169.0" type="curve"/>
      <point x="589.0" y="46.0"/>
      <point x="477.0" y="19.0"/>
      <point x="331.0" y="19.0" type="curve"/>
      <point x="237.0" y="19.0"/>
      <point x="148.0" y="40.0"/>
      <point x="62.0" y="78.0" type="curve"/>
      <point x="49.0" y="58.0"/>
      <point x="62.0" y="78.0"/>
    </contour>
  </outline>
</glyph>
<glyph name="T" format="1">
  <advance width="857.0"/>
  <unicode hex="0054"/>
  <outline>
    <contour>
      <point x="425.0" y="854.0" type="move" name="top"/>
    </contour>
    <contour>
      <point x="427.0" y="8.0" type="move" name="bottom"/>
    </contour>
    <contour>
      <point x="441" y="0" type="curve"/>
      <point x="441" y="237"/>
      <point x="441" y="473"/>
      <point x="441" y="710" type="curve"/>
      <point x="417" y="710"/>
      <point x="441" y="710"/>
      <point x="417" y="710" type="curve"/>
      <point x="417" y="473"/>
      <point x="417" y="237"/>
      <point x="417" y="0" type="curve"/>
      <point x="441" y="0"/>
      <point x="417" y="0"/>
    </contour>
    <contour>
      <point x="10.1" y="698.364222222" type="curve"/>
      <point x="289.09721" y="698.364222222"/>
      <point x="568.10279" y="698.364222222"/>
      <point x="847.1" y="698.364222222" type="curve"/>
      <point x="847.1" y="722.080222222"/>
      <point x="847.1" y="698.364222222"/>
      <point x="847.1" y="722.080222222" type="curve"/>
      <point x="568.10279" y="722.080222222"/>
      <point x="289.09721" y="722.080222222"/>
      <point x="10.1" y="722.080222222" type="curve"/>
      <point x="10.1" y="698.364222222"/>
      <point x="10.1" y="722.080222222"/>
    </contour>
  </outline>
</glyph>
<glyph name="U" format="1">
  <advance width="938.0"/>
  <unicode hex="0055"/>
  <outline>
    <contour>
      <point x="467.0" y="855.0" type="move" name="top"/>
    </contour>
    <contour>
      <point x="475.0" y="4.0" type="move" name="bottom"/>
    </contour>
    <contour>
      <point x="118.0" y="721.0" type="curve"/>
      <point x="118.0" y="540.0"/>
      <point x="118.0" y="452.0"/>
      <point x="118.0" y="271.0" type="curve"/>
      <point x="118.0" y="68.0"/>
      <point x="252.0" y="-5.0"/>
      <point x="472.0" y="-5.0" type="curve"/>
      <point x="688.0" y="-5.0"/>
      <point x="820.0" y="65.0"/>
      <point x="820.0" y="263.0" type="curve"/>
      <point x="820.0" y="447.0"/>
      <point x="820.0" y="537.0"/>
      <point x="820.0" y="721.0" type="curve"/>
      <point x="811.0" y="721.0"/>
      <point x="806.0" y="721.0"/>
      <point x="797.0" y="721.0" type="curve"/>
      <point x="797.0" y="535.0"/>
      <point x="797.0" y="445.0"/>
      <point x="797.0" y="259.0" type="curve"/>
      <point x="797.0" y="84.0"/>
      <point x="673.0" y="19.0"/>
      <point x="474.0" y="19.0" type="curve"/>
      <point x="267.0" y="19.0"/>
      <point x="141.0" y="85.0"/>
      <point x="141.0" y="275.0" type="curve"/>
      <point x="141.0" y="454.0"/>
      <point x="141.0" y="542.0"/>
      <point x="141.0" y="721.0" type="curve"/>
      <point x="132.0" y="721.0"/>
      <point x="127.0" y="721.0"/>
    </contour>
  </outline>
</glyph>
<glyph name="V" format="1">
  <advance width="824.0"/>
  <unicode hex="0056"/>
  <outline>
    <contour>
      <point x="779.0" y="722.0" type="curve"/>
      <point x="654.0" y="481.0"/>
      <point x="529.0" y="241.0"/>
      <point x="404.0" y="0.0" type="curve"/>
      <point x="431.0" y="0.0"/>
      <point x="404.0" y="0.0"/>
      <point x="431.0" y="0.0" type="curve"/>
      <point x="556.0" y="241.0"/>
      <point x="681.0" y="481.0"/>
      <point x="806.0" y="722.0" type="curve"/>
      <point x="779.0" y="722.0"/>
      <point x="806.0" y="722.0"/>
    </contour>
    <contour>
      <point x="15.0" y="722.0" type="curve"/>
      <point x="142.0" y="481.0"/>
      <point x="269.0" y="241.0"/>
      <point x="396.0" y="0.0" type="curve"/>
      <point x="423.0" y="0.0"/>
      <point x="397.0" y="0.0"/>
      <point x="424.0" y="0.0" type="curve"/>
      <point x="297.0" y="241.0"/>
      <point x="170.0" y="481.0"/>
      <point x="44.0" y="722.0" type="curve"/>
      <point x="16.0" y="722.0"/>
      <point x="43.0" y="722.0"/>
    </contour>
  </outline>
</glyph>
<glyph name="W" format="1">
  <advance width="1116.0"/>
  <unicode hex="0057"/>
  <outline>
    <contour>
      <point x="305.0" y="0.0" type="curve"/>
      <point x="395.0" y="241.0"/>
      <point x="486.0" y="481.0"/>
      <point x="576.0" y="722.0" type="curve"/>
      <point x="553.0" y="722.0"/>
      <point x="574" y="722"/>
      <point x="551" y="722" type="curve"/>
      <point x="461" y="481"/>
      <point x="370" y="241"/>
      <point x="280" y="0" type="curve"/>
      <point x="297" y="0"/>
      <point x="288.0" y="0.0"/>
    </contour>
    <contour>
      <point x="562.0" y="722.0" type="curve"/>
      <point x="643.0" y="481.0"/>
      <point x="725.0" y="241.0"/>
      <point x="806.0" y="0.0" type="curve"/>
      <point x="824.0" y="0.0"/>
      <point x="812" y="0"/>
      <point x="830" y="0" type="curve"/>
      <point x="750" y="241"/>
      <point x="668" y="481"/>
      <point x="586" y="722" type="curve"/>
      <point x="563" y="722"/>
      <point x="585.0" y="722.0"/>
    </contour>
    <contour>
      <point x="33" y="722" type="curve"/>
      <point x="114" y="481"/>
      <point x="196" y="241"/>
      <point x="278" y="0" type="curve"/>
      <point x="295" y="0"/>
      <point x="284" y="0"/>
      <point x="301" y="0" type="curve"/>
      <point x="221" y="240"/>
      <point x="138" y="482"/>
      <point x="58" y="722" type="curve"/>
      <point x="33" y="722"/>
      <point x="58" y="722"/>
    </contour>
    <contour>
      <point x="1063" y="722" type="curve"/>
      <point x="978" y="481"/>
      <point x="893" y="241"/>
      <point x="810" y="0" type="curve"/>
      <point x="828" y="0"/>
      <point x="815" y="0"/>
      <point x="833" y="0" type="curve"/>
      <point x="918" y="241"/>
      <point x="1003" y="481"/>
      <point x="1088" y="722" type="curve"/>
      <point x="1063" y="722"/>
      <point x="1088" y="722"/>
    </contour>
  </outline>
</glyph>
<glyph name="X" format="1">
  <advance width="755.0"/>
  <unicode hex="0058"/>
  <outline>
    <contour>
      <point x="679.0" y="722.0" type="curve"/>
      <point x="455.0" y="481.0"/>
      <point x="230.0" y="241.0"/>
      <point x="6.0" y="0.0" type="curve"/>
      <point x="38.0" y="0.0"/>
      <point x="8" y="0"/>
      <point x="40" y="0" type="curve"/>
      <point x="263" y="241"/>
      <point x="486" y="481"/>
      <point x="710" y="722" type="curve"/>
      <point x="681" y="722"/>
      <point x="708.0" y="722.0"/>
    </contour>
    <contour>
      <point x="50.0" y="722.0" type="curve"/>
      <point x="272.0" y="481.0"/>
      <point x="493.0" y="241.0"/>
      <point x="715.0" y="0.0" type="curve"/>
      <point x="745.0" y="0.0"/>
      <point x="716" y="0"/>
      <point x="746" y="0" type="curve"/>
      <point x="524" y="241"/>
      <point x="302" y="481"/>
      <point x="80" y="722" type="curve"/>
      <point x="51" y="722"/>
      <point x="79.0" y="722.0"/>
    </contour>
  </outline>
</glyph>
<glyph name="Y" format="1">
  <advance width="716.0"/>
  <unicode hex="0059"/>
  <outline>
    <contour>
      <point x="354.0" y="855.0" type="move" name="top"/>
    </contour>
    <contour>
      <point x="26.0" y="722.0" type="curve"/>
      <point x="131.0" y="594.0"/>
      <point x="238" y="465"/>
      <point x="344" y="337" type="curve"/>
      <point x="370" y="337"/>
      <point x="340" y="341"/>
      <point x="366" y="341" type="curve"/>
      <point x="260" y="469"/>
      <point x="160" y="594"/>
      <point x="54" y="722" type="curve"/>
      <point x="28" y="722"/>
      <point x="52.0" y="722.0"/>
    </contour>
    <contour>
      <point x="674" y="722" type="curve"/>
      <point x="562" y="594"/>
      <point x="455" y="469"/>
      <point x="344" y="341" type="curve"/>
      <point x="370" y="341"/>
      <point x="342" y="337"/>
      <point x="368" y="337" type="curve"/>
      <point x="480" y="465"/>
      <point x="592.0" y="594.0"/>
      <point x="704.0" y="722.0" type="curve"/>
      <point x="678.0" y="722.0"/>
      <point x="700" y="722"/>
    </contour>
    <contour>
      <point x="368" y="0" type="curve"/>
      <point x="368" y="115"/>
      <point x="368" y="231"/>
      <point x="368" y="346" type="curve"/>
      <point x="342" y="346"/>
      <point x="370" y="346"/>
      <point x="344" y="346" type="curve"/>
      <point x="344" y="231"/>
      <point x="344" y="115"/>
      <point x="344" y="0" type="curve"/>
      <point x="370" y="0"/>
      <point x="342" y="0"/>
    </contour>
  </outline>
</glyph>
<glyph name="Z" format="1">
  <advance width="807.0"/>
  <unicode hex="005A"/>
  <outline>
    <contour>
      <point x="412.0" y="855.0" type="move" name="top"/>
    </contour>
    <contour>
      <point x="72.0" y="700.0" type="curve"/>
      <point x="290.0" y="700.0"/>
      <point x="508.0" y="700.0"/>
      <point x="727.0" y="700.0" type="curve"/>
      <point x="725.0" y="703.0"/>
      <point x="722.0" y="704.0"/>
      <point x="720.0" y="707.0" type="curve"/>
      <point x="718.0" y="709.0"/>
      <point x="716.0" y="710.0"/>
      <point x="714.0" y="712.0" type="curve"/>
      <point x="711.0" y="709.0"/>
      <point x="707.0" y="705.0"/>
      <point x="704.0" y="701.0" type="curve"/>
      <point x="477.0" y="474.0"/>
      <point x="704.0" y="701.0"/>
      <point x="20.0" y="22.0" type="curve"/>
      <point x="20.0" y="10.0"/>
      <point x="20.0" y="22.0"/>
      <point x="20.0" y="10.0" type="curve"/>
      <point x="20.0" y="0.0"/>
      <point x="20.0" y="10.0"/>
      <point x="20.0" y="0.0" type="curve"/>
      <point x="25.0" y="0.0"/>
      <point x="20.0" y="0.0"/>
      <point x="25.0" y="0.0" type="curve"/>
      <point x="806.0" y="0.0"/>
      <point x="526.0" y="0.0"/>
      <point x="786.0" y="0.0" type="curve"/>
      <point x="786.0" y="22.0"/>
      <point x="786.0" y="0.0"/>
      <point x="786.0" y="22.0" type="curve"/>
      <point x="526.0" y="22.0"/>
      <point x="285.0" y="22.0"/>
      <point x="25.0" y="22.0" type="curve"/>
      <point x="27.0" y="20.0"/>
      <point x="29.0" y="18.0"/>
      <point x="31.0" y="16.0" type="curve"/>
      <point x="33.0" y="14.0"/>
      <point x="37.0" y="12.0"/>
      <point x="39.0" y="10.0" type="curve"/>
      <point x="42.0" y="13.0"/>
      <point x="46.0" y="17.0"/>
      <point x="50.0" y="21.0" type="curve"/>
      <point x="277.0" y="248.0"/>
      <point x="50.0" y="21.0"/>
      <point x="734.0" y="700.0" type="curve"/>
      <point x="734.0" y="712.0"/>
      <point x="734.0" y="700.0"/>
      <point x="734.0" y="712.0" type="curve"/>
      <point x="734.0" y="722.0"/>
      <point x="734.0" y="712.0"/>
      <point x="734.0" y="722.0" type="curve"/>
      <point x="727.0" y="722.0"/>
      <point x="734.0" y="722.0"/>
      <point x="727.0" y="722.0" type="curve"/>
      <point x="508.0" y="722.0"/>
      <point x="290.0" y="722.0"/>
      <point x="72.0" y="722.0" type="curve"/>
      <point x="72.0" y="700.0"/>
      <point x="72.0" y="722.0"/>
    </contour>
  </outline>
</glyph>
<glyph name="bracketleft" format="1">
  <advance width="333.0"/>
  <unicode hex="005B"/>
  <outline>
    <contour>
      <point x="306.0" y="771.0" type="curve"/>
      <point x="237.0" y="771.0"/>
      <point x="168.0" y="771.0"/>
      <point x="99.0" y="771.0" type="curve"/>
      <point x="98.0" y="771.0"/>
      <point x="99.0" y="771.0"/>
      <point x="96.0" y="771.0" type="curve"/>
      <point x="96.0" y="769.0"/>
      <point x="96.0" y="767.0"/>
      <point x="96.0" y="765.0" type="curve"/>
      <point x="96.0" y="470.0"/>
      <point x="96.0" y="175.0"/>
      <point x="96.0" y="-120.0" type="curve"/>
      <point x="96.0" y="-121.0"/>
      <point x="96.0" y="-123.0"/>
      <point x="96.0" y="-124.0" type="curve"/>
      <point x="97.0" y="-124.0"/>
      <point x="97.0" y="-124.0"/>
      <point x="98.0" y="-124.0" type="curve"/>
      <point x="167.0" y="-124.0"/>
      <point x="236.0" y="-124.0"/>
      <point x="306.0" y="-124.0" type="curve"/>
      <point x="306.0" y="-100.0"/>
      <point x="306.0" y="-124.0"/>
      <point x="306.0" y="-100.0" type="curve"/>
      <point x="236.0" y="-100.0"/>
      <point x="167.0" y="-100.0"/>
      <point x="98.0" y="-100.0" type="curve"/>
      <point x="121.0" y="-100.0"/>
      <point x="98.0" y="-100.0"/>
      <point x="121.0" y="-100.0" type="curve"/>
      <point x="121.0" y="-120.0"/>
      <point x="121.0" y="-100.0"/>
      <point x="121.0" y="-120.0" type="curve"/>
      <point x="121.0" y="175.0"/>
      <point x="121.0" y="470.0"/>
      <point x="121.0" y="765.0" type="curve"/>
      <point x="121.0" y="747.0"/>
      <point x="121.0" y="765.0"/>
      <point x="121.0" y="747.0" type="curve"/>
      <point x="99.0" y="747.0"/>
      <point x="121.0" y="747.0"/>
      <point x="99.0" y="747.0" type="curve"/>
      <point x="168.0" y="747.0"/>
      <point x="237.0" y="747.0"/>
      <point x="306.0" y="747.0" type="curve"/>
      <point x="306.0" y="771.0"/>
      <point x="306.0" y="747.0"/>
    </contour>
  </outline>
</glyph>
<glyph name="backslash" format="1">
  <advance width="620.0"/>
  <unicode hex="005C"/>
  <outline>
    <contour>
      <point x="587.0" y="-68.0" type="curve"/>
      <point x="411.0" y="236.0"/>
      <point x="235.0" y="540.0"/>
      <point x="58.0" y="844.0" type="curve"/>
      <point x="33.0" y="844.0"/>
      <point x="58.0" y="844.0"/>
      <point x="33.0" y="844.0" type="curve"/>
      <point x="209.0" y="540.0"/>
      <point x="386.0" y="236.0"/>
      <point x="562.0" y="-68.0" type="curve"/>
      <point x="587.0" y="-68.0"/>
      <point x="562.0" y="-68.0"/>
    </contour>
  </outline>
</glyph>
<glyph name="bracketright" format="1">
  <advance width="332.0"/>
  <unicode hex="005D"/>
  <outline>
    <contour>
      <point x="27.0" y="747.0" type="curve"/>
      <point x="96.0" y="747.0"/>
      <point x="164.0" y="747.0"/>
      <point x="233.0" y="747.0" type="curve"/>
      <point x="230.0" y="750.0"/>
      <point x="226.0" y="753.0"/>
      <point x="223.0" y="756.0" type="curve"/>
      <point x="219.0" y="759.0"/>
      <point x="215.0" y="762.0"/>
      <point x="212.0" y="765.0" type="curve"/>
      <point x="212.0" y="470.0"/>
      <point x="212.0" y="175.0"/>
      <point x="212.0" y="-120.0" type="curve"/>
      <point x="216.0" y="-117.0"/>
      <point x="220.0" y="-113.0"/>
      <point x="224.0" y="-109.0" type="curve"/>
      <point x="228.0" y="-107.0"/>
      <point x="231.0" y="-103.0"/>
      <point x="235.0" y="-100.0" type="curve"/>
      <point x="165.0" y="-100.0"/>
      <point x="96.0" y="-100.0"/>
      <point x="27.0" y="-100.0" type="curve"/>
      <point x="27.0" y="-124.0"/>
      <point x="27.0" y="-100.0"/>
      <point x="27.0" y="-124.0" type="curve"/>
      <point x="96.0" y="-124.0"/>
      <point x="165.0" y="-124.0"/>
      <point x="235.0" y="-124.0" type="curve"/>
      <point x="236.0" y="-124.0"/>
      <point x="235.0" y="-124.0"/>
      <point x="236.0" y="-124.0" type="curve"/>
      <point x="236.0" y="-120.0"/>
      <point x="236.0" y="-124.0"/>
      <point x="236.0" y="-120.0" type="curve"/>
      <point x="236.0" y="175.0"/>
      <point x="236.0" y="470.0"/>
      <point x="236.0" y="765.0" type="curve"/>
      <point x="236.0" y="771.0"/>
      <point x="236.0" y="765.0"/>
      <point x="236.0" y="771.0" type="curve"/>
      <point x="233.0" y="771.0"/>
      <point x="236.0" y="771.0"/>
      <point x="233.0" y="771.0" type="curve"/>
      <point x="164.0" y="771.0"/>
      <point x="96.0" y="771.0"/>
      <point x="27.0" y="771.0" type="curve"/>
      <point x="27.0" y="747.0"/>
      <point x="27.0" y="771.0"/>
    </contour>
  </outline>
</glyph>
<glyph name="underscore" format="1">
  <advance width="920.0"/>
  <unicode hex="005F"/>
  <outline>
    <contour>
      <point x="-0.25" y="-209.533333333" type="curve"/>
      <point x="306.646931" y="-209.533333333"/>
      <point x="613.553069" y="-209.533333333"/>
      <point x="920.45" y="-209.533333333" type="curve"/>
      <point x="920.45" y="-188.753333333"/>
      <point x="920.45" y="-209.533333333"/>
      <point x="920.45" y="-188.753333333" type="curve"/>
      <point x="613.553069" y="-188.753333333"/>
      <point x="306.646931" y="-188.753333333"/>
      <point x="-0.25" y="-188.753333333" type="curve"/>
      <point x="-0.25" y="-209.533333333"/>
      <point x="-0.25" y="-188.753333333"/>
    </contour>
  </outline>
</glyph>
<glyph name="grave" format="1">
  <advance width="400.0"/>
  <unicode hex="0060"/>
  <outline>
    <contour>
      <point x="305.0" y="600.0" type="move" name="_top"/>
    </contour>
    <contour>
      <point x="394.0" y="591.0" type="line"/>
      <point x="171.0" y="757.0" type="line"/>
      <point x="134.85" y="757.0" type="line"/>
      <point x="357.6" y="591.0" type="line"/>
    </contour>
  </outline>
</glyph>
<glyph name="a" format="1">
  <advance width="663.0"/>
  <unicode hex="0061"/>
  <outline>
    <contour>
      <point x="346.0" y="669.0" type="move" name="top"/>
    </contour>
    <contour>
      <point x="553.0" y="5.0" type="move" name="bottom"/>
    </contour>
    <contour>
      <point x="560" y="0" type="curve"/>
      <point x="560" y="130"/>
      <point x="560" y="260"/>
      <point x="560" y="390" type="curve"/>
      <point x="560" y="513"/>
      <point x="470" y="538"/>
      <point x="338" y="538" type="curve"/>
      <point x="229" y="538"/>
      <point x="148" y="508"/>
      <point x="79" y="465" type="curve"/>
      <point x="90" y="446"/>
      <point x="79" y="465"/>
      <point x="90" y="446" type="curve"/>
      <point x="154" y="485"/>
      <point x="231" y="516"/>
      <point x="335" y="516" type="curve"/>
      <point x="455" y="516"/>
      <point x="535" y="496"/>
      <point x="535" y="383" type="curve"/>
      <point x="535" y="255"/>
      <point x="535" y="128"/>
      <point x="535" y="0" type="curve"/>
      <point x="560" y="0"/>
      <point x="535" y="0"/>
    </contour>
    <contour>
      <point x="546" y="321" type="curve"/>
      <point x="438" y="310"/>
      <point x="373" y="304"/>
      <point x="265" y="293" type="curve"/>
      <point x="149" y="281"/>
      <point x="62" y="257"/>
      <point x="62" y="152" type="curve"/>
      <point x="62" y="43"/>
      <point x="141" y="-5"/>
      <point x="259" y="-5" type="curve"/>
      <point x="393" y="-5"/>
      <point x="459" y="55"/>
      <point x="553" y="153" type="curve"/>
      <point x="539" y="168"/>
      <point x="553" y="153"/>
      <point x="539" y="168" type="curve"/>
      <point x="452" y="80"/>
      <point x="387" y="18"/>
      <point x="262" y="18" type="curve"/>
      <point x="155" y="18"/>
      <point x="86" y="56"/>
      <point x="86" y="154" type="curve"/>
      <point x="86" y="245"/>
      <point x="164" y="263"/>
      <point x="264" y="273" type="curve"/>
      <point x="373" y="284"/>
      <point x="438" y="290"/>
      <point x="547" y="301" type="curve"/>
      <point x="546" y="320"/>
      <point x="547" y="302"/>
    </contour>
  </outline>
</glyph>
<glyph name="b" format="1">
  <advance width="767.0"/>
  <unicode hex="0062"/>
  <outline>
    <contour>
      <point x="127.0" y="408.0" type="curve"/>
      <point x="187.322425243" y="463.210355307"/>
      <point x="291.0" y="516.0"/>
      <point x="408.0" y="516.0" type="curve"/>
      <point x="565.0" y="516.0"/>
      <point x="676.0" y="420.10483871"/>
      <point x="676.0" y="263.0" type="curve"/>
      <point x="676.0" y="112.0"/>
      <point x="564.000533979" y="14.9999931977"/>
      <point x="407.0" y="17.0" type="curve"/>
      <point x="299.0" y="17.0"/>
      <point x="216.882494964" y="41.5161510287"/>
      <point x="130.0" y="110.0" type="curve"/>
      <point x="114.0" y="97.0"/>
      <point x="130.0" y="110.0"/>
      <point x="114.0" y="97.0" type="curve"/>
      <point x="204.903166134" y="21.4175922033"/>
      <point x="292.0" y="-5.0"/>
      <point x="408.0" y="-5.0" type="curve"/>
      <point x="578.0" y="-5.0"/>
      <point x="700.0" y="96.8939393939"/>
      <point x="700.0" y="264.0" type="curve"/>
      <point x="700.0" y="432.066914498"/>
      <point x="579.0" y="538.0"/>
      <point x="411.0" y="538.0" type="curve"/>
      <point x="288.0" y="538.0"/>
      <point x="179.341856565" y="483.235360012"/>
      <point x="115.0" y="424.0" type="curve"/>
      <point x="127.0" y="408.0"/>
      <point x="115.0" y="424.0"/>
    </contour>
    <contour>
      <point x="133.0" y="0.0" type="curve"/>
      <point x="133.0" y="267.0"/>
      <point x="133.0" y="533.0"/>
      <point x="133.0" y="800.0" type="curve"/>
      <point x="109.0" y="800.0"/>
      <point x="133.0" y="800.0"/>
      <point x="109.0" y="800.0" type="curve"/>
      <point x="109.0" y="533.0"/>
      <point x="109.0" y="267.0"/>
      <point x="109.0" y="0.0" type="curve"/>
      <point x="133.0" y="0.0"/>
      <point x="109.0" y="0.0"/>
    </contour>
  </outline>
</glyph>
<glyph name="c" format="1">
  <advance width="657.0"/>
  <unicode hex="0063"/>
  <outline>
    <contour>
      <point x="374.0" y="10.0" type="move" name="bottom"/>
    </contour>
    <contour>
      <point x="380.0" y="669.0" type="move" name="top"/>
    </contour>
    <contour>
      <point x="597.0" y="473.0" type="curve"/>
      <point x="534.0" y="511.0"/>
      <point x="458.0" y="538.0"/>
      <point x="381.0" y="538.0" type="curve"/>
      <point x="193.0" y="538.0"/>
      <point x="67.0" y="450.0"/>
      <point x="67.0" y="267.0" type="curve"/>
      <point x="67.0" y="84.0"/>
      <point x="190.0" y="-5.0"/>
      <point x="379.0" y="-5.0" type="curve"/>
      <point x="464.0" y="-5.0"/>
      <point x="549.0" y="25.0"/>
      <point x="612.0" y="82.0" type="curve"/>
      <point x="595.0" y="98.0"/>
      <point x="612.0" y="82.0"/>
      <point x="595.0" y="98.0" type="curve"/>
      <point x="535.0" y="43.0"/>
      <point x="458.0" y="17.0"/>
      <point x="379.0" y="17.0" type="curve"/>
      <point x="208.0" y="17.0"/>
      <point x="91.0" y="97.0"/>
      <point x="91.0" y="267.0" type="curve"/>
      <point x="91.0" y="437.0"/>
      <point x="208.0" y="516.0"/>
      <point x="379.0" y="516.0" type="curve"/>
      <point x="451.0" y="516.0"/>
      <point x="523" y="492"/>
      <point x="584" y="456" type="curve"/>
      <point x="597" y="473"/>
      <point x="584" y="456"/>
    </contour>
  </outline>
</glyph>
<glyph name="d" format="1">
  <advance width="775.0"/>
  <unicode hex="0064"/>
  <outline>
    <contour>
      <point x="660.15" y="448.055877193" type="curve"/>
      <point x="581.748117263" y="511.495193631"/>
      <point x="497.0" y="538.0"/>
      <point x="392.0" y="538.0" type="curve"/>
      <point x="206.0" y="538.0"/>
      <point x="66.35" y="441.357185071"/>
      <point x="66.35" y="263.967081871" type="curve"/>
      <point x="66.35" y="87.8898784058"/>
      <point x="209.0" y="-5.0"/>
      <point x="396.0" y="-5.0" type="curve"/>
      <point x="507.0" y="-5.0"/>
      <point x="586.22314424" y="31.909608585"/>
      <point x="660.15" y="118.881251462" type="curve"/>
      <point x="645.85" y="133.973251462"/>
      <point x="660.15" y="118.881251462"/>
      <point x="645.85" y="133.973251462" type="curve"/>
      <point x="573.230090321" y="53.027162708"/>
      <point x="500.0" y="17.0"/>
      <point x="395.0" y="17.0" type="curve"/>
      <point x="222.0" y="17.0"/>
      <point x="90.55" y="101.9756414"/>
      <point x="90.55" y="265.045081871" type="curve"/>
      <point x="90.55" y="428.607998348"/>
      <point x="221.0" y="516.0"/>
      <point x="393.0" y="516.0" type="curve"/>
      <point x="492.0" y="516.0"/>
      <point x="576.189601842" y="490.523939612"/>
      <point x="645.85" y="431.885877193" type="curve"/>
      <point x="660.15" y="448.055877193"/>
      <point x="645.85" y="431.885877193"/>
    </contour>
    <contour>
      <point x="665.525" y="0.0" type="curve"/>
      <point x="665.525" y="266.664"/>
      <point x="665.525" y="533.336"/>
      <point x="665.525" y="800.0" type="curve"/>
      <point x="640.225" y="800.0"/>
      <point x="665.525" y="800.0"/>
      <point x="640.225" y="800.0" type="curve"/>
      <point x="640.225" y="533.336"/>
      <point x="640.225" y="266.664"/>
      <point x="640.225" y="1.51814449683e-015" type="curve"/>
      <point x="665.525" y="0.0"/>
      <point x="640.225" y="1.51814449683e-015"/>
    </contour>
  </outline>
</glyph>
<glyph name="e" format="1">
  <advance width="677.0"/>
  <unicode hex="0065"/>
  <outline>
    <contour>
      <point x="346.0" y="669.0" type="move" name="top"/>
    </contour>
    <contour>
      <point x="400.0" y="9.0" type="move" name="bottom"/>
    </contour>
    <contour>
      <point x="81.0" y="273.0" type="curve"/>
      <point x="257.0" y="273.0"/>
      <point x="433.0" y="273.0"/>
      <point x="609.0" y="273.0" type="curve"/>
      <point x="609.0" y="273.0"/>
      <point x="609.0" y="273.0"/>
      <point x="609.0" y="273.0" type="curve"/>
      <point x="609.0" y="276.0"/>
      <point x="609.0" y="273.0"/>
      <point x="609.0" y="276.0" type="curve"/>
      <point x="609.0" y="285.0"/>
      <point x="609.0" y="294.0"/>
      <point x="609.0" y="303.0" type="curve"/>
      <point x="609.0" y="461.369565217"/>
      <point x="506.0" y="538.0"/>
      <point x="346.0" y="538.0" type="curve"/>
      <point x="175.0" y="538.0"/>
      <point x="68.0" y="451.313492063"/>
      <point x="68.0" y="281.0" type="curve"/>
      <point x="68.0" y="91.6903914591"/>
      <point x="189.0" y="-5.0"/>
      <point x="379.0" y="-5.0" type="curve"/>
      <point x="471.0" y="-5.0"/>
      <point x="531.141121561" y="16.5932811814"/>
      <point x="607.0" y="74.0" type="curve"/>
      <point x="592.0" y="90.0"/>
      <point x="607.0" y="74.0"/>
      <point x="592.0" y="90.0" type="curve"/>
      <point x="521.165992081" y="37.6444289294"/>
      <point x="465.0" y="17.0"/>
      <point x="379.0" y="17.0" type="curve"/>
      <point x="204.0" y="17.0"/>
      <point x="92.0" y="106.698841699"/>
      <point x="92.0" y="281.0" type="curve"/>
      <point x="92.0" y="436.304347826"/>
      <point x="189.0" y="516.0"/>
      <point x="344.0" y="516.0" type="curve"/>
      <point x="490.0" y="516.0"/>
      <point x="586.0" y="448.398058252"/>
      <point x="586.0" y="305.0" type="curve"/>
      <point x="586.0" y="295.0"/>
      <point x="586.0" y="286.0"/>
      <point x="586.0" y="276.0" type="curve"/>
      <point x="590.0" y="279.0"/>
      <point x="594.0" y="282.0"/>
      <point x="598.0" y="285.0" type="curve"/>
      <point x="602.0" y="288.0"/>
      <point x="605.0" y="292.0"/>
      <point x="609.0" y="295.0" type="curve"/>
      <point x="433.0" y="295.0"/>
      <point x="257.0" y="295.0"/>
      <point x="81.0" y="295.0" type="curve"/>
      <point x="81.0" y="273.0"/>
      <point x="81.0" y="295.0"/>
    </contour>
  </outline>
</glyph>
<glyph name="f" format="1">
  <advance width="593.0"/>
  <unicode hex="0066"/>
  <outline>
    <contour>
      <point x="22.0" y="487.0" type="curve"/>
      <point x="22.0" y="487.0"/>
      <point x="571" y="487"/>
      <point x="571" y="487" type="curve"/>
      <point x="571" y="509"/>
      <point x="571" y="487"/>
      <point x="571" y="509" type="curve"/>
      <point x="571" y="509"/>
      <point x="22.0" y="509.0"/>
      <point x="22.0" y="509.0" type="curve"/>
      <point x="22.0" y="487.0"/>
      <point x="22.0" y="509.0"/>
    </contour>
    <contour>
      <point x="284" y="0" type="curve"/>
      <point x="284" y="0"/>
      <point x="284" y="640"/>
      <point x="284" y="640" type="curve"/>
      <point x="284" y="735"/>
      <point x="356" y="783"/>
      <point x="457" y="783" type="curve"/>
      <point x="503" y="783"/>
      <point x="546" y="770"/>
      <point x="591" y="753" type="curve"/>
      <point x="600" y="772"/>
      <point x="591" y="753"/>
      <point x="600" y="772" type="curve"/>
      <point x="555" y="790"/>
      <point x="505" y="805"/>
      <point x="457" y="805" type="curve"/>
      <point x="343" y="805"/>
      <point x="260" y="750"/>
      <point x="260" y="640" type="curve"/>
      <point x="260" y="640"/>
      <point x="260" y="0"/>
      <point x="260" y="0" type="curve"/>
      <point x="284" y="0"/>
      <point x="260" y="0"/>
    </contour>
  </outline>
</glyph>
<glyph name="g" format="1">
  <advance width="686.0"/>
  <unicode hex="0067"/>
  <outline>
    <contour>
      <point x="326.0" y="668.0" type="move" name="top"/>
    </contour>
    <contour>
      <point x="514.0" y="460.0" type="curve"/>
      <point x="575.0" y="483.0"/>
      <point x="635.0" y="507.0"/>
      <point x="695.0" y="530.0" type="curve"/>
      <point x="683.0" y="550.0"/>
      <point x="695.0" y="530.0"/>
      <point x="683.0" y="550.0" type="curve"/>
      <point x="622.0" y="526.0"/>
      <point x="562.0" y="502.0"/>
      <point x="501.0" y="477.0" type="curve"/>
      <point x="514.0" y="460.0"/>
      <point x="501.0" y="477.0"/>
    </contour>
    <contour>
      <point x="99.0" y="358.0" type="curve"/>
      <point x="99.0" y="466.0"/>
      <point x="201.0" y="517.0"/>
      <point x="324.0" y="517.0" type="curve"/>
      <point x="445.0" y="517.0"/>
      <point x="543.0" y="469.0"/>
      <point x="543.0" y="361.0" type="curve"/>
      <point x="543.0" y="257.0"/>
      <point x="443.0" y="210.0"/>
      <point x="321.0" y="210.0" type="curve"/>
      <point x="202.0" y="210.0"/>
      <point x="99.0" y="252.0"/>
      <point x="99.0" y="358.0" type="curve"/>
      <point x="74.0" y="357.0"/>
      <point x="99.0" y="358.0"/>
      <point x="74.0" y="357.0" type="curve"/>
      <point x="74.0" y="238.0"/>
      <point x="186.0" y="189.0"/>
      <point x="319.0" y="189.0" type="curve"/>
      <point x="455.0" y="189.0"/>
      <point x="567.0" y="240.0"/>
      <point x="567.0" y="362.0" type="curve"/>
      <point x="567.0" y="483.0"/>
      <point x="458.0" y="538.0"/>
      <point x="324.0" y="538.0" type="curve"/>
      <point x="186.0" y="538.0"/>
      <point x="74.0" y="481.0"/>
      <point x="74.0" y="357.0" type="curve"/>
      <point x="99.0" y="358.0"/>
      <point x="74.0" y="357.0"/>
    </contour>
    <contour>
      <point x="182.0" y="227.0" type="curve"/>
      <point x="124.0" y="204.0"/>
      <point x="80.0" y="170.0"/>
      <point x="80.0" y="109.0" type="curve"/>
      <point x="80.0" y="4.0"/>
      <point x="195.0" y="-5.0"/>
      <point x="315.0" y="-13.0" type="curve"/>
      <point x="466.0" y="-23.0"/>
      <point x="619.0" y="-16.0"/>
      <point x="619.0" y="-144.0" type="curve"/>
      <point x="619.0" y="-266.0"/>
      <point x="472.0" y="-283.0"/>
      <point x="317.0" y="-283.0" type="curve"/>
      <point x="172.0" y="-283.0"/>
      <point x="39.0" y="-251.0"/>
      <point x="39.0" y="-134.0" type="curve"/>
      <point x="39.0" y="-54.0"/>
      <point x="106.0" y="-16.0"/>
      <point x="185.0" y="9.0" type="curve"/>
      <point x="173.0" y="22.0"/>
      <point x="185.0" y="9.0"/>
      <point x="173.0" y="22.0" type="curve"/>
      <point x="86.0" y="-4.0"/>
      <point x="15.0" y="-46.0"/>
      <point x="15.0" y="-135.0" type="curve"/>
      <point x="15.0" y="-272.0"/>
      <point x="157.0" y="-304.0"/>
      <point x="316.0" y="-304.0" type="curve"/>
      <point x="485.0" y="-304.0"/>
      <point x="644.0" y="-287.0"/>
      <point x="641.0" y="-142.0" type="curve"/>
      <point x="641.0" y="1.0"/>
      <point x="481.0" y="-2.0"/>
      <point x="319.0" y="8.0" type="curve"/>
      <point x="210.0" y="13.0"/>
      <point x="104.0" y="16.0"/>
      <point x="104.0" y="112.0" type="curve"/>
      <point x="104.0" y="164.0"/>
      <point x="143.0" y="192.0"/>
      <point x="193.0" y="214.0" type="curve"/>
      <point x="182.0" y="227.0"/>
      <point x="193.0" y="214.0"/>
    </contour>
  </outline>
</glyph>
<glyph name="h" format="1">
  <advance width="736.0"/>
  <unicode hex="0068"/>
  <outline>
    <contour>
      <point x="128.0" y="354.0" type="curve"/>
      <point x="179.282833755" y="457.591324185"/>
      <point x="290.0" y="516.0"/>
      <point x="405.0" y="516.0" type="curve"/>
      <point x="531.0" y="516.0"/>
      <point x="611.0" y="461.441176471"/>
      <point x="611.0" y="341.0" type="curve"/>
      <point x="611.0" y="228.0"/>
      <point x="611.0" y="114.0"/>
      <point x="611.0" y="0.0" type="curve"/>
      <point x="635.0" y="0.0"/>
      <point x="611.0" y="0.0"/>
      <point x="635.0" y="0.0" type="curve"/>
      <point x="635.0" y="115.0"/>
      <point x="635.0" y="229.0"/>
      <point x="635.0" y="344.0" type="curve"/>
      <point x="635.0" y="477.439153439"/>
      <point x="547.0" y="538.0"/>
      <point x="408.0" y="538.0" type="curve"/>
      <point x="283.0" y="538.0"/>
      <point x="162.158260091" y="480.908519785"/>
      <point x="116.0" y="365.0" type="curve"/>
      <point x="128.0" y="354.0"/>
      <point x="116.0" y="365.0"/>
    </contour>
    <contour>
      <point x="133.0" y="0.0" type="curve"/>
      <point x="133.0" y="267.0"/>
      <point x="133.0" y="533.0"/>
      <point x="133.0" y="800.0" type="curve"/>
      <point x="109.0" y="800.0"/>
      <point x="133.0" y="800.0"/>
      <point x="109.0" y="800.0" type="curve"/>
      <point x="109.0" y="533.0"/>
      <point x="109.0" y="267.0"/>
      <point x="109.0" y="0.0" type="curve"/>
      <point x="133.0" y="0.0"/>
      <point x="109.0" y="0.0"/>
    </contour>
  </outline>
</glyph>
<glyph name="i" format="1">
  <advance width="244.0"/>
  <unicode hex="0069"/>
  <outline>
    <contour>
      <point x="121.0" y="669.0" type="move" name="top"/>
    </contour>
    <contour>
      <point x="127.0" y="14.0" type="move" name="bottom"/>
    </contour>
    <contour>
      <point x="135.0" y="670.0" type="curve"/>
      <point x="135.0" y="679.0"/>
      <point x="128.4375" y="684.0"/>
      <point x="120.0" y="684.0" type="curve"/>
      <point x="111.384615385" y="684.0"/>
      <point x="106.0" y="678.0"/>
      <point x="106.0" y="670.0" type="curve"/>
      <point x="135.0" y="670.0"/>
      <point x="106.0" y="670.0"/>
      <point x="135.0" y="670.0" type="curve"/>
      <point x="135.0" y="661.0"/>
      <point x="128.4375" y="657.0"/>
      <point x="120.0" y="657.0" type="curve"/>
      <point x="111.384615385" y="657.0"/>
      <point x="106.0" y="662.0"/>
      <point x="106.0" y="670.0" type="curve"/>
      <point x="135.0" y="670.0"/>
      <point x="106.0" y="670.0"/>
    </contour>
    <contour>
      <point x="135.0" y="0.0" type="curve"/>
      <point x="135.0" y="178.0"/>
      <point x="135.0" y="355.0"/>
      <point x="135.0" y="533.0" type="curve"/>
      <point x="109.0" y="533.0"/>
      <point x="135.0" y="533.0"/>
      <point x="109.0" y="533.0" type="curve"/>
      <point x="109.0" y="355.0"/>
      <point x="109.0" y="178.0"/>
      <point x="109.0" y="0.0" type="curve"/>
      <point x="135.0" y="0.0"/>
      <point x="109.0" y="0.0"/>
    </contour>
  </outline>
</glyph>
<glyph name="j" format="1">
  <advance width="242.0"/>
  <unicode hex="006A"/>
  <outline>
    <contour>
      <point x="137" y="670" type="curve"/>
      <point x="137" y="679"/>
      <point x="130" y="684"/>
      <point x="121" y="684" type="curve"/>
      <point x="113" y="684"/>
      <point x="108" y="678"/>
      <point x="108" y="670" type="curve"/>
      <point x="137" y="670"/>
      <point x="108" y="670"/>
      <point x="137" y="670" type="curve"/>
      <point x="137" y="661"/>
      <point x="130" y="657"/>
      <point x="121" y="657" type="curve"/>
      <point x="113" y="657"/>
      <point x="108" y="662"/>
      <point x="108" y="670" type="curve"/>
      <point x="137" y="670"/>
      <point x="108" y="670"/>
    </contour>
    <contour>
      <point x="-117" y="-301" type="curve"/>
      <point x="-105" y="-303"/>
      <point x="-92" y="-304"/>
      <point x="-77" y="-304" type="curve"/>
      <point x="38" y="-304"/>
      <point x="133" y="-253"/>
      <point x="133" y="-142" type="curve"/>
      <point x="133" y="83"/>
      <point x="133" y="308"/>
      <point x="133" y="533" type="curve"/>
      <point x="109" y="533"/>
      <point x="133" y="533"/>
      <point x="109" y="533" type="curve"/>
      <point x="109" y="308"/>
      <point x="109" y="83"/>
      <point x="109" y="-142" type="curve"/>
      <point x="109" y="-238"/>
      <point x="25" y="-282"/>
      <point x="-77" y="-282" type="curve"/>
      <point x="-89" y="-282"/>
      <point x="-105" y="-280"/>
      <point x="-113" y="-279" type="curve"/>
      <point x="-117" y="-301"/>
      <point x="-113" y="-279"/>
    </contour>
  </outline>
</glyph>
<glyph name="k" format="1">
  <advance width="609.0"/>
  <unicode hex="006B"/>
  <outline>
    <contour>
      <point x="404.0" y="14.0" type="move" name="bottom"/>
    </contour>
    <contour>
      <point x="133.0" y="0.0" type="curve"/>
      <point x="133.0" y="0.0"/>
      <point x="133.0" y="800.0"/>
      <point x="133.0" y="800.0" type="curve"/>
      <point x="109.0" y="800.0"/>
      <point x="133.0" y="800.0"/>
      <point x="109.0" y="800.0" type="curve"/>
      <point x="109.0" y="533.0"/>
      <point x="109.0" y="267.0"/>
      <point x="109.0" y="0.0" type="curve"/>
      <point x="133.0" y="0.0"/>
      <point x="109.0" y="0.0"/>
    </contour>
    <contour>
      <point x="526" y="533" type="curve"/>
      <point x="122.0" y="275.0" type="line"/>
      <point x="162.3125" y="275.0"/>
      <point x="126.6875" y="275.0"/>
      <point x="167" y="275" type="curve"/>
      <point x="572" y="533" type="line"/>
      <point x="532.571428571" y="533.0"/>
      <point x="565.428571429" y="533.0"/>
    </contour>
    <contour>
      <point x="605" y="0" type="curve"/>
      <point x="167" y="275" type="line"/>
      <point x="126.6875" y="275.0"/>
      <point x="162.3125" y="275.0"/>
      <point x="122.0" y="275.0" type="curve"/>
      <point x="559" y="0" type="line"/>
      <point x="603.12244898" y="0.0"/>
      <point x="560.87755102" y="0.0"/>
    </contour>
  </outline>
</glyph>
<glyph name="l" format="1">
  <advance width="242.0"/>
  <unicode hex="006C"/>
  <outline>
    <contour>
      <point x="122.0" y="916.0" type="move" name="top"/>
    </contour>
    <contour>
      <point x="124.0" y="14.0" type="move" name="bottom"/>
    </contour>
    <contour>
      <point x="133" y="0" type="curve"/>
      <point x="133" y="267"/>
      <point x="133" y="533"/>
      <point x="133" y="800" type="curve"/>
      <point x="109" y="800"/>
      <point x="133" y="800"/>
      <point x="109" y="800" type="curve"/>
      <point x="109" y="533"/>
      <point x="109" y="267"/>
      <point x="109" y="0" type="curve"/>
      <point x="133" y="0"/>
      <point x="109" y="0"/>
    </contour>
  </outline>
</glyph>
<glyph name="m" format="1">
  <advance width="1132.0"/>
  <unicode hex="006D"/>
  <outline>
    <contour>
      <point x="576.0" y="354.0" type="curve"/>
      <point x="626.26692886" y="457.611424792"/>
      <point x="712.0" y="516.0"/>
      <point x="824.0" y="516.0" type="curve"/>
      <point x="946.0" y="516.0"/>
      <point x="1005.0" y="463.5"/>
      <point x="1005.0" y="341.0" type="curve"/>
      <point x="1005.0" y="228.0"/>
      <point x="1005.0" y="114.0"/>
      <point x="1005.0" y="0.0" type="curve"/>
      <point x="1030.0" y="0.0"/>
      <point x="1005.0" y="0.0"/>
      <point x="1030.0" y="0.0" type="curve"/>
      <point x="1030.0" y="115.0"/>
      <point x="1030.0" y="229.0"/>
      <point x="1030.0" y="344.0" type="curve"/>
      <point x="1030.0" y="478.465608466"/>
      <point x="964.0" y="538.0"/>
      <point x="829.0" y="538.0" type="curve"/>
      <point x="707.0" y="538.0"/>
      <point x="609.136638608" y="479.893261913"/>
      <point x="564.0" y="365.0" type="curve"/>
      <point x="576.0" y="354.0"/>
      <point x="564.0" y="365.0"/>
    </contour>
    <contour>
      <point x="128.0" y="354.0" type="curve"/>
      <point x="179.287717495" y="458.626943689"/>
      <point x="263.0" y="516.0"/>
      <point x="375.0" y="516.0" type="curve"/>
      <point x="496.0" y="516.0"/>
      <point x="557.0" y="463.5"/>
      <point x="557.0" y="341.0" type="curve"/>
      <point x="557.0" y="228.0"/>
      <point x="557.0" y="114.0"/>
      <point x="557.0" y="0.0" type="curve"/>
      <point x="581.0" y="0.0"/>
      <point x="557.0" y="0.0"/>
      <point x="581.0" y="0.0" type="curve"/>
      <point x="581.0" y="115.0"/>
      <point x="581.0" y="229.0"/>
      <point x="581.0" y="344.0" type="curve"/>
      <point x="581.0" y="478.465608466"/>
      <point x="516.0" y="538.0"/>
      <point x="381.0" y="538.0" type="curve"/>
      <point x="258.0" y="538.0"/>
      <point x="162.158260091" y="480.908519785"/>
      <point x="116.0" y="365.0" type="curve"/>
      <point x="128.0" y="354.0"/>
      <point x="116.0" y="365.0"/>
    </contour>
    <contour>
      <point x="133" y="0" type="curve"/>
      <point x="133" y="178"/>
      <point x="133" y="355"/>
      <point x="133" y="533" type="curve"/>
      <point x="109" y="533"/>
      <point x="133" y="533"/>
      <point x="109" y="533" type="curve"/>
      <point x="109" y="355"/>
      <point x="109" y="178"/>
      <point x="109" y="0" type="curve"/>
      <point x="133" y="0"/>
      <point x="109" y="0"/>
    </contour>
  </outline>
</glyph>
<glyph name="o" format="1">
  <advance width="740.0"/>
  <unicode hex="006F"/>
  <outline>
    <contour>
      <point x="365.0" y="668.0" type="move" name="top"/>
    </contour>
    <contour>
      <point x="91.0" y="268.0" type="curve"/>
      <point x="91.0" y="430.0"/>
      <point x="201.0" y="517.0"/>
      <point x="365.0" y="517.0" type="curve"/>
      <point x="535.0" y="517.0"/>
      <point x="648.0" y="429.0"/>
      <point x="648.0" y="266.0" type="curve"/>
      <point x="648.0" y="104.0"/>
      <point x="537.0" y="17.0"/>
      <point x="370.0" y="17.0" type="curve"/>
      <point x="201.0" y="17.0"/>
      <point x="91.0" y="106.436781609"/>
      <point x="91.0" y="268.0" type="curve"/>
      <point x="67.0" y="268.0"/>
      <point x="91.0" y="268.0"/>
      <point x="67.0" y="268.0" type="curve"/>
      <point x="67.0" y="92.0"/>
      <point x="187.0" y="-5.0"/>
      <point x="369.0" y="-5.0" type="curve"/>
      <point x="552.0" y="-5.0"/>
      <point x="673.0" y="90.0"/>
      <point x="673.0" y="266.0" type="curve"/>
      <point x="673.0" y="442.0"/>
      <point x="550.0" y="538.0"/>
      <point x="366.0" y="538.0" type="curve"/>
      <point x="186.0" y="538.0"/>
      <point x="67.0" y="441.0"/>
      <point x="67.0" y="268.0" type="curve"/>
      <point x="91.0" y="268.0"/>
      <point x="67.0" y="268.0"/>
    </contour>
  </outline>
</glyph>
<glyph name="p" format="1">
  <advance width="765.0"/>
  <unicode hex="0070"/>
  <outline>
    <contour>
      <point x="126.0" y="423.0" type="curve"/>
      <point x="183.0" y="476.0"/>
      <point x="292.0" y="516.0"/>
      <point x="408.0" y="516.0" type="curve"/>
      <point x="564.0" y="516.0"/>
      <point x="675.0" y="426.0"/>
      <point x="675.0" y="276.0" type="curve"/>
      <point x="679.0" y="117.0"/>
      <point x="568.0" y="15.0"/>
      <point x="407.0" y="17.0" type="curve"/>
      <point x="296.0" y="17.0"/>
      <point x="216.0" y="54.0"/>
      <point x="128.0" y="122.0" type="curve"/>
      <point x="113.0" y="111.0"/>
      <point x="128.0" y="122.0"/>
      <point x="113.0" y="111.0" type="curve"/>
      <point x="204.0" y="35.0"/>
      <point x="289.0" y="-5.0"/>
      <point x="407.0" y="-5.0" type="curve"/>
      <point x="580.0" y="-5.0"/>
      <point x="699.0" y="106.0"/>
      <point x="698.0" y="277.0" type="curve"/>
      <point x="698.0" y="440.0"/>
      <point x="576.0" y="538.0"/>
      <point x="409.0" y="538.0" type="curve"/>
      <point x="288.0" y="538.0"/>
      <point x="176.0" y="495.0"/>
      <point x="114.0" y="437.0" type="curve"/>
      <point x="126.0" y="423.0"/>
      <point x="114.0" y="437.0"/>
    </contour>
    <contour>
      <point x="133.0" y="-300.0" type="curve"/>
      <point x="133.0" y="-22.0"/>
      <point x="133.0" y="255.0"/>
      <point x="133.0" y="533.0" type="curve"/>
      <point x="109.0" y="533.0"/>
      <point x="133.0" y="533.0"/>
      <point x="109.0" y="533.0" type="curve"/>
      <point x="109.0" y="255.0"/>
      <point x="109.0" y="-22.0"/>
      <point x="109.0" y="-300.0" type="curve"/>
      <point x="133.0" y="-300.0"/>
      <point x="109.0" y="-300.0"/>
    </contour>
  </outline>
</glyph>
<glyph name="r" format="1">
  <advance width="470.0"/>
  <unicode hex="0072"/>
  <outline>
    <contour>
      <point x="177.0" y="668.0" type="move" name="top"/>
    </contour>
    <contour>
      <point x="190.0" y="14.0" type="move" name="bottom"/>
    </contour>
    <contour>
      <point x="133.0" y="0.0" type="curve"/>
      <point x="133.0" y="178.0"/>
      <point x="133.0" y="355.0"/>
      <point x="133.0" y="533.0" type="curve"/>
      <point x="109.0" y="533.0"/>
      <point x="133.0" y="533.0"/>
      <point x="109.0" y="533.0" type="curve"/>
      <point x="109.0" y="355.0"/>
      <point x="109.0" y="178.0"/>
      <point x="109.0" y="0.0" type="curve"/>
      <point x="133.0" y="0.0"/>
      <point x="109.0" y="0.0"/>
    </contour>
    <contour>
      <point x="127.0" y="392.0" type="curve"/>
      <point x="214.0" y="506.0"/>
      <point x="324.0" y="516.0"/>
      <point x="457.0" y="516.0" type="curve"/>
      <point x="457.0" y="538.0"/>
      <point x="457.0" y="516.0"/>
      <point x="457.0" y="538.0" type="curve"/>
      <point x="318.0" y="538.0"/>
      <point x="197.0" y="524.0"/>
      <point x="120.0" y="411.0" type="curve"/>
      <point x="132.431349948" y="395.016835781"/>
      <point x="115.0" y="408.0"/>
    </contour>
  </outline>
</glyph>
<glyph name="s" format="1">
  <advance width="566.0"/>
  <unicode hex="0073"/>
  <outline>
    <contour>
      <point x="271.0" y="669.0" type="move" name="top"/>
    </contour>
    <contour>
      <point x="268.0" y="3.0" type="move" name="bottom"/>
    </contour>
    <contour>
      <point x="50.0" y="51.0" type="curve"/>
      <point x="108" y="25"/>
      <point x="208.47826087" y="-5.0"/>
      <point x="293.0" y="-5.0" type="curve"/>
      <point x="416.0" y="-5.0"/>
      <point x="509.0" y="28.1428571429"/>
      <point x="509.0" y="140.0" type="curve"/>
      <point x="508.0" y="253.0"/>
      <point x="401.0" y="259.0"/>
      <point x="283.0" y="287.0" type="curve"/>
      <point x="187.496216019" y="309.116665764"/>
      <point x="103.0" y="329.0"/>
      <point x="103.0" y="414.0" type="curve"/>
      <point x="103.0" y="496.0"/>
      <point x="175.436363636" y="516.0"/>
      <point x="269.0" y="516.0" type="curve"/>
      <point x="338.0" y="516.0"/>
      <point x="421.809056225" y="494.582802273"/>
      <point x="470.0" y="471.0" type="curve"/>
      <point x="481.0" y="490.0"/>
      <point x="470.0" y="471.0"/>
      <point x="481.0" y="490.0" type="curve"/>
      <point x="429.86097856" y="514.546730291"/>
      <point x="342.0" y="538.0"/>
      <point x="270.0" y="538.0" type="curve"/>
      <point x="162.430851064" y="538.0"/>
      <point x="81.0" y="511.0"/>
      <point x="81.0" y="414.0" type="curve"/>
      <point x="81.0" y="313.0"/>
      <point x="168.479647107" y="291.122724739"/>
      <point x="275.0" y="266.0" type="curve"/>
      <point x="382.0" y="239.0"/>
      <point x="486.0" y="238.0"/>
      <point x="486.0" y="140.0" type="curve"/>
      <point x="486.0" y="43.0593220339"/>
      <point x="403.0" y="17.0"/>
      <point x="297.0" y="17.0" type="curve"/>
      <point x="214.495934959" y="17.0"/>
      <point x="118" y="47"/>
      <point x="61.0" y="72.0" type="curve"/>
      <point x="50" y="51"/>
      <point x="61" y="72"/>
    </contour>
  </outline>
</glyph>
<glyph name="t" format="1">
  <advance width="545.0"/>
  <unicode hex="0074"/>
  <outline>
    <contour>
      <point x="356.0" y="2.0" type="move" name="bottom"/>
    </contour>
    <contour>
      <point x="12" y="511" type="curve"/>
      <point x="12" y="511"/>
      <point x="540" y="511"/>
      <point x="540" y="511" type="curve"/>
      <point x="540" y="533"/>
      <point x="540" y="511"/>
      <point x="540" y="533" type="curve"/>
      <point x="540" y="533"/>
      <point x="12" y="533"/>
      <point x="12" y="533" type="curve"/>
      <point x="12" y="511"/>
      <point x="12" y="533"/>
    </contour>
    <contour>
      <point x="509.0" y="48.0" type="curve"/>
      <point x="474" y="29"/>
      <point x="426.0" y="17.0"/>
      <point x="375.0" y="17.0" type="curve"/>
      <point x="285.0" y="17.0"/>
      <point x="232.05" y="53.8371466836"/>
      <point x="232.05" y="144.541873418" type="curve"/>
      <point x="232.05" y="144.541873418"/>
      <point x="232.05" y="651.007873418"/>
      <point x="232.05" y="651.007873418" type="curve"/>
      <point x="207.85" y="636.993873418"/>
      <point x="232.05" y="651.007873418"/>
      <point x="207.85" y="636.993873418" type="curve"/>
      <point x="207.85" y="636.993873418"/>
      <point x="207.85" y="143.463873418"/>
      <point x="207.85" y="143.463873418" type="curve"/>
      <point x="207.85" y="42.2846735339"/>
      <point x="271.337240498" y="-5.01012658228"/>
      <point x="372.75" y="-5.01012658228" type="curve"/>
      <point x="428.066768303" y="-5.01012658228"/>
      <point x="478" y="9"/>
      <point x="518.0" y="28.0" type="curve"/>
      <point x="509.0" y="48.0"/>
      <point x="517.938799796" y="28.1360004539"/>
    </contour>
  </outline>
</glyph>
<glyph name="u" format="1">
  <advance width="727.0"/>
  <unicode hex="0075"/>
  <outline>
    <contour>
      <point x="343.0" y="668.0" type="move" name="top"/>
    </contour>
    <contour>
      <point x="611.0" y="12.0" type="move" name="bottom"/>
    </contour>
    <contour>
      <point x="618.0" y="0.0" type="curve"/>
      <point x="618.0" y="178.0"/>
      <point x="618.0" y="355.0"/>
      <point x="618.0" y="533.0" type="curve"/>
      <point x="594.0" y="533.0"/>
      <point x="618.0" y="533.0"/>
      <point x="594.0" y="533.0" type="curve"/>
      <point x="594.0" y="355.0"/>
      <point x="594.0" y="178.0"/>
      <point x="594.0" y="0.0" type="curve"/>
      <point x="618.0" y="0.0"/>
      <point x="594.0" y="0.0"/>
    </contour>
    <contour>
      <point x="598.0" y="163.0" type="curve"/>
      <point x="542.0" y="80.0"/>
      <point x="445.0" y="17.0"/>
      <point x="343.0" y="17.0" type="curve"/>
      <point x="212.0" y="17.0"/>
      <point x="125.0" y="64.0"/>
      <point x="125.0" y="187.0" type="curve"/>
      <point x="125.0" y="302.0"/>
      <point x="125.0" y="418.0"/>
      <point x="125.0" y="533.0" type="curve"/>
      <point x="101.0" y="533.0"/>
      <point x="125.0" y="533.0"/>
      <point x="101.0" y="533.0" type="curve"/>
      <point x="101.0" y="417.0"/>
      <point x="101.0" y="301.0"/>
      <point x="101.0" y="185.0" type="curve"/>
      <point x="101.0" y="48.0"/>
      <point x="196.0" y="-5.0"/>
      <point x="340.0" y="-5.0" type="curve"/>
      <point x="451.0" y="-5.0"/>
      <point x="557.0" y="62.0"/>
      <point x="614.0" y="151.0" type="curve"/>
      <point x="597.0" y="162.0"/>
      <point x="615.0" y="152.0"/>
    </contour>
  </outline>
</glyph>
<glyph name="v" format="1">
  <advance width="666.0"/>
  <unicode hex="0076"/>
  <outline>
    <contour>
      <point x="34.0" y="533.0" type="curve"/>
      <point x="127.0" y="355.0"/>
      <point x="221.0" y="178.0"/>
      <point x="314.0" y="0.0" type="curve"/>
      <point x="339.0" y="0.0"/>
      <point x="314.0" y="0.0"/>
      <point x="339.0" y="0.0" type="curve"/>
      <point x="246.0" y="178.0"/>
      <point x="154.0" y="355.0"/>
      <point x="61.0" y="533.0" type="curve"/>
      <point x="34.0" y="533.0"/>
      <point x="61.0" y="533.0"/>
    </contour>
    <contour>
      <point x="614.0" y="533.0" type="curve"/>
      <point x="614.0" y="533.0"/>
      <point x="320.0" y="0.0"/>
      <point x="320.0" y="0.0" type="curve"/>
      <point x="345.0" y="0.0"/>
      <point x="320.0" y="0.0"/>
      <point x="345.0" y="0.0" type="curve"/>
      <point x="443.0" y="178.0"/>
      <point x="541.0" y="355.0"/>
      <point x="639.0" y="533.0" type="curve"/>
      <point x="614.0" y="533.0"/>
      <point x="639.0" y="533.0"/>
    </contour>
  </outline>
</glyph>
<glyph name="w" format="1">
  <advance width="1120.0"/>
  <unicode hex="0077"/>
  <outline>
    <contour>
      <point x="306.0" y="0.0" type="curve"/>
      <point x="398.0" y="178.0"/>
      <point x="489.0" y="355.0"/>
      <point x="580.0" y="533.0" type="curve"/>
      <point x="554.0" y="533.0"/>
      <point x="580.0" y="533.0"/>
      <point x="554.0" y="533.0" type="curve"/>
      <point x="464.0" y="355.0"/>
      <point x="373.0" y="178.0"/>
      <point x="283.0" y="0.0" type="curve"/>
      <point x="306.0" y="0.0"/>
      <point x="283.0" y="0.0"/>
    </contour>
    <contour>
      <point x="1063.0" y="533.0" type="curve"/>
      <point x="978.0" y="355.0"/>
      <point x="894.0" y="178.0"/>
      <point x="810.0" y="0.0" type="curve"/>
      <point x="833.0" y="0.0"/>
      <point x="810.0" y="0.0"/>
      <point x="833.0" y="0.0" type="curve"/>
      <point x="918.0" y="178.0"/>
      <point x="1003.0" y="355.0"/>
      <point x="1089.0" y="533.0" type="curve"/>
      <point x="1063.0" y="533.0"/>
      <point x="1089.0" y="533.0"/>
    </contour>
    <contour>
      <point x="562.0" y="533.0" type="curve"/>
      <point x="644.0" y="355.0"/>
      <point x="726.0" y="178.0"/>
      <point x="808.0" y="0.0" type="curve"/>
      <point x="831.0" y="0.0"/>
      <point x="808.0" y="0.0"/>
      <point x="831.0" y="0.0" type="curve"/>
      <point x="750.0" y="178.0"/>
      <point x="668.0" y="355.0"/>
      <point x="587.0" y="533.0" type="curve"/>
      <point x="562.0" y="533.0"/>
      <point x="587.0" y="533.0"/>
    </contour>
    <contour>
      <point x="36.0" y="533.0" type="curve"/>
      <point x="118.0" y="355.0"/>
      <point x="200.0" y="178.0"/>
      <point x="282.0" y="0.0" type="curve"/>
      <point x="305.0" y="0.0"/>
      <point x="282.0" y="0.0"/>
      <point x="305.0" y="0.0" type="curve"/>
      <point x="224.0" y="178.0"/>
      <point x="143.0" y="355.0"/>
      <point x="62.0" y="533.0" type="curve"/>
      <point x="36.0" y="533.0"/>
      <point x="62.0" y="533.0"/>
    </contour>
  </outline>
</glyph>
<glyph name="x" format="1">
  <advance width="653.0"/>
  <unicode hex="0078"/>
  <outline>
    <contour>
      <point x="634" y="0" type="curve"/>
      <point x="446" y="178"/>
      <point x="259" y="355"/>
      <point x="71" y="533" type="curve"/>
      <point x="41" y="533"/>
      <point x="71" y="533"/>
      <point x="41" y="533" type="curve"/>
      <point x="228" y="355"/>
      <point x="415" y="178"/>
      <point x="601" y="0" type="curve"/>
      <point x="634" y="0"/>
      <point x="601" y="0"/>
    </contour>
    <contour>
      <point x="586" y="533" type="curve"/>
      <point x="397" y="355"/>
      <point x="207" y="178"/>
      <point x="17" y="0" type="curve"/>
      <point x="50" y="0"/>
      <point x="17" y="0"/>
      <point x="50" y="0" type="curve"/>
      <point x="238" y="178"/>
      <point x="427" y="355"/>
      <point x="616" y="533" type="curve"/>
      <point x="586" y="533"/>
      <point x="616" y="533"/>
    </contour>
  </outline>
</glyph>
<glyph name="y" format="1">
  <advance width="652.0"/>
  <unicode hex="0079"/>
  <outline>
    <contour>
      <point x="316.0" y="670.0" type="move" name="top"/>
    </contour>
    <contour>
      <point x="332.0" y="77.0" type="curve"/>
      <point x="240.0" y="229.0"/>
      <point x="148.0" y="381.0"/>
      <point x="55.0" y="533.0" type="curve"/>
      <point x="28.0" y="533.0"/>
      <point x="55.0" y="533.0"/>
      <point x="28.0" y="533.0" type="curve"/>
      <point x="122.746686483" y="379.792592069"/>
      <point x="214.253313517" y="225.207407931"/>
      <point x="309.0" y="72.0" type="curve"/>
      <point x="332.0" y="72.0"/>
      <point x="309.0" y="77.0"/>
    </contour>
    <contour>
      <point x="86.0" y="-300.0" type="curve"/>
      <point x="269.0" y="-22.0"/>
      <point x="452.0" y="255.0"/>
      <point x="635.0" y="533.0" type="curve"/>
      <point x="608.0" y="533.0"/>
      <point x="635.0" y="533.0"/>
      <point x="608.0" y="533.0" type="curve"/>
      <point x="425.0" y="255.0"/>
      <point x="242.0" y="-22.0"/>
      <point x="59.0" y="-300.0" type="curve"/>
      <point x="86.0" y="-300.0"/>
      <point x="59.0" y="-300.0"/>
    </contour>
  </outline>
</glyph>
<glyph name="z" format="1">
  <advance width="623.0"/>
  <unicode hex="007A"/>
  <outline>
    <contour>
      <point x="307.0" y="669.0" type="move" name="top"/>
    </contour>
    <contour>
      <point x="55.0" y="511.0" type="curve"/>
      <point x="221.0" y="511.0"/>
      <point x="387.0" y="511.0"/>
      <point x="553.0" y="511.0" type="curve"/>
      <point x="551.0" y="514.0"/>
      <point x="548.0" y="515.0"/>
      <point x="546.0" y="518.0" type="curve"/>
      <point x="544.0" y="520.0"/>
      <point x="542.0" y="521.0"/>
      <point x="540.0" y="523.0" type="curve"/>
      <point x="536.0" y="520.0"/>
      <point x="533.0" y="516.0"/>
      <point x="529.0" y="512.0" type="curve"/>
      <point x="366.0" y="348.0"/>
      <point x="529.0" y="512.0"/>
      <point x="39.0" y="22.0" type="curve"/>
      <point x="39.0" y="10.0"/>
      <point x="39.0" y="22.0"/>
      <point x="39.0" y="10.0" type="curve"/>
      <point x="39.0" y="0.0"/>
      <point x="39.0" y="10.0"/>
      <point x="39.0" y="0.0" type="curve"/>
      <point x="44.0" y="0.0"/>
      <point x="39.0" y="0.0"/>
      <point x="44.0" y="0.0" type="curve"/>
      <point x="589.0" y="0.0"/>
      <point x="407.0" y="0.0"/>
      <point x="589.0" y="0.0" type="curve"/>
      <point x="589.0" y="22.0"/>
      <point x="589.0" y="0.0"/>
      <point x="589.0" y="22.0" type="curve"/>
      <point x="407.0" y="22.0"/>
      <point x="225.0" y="22.0"/>
      <point x="44.0" y="22.0" type="curve"/>
      <point x="46.0" y="20.0"/>
      <point x="48.0" y="18.0"/>
      <point x="50.0" y="16.0" type="curve"/>
      <point x="52.0" y="14.0"/>
      <point x="56.0" y="12.0"/>
      <point x="58.0" y="10.0" type="curve"/>
      <point x="61.0" y="13.0"/>
      <point x="65.0" y="17.0"/>
      <point x="69.0" y="21.0" type="curve"/>
      <point x="232.0" y="185.0"/>
      <point x="69.0" y="21.0"/>
      <point x="560.0" y="511.0" type="curve"/>
      <point x="560.0" y="523.0"/>
      <point x="560.0" y="511.0"/>
      <point x="560.0" y="523.0" type="curve"/>
      <point x="560.0" y="533.0"/>
      <point x="560.0" y="523.0"/>
      <point x="560.0" y="533.0" type="curve"/>
      <point x="553.0" y="533.0"/>
      <point x="560.0" y="533.0"/>
      <point x="553.0" y="533.0" type="curve"/>
      <point x="387.0" y="533.0"/>
      <point x="221.0" y="533.0"/>
      <point x="55.0" y="533.0" type="curve"/>
      <point x="55.0" y="511.0"/>
      <point x="55.0" y="533.0"/>
    </contour>
  </outline>
</glyph>
<glyph name="braceleft" format="1">
  <advance width="349.0"/>
  <unicode hex="007B"/>
  <outline>
    <contour>
      <point x="323.55" y="-102.164444444" type="curve"/>
      <point x="236.614634782" y="-102.164444444"/>
      <point x="177.95" y="-56.6936394647"/>
      <point x="177.95" y="25.7065555556" type="curve"/>
      <point x="177.95" y="84.8940747856"/>
      <point x="177.95" y="144.083369659"/>
      <point x="177.95" y="203.270888889" type="curve"/>
      <point x="177.95" y="296.762227915"/>
      <point x="109.5944871" y="349.869"/>
      <point x="11.7" y="349.869" type="curve"/>
      <point x="11.7" y="328.05"/>
      <point x="11.7" y="349.869"/>
      <point x="11.7" y="328.05" type="curve"/>
      <point x="96.132949787" y="328.05"/>
      <point x="156.95" y="285.52148479"/>
      <point x="156.95" y="205.348888889" type="curve"/>
      <point x="156.95" y="145.815039789"/>
      <point x="156.95" y="86.2794046556"/>
      <point x="156.95" y="26.7455555556" type="curve"/>
      <point x="156.95" y="-69.1879814142"/>
      <point x="224.141440724" y="-122.944444444"/>
      <point x="323.55" y="-122.944444444" type="curve"/>
      <point x="323.55" y="-102.164444444"/>
      <point x="323.55" y="-122.944444444"/>
    </contour>
    <contour>
      <point x="323.55" y="799.826666667" type="curve"/>
      <point x="223.45546641" y="799.826666667"/>
      <point x="155.95" y="746.916734586"/>
      <point x="155.95" y="650.355555556" type="curve"/>
      <point x="155.95" y="590.116787579"/>
      <point x="155.95" y="529.876212421"/>
      <point x="155.95" y="469.637444444" type="curve"/>
      <point x="155.95" y="389.81343152"/>
      <point x="95.777867522" y="349.869"/>
      <point x="11.7" y="349.869" type="curve"/>
      <point x="11.7" y="328.05"/>
      <point x="11.7" y="349.869"/>
      <point x="11.7" y="328.05" type="curve"/>
      <point x="109.109719975" y="328.05"/>
      <point x="176.95" y="378.638356691"/>
      <point x="176.95" y="472.754444444" type="curve"/>
      <point x="176.95" y="531.954222811"/>
      <point x="176.95" y="591.155777189"/>
      <point x="176.95" y="650.355555556" type="curve"/>
      <point x="176.95" y="733.299567149"/>
      <point x="236.028018415" y="779.046666667"/>
      <point x="323.55" y="779.046666667" type="curve"/>
      <point x="323.55" y="799.826666667"/>
      <point x="323.55" y="779.046666667"/>
    </contour>
  </outline>
</glyph>
<glyph name="bar" format="1">
  <advance width="219.0"/>
  <unicode hex="007C"/>
  <outline>
    <contour>
      <point x="121.1" y="-300.0" type="curve"/>
      <point x="121.1" y="66.663"/>
      <point x="121.1" y="433.337"/>
      <point x="121.1" y="800.0" type="curve"/>
      <point x="98.0" y="800.0"/>
      <point x="121.1" y="800.0"/>
      <point x="98.0" y="800.0" type="curve"/>
      <point x="98.0" y="433.337"/>
      <point x="98.0" y="66.663"/>
      <point x="98.0" y="-300.0" type="curve"/>
      <point x="121.1" y="-300.0"/>
      <point x="98.0" y="-300.0"/>
    </contour>
  </outline>
</glyph>
<glyph name="braceright" format="1">
  <advance width="350.0"/>
  <unicode hex="007D"/>
  <outline>
    <contour>
      <point x="25.7" y="-123.724444444" type="curve"/>
      <point x="125.690732243" y="-123.724444444"/>
      <point x="193.3" y="-69.6939527766"/>
      <point x="193.3" y="26.7845555556" type="curve"/>
      <point x="193.3" y="86.3314045256"/>
      <point x="193.3" y="145.880039919"/>
      <point x="193.3" y="205.426888889" type="curve"/>
      <point x="193.3" y="285.028278588"/>
      <point x="253.707288842" y="327.231"/>
      <point x="337.55" y="327.231" type="curve"/>
      <point x="337.55" y="349.05"/>
      <point x="337.55" y="327.231"/>
      <point x="337.55" y="349.05" type="curve"/>
      <point x="240.247059954" y="349.05"/>
      <point x="172.3" y="296.272119794"/>
      <point x="172.3" y="203.348888889" type="curve"/>
      <point x="172.3" y="144.148369789"/>
      <point x="172.3" y="84.9460746556"/>
      <point x="172.3" y="25.7455555556" type="curve"/>
      <point x="172.3" y="-57.1980332788"/>
      <point x="113.221781532" y="-102.944444444"/>
      <point x="25.7" y="-102.944444444" type="curve"/>
      <point x="25.7" y="-123.724444444"/>
      <point x="25.7" y="-102.944444444"/>
    </contour>
    <contour>
      <point x="25.7" y="778.266666667" type="curve"/>
      <point x="112.642591078" y="778.266666667"/>
      <point x="171.3" y="732.771019018"/>
      <point x="171.3" y="650.355555556" type="curve"/>
      <point x="171.3" y="591.194776799"/>
      <point x="171.3" y="532.032223201"/>
      <point x="171.3" y="472.871444444" type="curve"/>
      <point x="171.3" y="378.162716987"/>
      <point x="239.54010083" y="327.231"/>
      <point x="337.55" y="327.231" type="curve"/>
      <point x="337.55" y="349.05"/>
      <point x="337.55" y="327.231"/>
      <point x="337.55" y="349.05" type="curve"/>
      <point x="252.871292086" y="349.05"/>
      <point x="192.3" y="389.338181578"/>
      <point x="192.3" y="469.754444444" type="curve"/>
      <point x="192.3" y="529.954212811"/>
      <point x="192.3" y="590.155787189"/>
      <point x="192.3" y="650.355555556" type="curve"/>
      <point x="192.3" y="746.384018238"/>
      <point x="125.217664082" y="799.046666667"/>
      <point x="25.7" y="799.046666667" type="curve"/>
      <point x="25.7" y="778.266666667"/>
      <point x="25.7" y="799.046666667"/>
    </contour>
  </outline>
</glyph>
<glyph name="asciitilde" format="1">
  <advance width="855.0"/>
  <unicode hex="007E"/>
  <outline>
    <contour>
      <point x="739.775" y="344.318555556" type="curve"/>
      <point x="714.362008509" y="288.859252441"/>
      <point x="670.858381969" y="241.071111111"/>
      <point x="596.75" y="241.071111111" type="curve"/>
      <point x="532.766631592" y="240.913634648"/>
      <point x="487.609653176" y="255.148931277"/>
      <point x="433.85" y="289.561111111" type="curve"/>
      <point x="378.82774977" y="324.960565362"/>
      <point x="336.125382507" y="344.84"/>
      <point x="271.525" y="344.84" type="curve"/>
      <point x="176.745463087" y="344.84"/>
      <point x="124.755842182" y="306.586396649"/>
      <point x="95.7" y="226.580777778" type="curve"/>
      <point x="114.6" y="219.307777778"/>
      <point x="95.7" y="226.580777778"/>
      <point x="114.6" y="219.307777778" type="curve"/>
      <point x="139.212839815" y="285.489146512"/>
      <point x="188.497533706" y="324.06"/>
      <point x="270.475" y="324.06" type="curve"/>
      <point x="326.903853873" y="324.06"/>
      <point x="365.845555148" y="310.70745189"/>
      <point x="412.85" y="279.171111111" type="curve"/>
      <point x="474.696594713" y="240.780964238"/>
      <point x="522.40635201" y="221.380689745"/>
      <point x="594.65" y="220.291111111" type="curve"/>
      <point x="682.898186025" y="220.291111111"/>
      <point x="728.431426426" y="266.780454414"/>
      <point x="759.725" y="337.045555556" type="curve"/>
      <point x="739.775" y="344.318555556"/>
      <point x="759.725" y="337.045555556"/>
    </contour>
  </outline>
</glyph>
<glyph name="cent" format="1">
  <advance width="793.0"/>
  <unicode hex="00A2"/>
  <outline>
    <contour>
      <point x="423.85" y="-53.0" type="curve"/>
      <point x="423.85" y="-13.0004"/>
      <point x="423.85" y="27.0004"/>
      <point x="423.85" y="67.0" type="curve"/>
      <point x="400.75" y="67.0"/>
      <point x="423.85" y="67.0"/>
      <point x="400.75" y="67.0" type="curve"/>
      <point x="400.75" y="27.0004"/>
      <point x="400.75" y="-13.0004"/>
      <point x="400.75" y="-53.0" type="curve"/>
      <point x="423.85" y="-53.0"/>
      <point x="400.75" y="-53.0"/>
    </contour>
    <contour>
      <point x="428.0" y="778.0" type="curve"/>
      <point x="428.0" y="742.00036"/>
      <point x="428.0" y="705.99964"/>
      <point x="428.0" y="670.0" type="curve"/>
      <point x="451.1" y="670.0"/>
      <point x="428.0" y="670.0"/>
      <point x="451.1" y="670.0" type="curve"/>
      <point x="451.1" y="705.99964"/>
      <point x="451.1" y="742.00036"/>
      <point x="451.1" y="778.0" type="curve"/>
      <point x="428.0" y="778.0"/>
      <point x="451.1" y="778.0"/>
    </contour>
    <contour>
      <point x="730" y="608" type="curve"/>
      <point x="666" y="646"/>
      <point x="555.937447315" y="679.135666667"/>
      <point x="445.25" y="679.135666667" type="curve"/>
      <point x="223.194090509" y="679.135666667"/>
      <point x="60.8" y="574.205675715"/>
      <point x="60.8" y="365.948777778" type="curve"/>
      <point x="60.8" y="167.511338616"/>
      <point x="202.59742549" y="53.8398888889"/>
      <point x="409.3" y="53.8398888889" type="curve"/>
      <point x="534.244619309" y="53.8398888889"/>
      <point x="621.85221659" y="81.7910395825"/>
      <point x="728.6" y="145.795888889" type="curve"/>
      <point x="713.9" y="163.458888889"/>
      <point x="728.6" y="145.795888889"/>
      <point x="713.9" y="163.458888889" type="curve"/>
      <point x="615" y="104"/>
      <point x="530.072971544" y="75.6588888889"/>
      <point x="411.4" y="75.6588888889" type="curve"/>
      <point x="217.302497418" y="75.6588888889"/>
      <point x="83.9" y="181.082166755"/>
      <point x="83.9" y="366.987777778" type="curve"/>
      <point x="83.9" y="560.594106231"/>
      <point x="235.776982355" y="657.316666667"/>
      <point x="443.15" y="657.316666667" type="curve"/>
      <point x="549.632999317" y="657.316666667"/>
      <point x="658" y="625"/>
      <point x="718.95" y="590.468888889" type="curve"/>
      <point x="730" y="608"/>
      <point x="719" y="590"/>
    </contour>
  </outline>
</glyph>
<glyph name="sterling" format="1">
  <advance width="660.0"/>
  <unicode hex="00A3"/>
  <outline>
    <contour>
      <point x="585.55" y="21.56" type="curve"/>
      <point x="404.2018135" y="21.56"/>
      <point x="222.8481865" y="21.56"/>
      <point x="41.5" y="21.56" type="curve"/>
      <point x="41.5" y="0.78"/>
      <point x="41.5" y="21.56"/>
      <point x="41.5" y="0.78" type="curve"/>
      <point x="222.8481865" y="0.78"/>
      <point x="404.2018135" y="0.78"/>
      <point x="585.55" y="0.78" type="curve"/>
      <point x="585.55" y="21.56"/>
      <point x="585.55" y="0.78"/>
    </contour>
    <contour>
      <point x="522.1" y="387.744444444" type="curve"/>
      <point x="377.6514445" y="387.744444444"/>
      <point x="233.1985555" y="387.744444444"/>
      <point x="88.75" y="387.744444444" type="curve"/>
      <point x="88.75" y="366.964444444"/>
      <point x="88.75" y="387.744444444"/>
      <point x="88.75" y="366.964444444" type="curve"/>
      <point x="233.1985555" y="366.964444444"/>
      <point x="377.6514445" y="366.964444444"/>
      <point x="522.1" y="366.964444444" type="curve"/>
      <point x="522.1" y="387.744444444"/>
      <point x="522.1" y="366.964444444"/>
    </contour>
    <contour>
      <point x="597.675" y="673.986333333" type="curve"/>
      <point x="535.634509537" y="707.193085355"/>
      <point x="487.888069626" y="721.959888889"/>
      <point x="418.025" y="721.959888889" type="curve"/>
      <point x="250.938208628" y="721.959888889"/>
      <point x="167.950795353" y="565.835280087"/>
      <point x="219.75" y="374.808444444" type="curve"/>
      <point x="271.807403554" y="183.866681211"/>
      <point x="200.717512006" y="21.56"/>
      <point x="41.5" y="21.56" type="curve"/>
      <point x="41.5" y="0.78"/>
      <point x="41.5" y="21.56"/>
      <point x="41.5" y="0.78" type="curve"/>
      <point x="223.885436045" y="0.78"/>
      <point x="297.758726557" y="173.613717444"/>
      <point x="242.85" y="378.964444444" type="curve"/>
      <point x="196.153274846" y="554.9604748"/>
      <point x="274.869388481" y="702.218888889"/>
      <point x="416.975" y="702.218888889" type="curve"/>
      <point x="482.557592527" y="702.218888889"/>
      <point x="528.161688962" y="689.661692645"/>
      <point x="586.125" y="656.323333333" type="curve"/>
      <point x="597.675" y="673.986333333"/>
      <point x="586.125" y="656.323333333"/>
    </contour>
  </outline>
</glyph>
<glyph name="currency" format="1">
  <advance width="722.0"/>
  <unicode hex="00A4"/>
  <outline>
    <contour>
      <point x="512.0" y="416.0" type="curve"/>
      <point x="555.0" y="448.0"/>
      <point x="598.0" y="479.0"/>
      <point x="642.0" y="511.0" type="curve"/>
      <point x="626.0" y="528.0"/>
      <point x="642.0" y="511.0"/>
      <point x="626.0" y="528.0" type="curve"/>
      <point x="583.0" y="496.0"/>
      <point x="539.0" y="464.0"/>
      <point x="496.0" y="433.0" type="curve"/>
      <point x="512.0" y="416.0"/>
      <point x="496.0" y="433.0"/>
    </contour>
    <contour>
      <point x="88.0" y="94.0" type="curve"/>
      <point x="131.0" y="125.0"/>
      <point x="174.0" y="156.0"/>
      <point x="216.0" y="188.0" type="curve"/>
      <point x="202.0" y="205.0"/>
      <point x="216.0" y="188.0"/>
      <point x="202.0" y="205.0" type="curve"/>
      <point x="159.0" y="174.0"/>
      <point x="115.0" y="142.0"/>
      <point x="72.0" y="111.0" type="curve"/>
      <point x="88.0" y="94.0"/>
      <point x="72.0" y="111.0"/>
    </contour>
    <contour>
      <point x="504.0" y="189.0" type="curve"/>
      <point x="546.0" y="157.0"/>
      <point x="589.0" y="126.0"/>
      <point x="632.0" y="94.0" type="curve"/>
      <point x="649.0" y="110.0"/>
      <point x="632.0" y="94.0"/>
      <point x="649.0" y="110.0" type="curve"/>
      <point x="606.0" y="141.0"/>
      <point x="562.0" y="173.0"/>
      <point x="519.0" y="205.0" type="curve"/>
      <point x="504.0" y="189.0"/>
      <point x="519.0" y="205.0"/>
    </contour>
    <contour>
      <point x="81.0" y="510.0" type="curve"/>
      <point x="124.0" y="478.0"/>
      <point x="167.0" y="447.0"/>
      <point x="209.0" y="415.0" type="curve"/>
      <point x="226.0" y="431.0"/>
      <point x="209.0" y="415.0"/>
      <point x="226.0" y="431.0" type="curve"/>
      <point x="183.0" y="463.0"/>
      <point x="140.0" y="495.0"/>
      <point x="97.0" y="527.0" type="curve"/>
      <point x="81.0" y="510.0"/>
      <point x="97.0" y="527.0"/>
    </contour>
    <contour>
      <point x="175.0" y="310.0" type="curve"/>
      <point x="175.0" y="409.0"/>
      <point x="257.0" y="458.0"/>
      <point x="364.0" y="458.0" type="curve"/>
      <point x="471.0" y="458.0"/>
      <point x="548.0" y="408.0"/>
      <point x="548.0" y="310.0" type="curve"/>
      <point x="548.0" y="211.0"/>
      <point x="472.0" y="156.0"/>
      <point x="368.0" y="156.0" type="curve"/>
      <point x="256.0" y="156.0"/>
      <point x="175.0" y="207.0"/>
      <point x="175.0" y="310.0" type="curve"/>
      <point x="152.0" y="310.0"/>
      <point x="175.0" y="310.0"/>
      <point x="152.0" y="310.0" type="curve"/>
      <point x="152.0" y="194.0"/>
      <point x="243.0" y="135.0"/>
      <point x="367.0" y="135.0" type="curve"/>
      <point x="486.0" y="135.0"/>
      <point x="571.0" y="198.0"/>
      <point x="571.0" y="311.0" type="curve"/>
      <point x="571.0" y="422.0"/>
      <point x="484.0" y="479.0"/>
      <point x="366.0" y="479.0" type="curve"/>
      <point x="243.0" y="479.0"/>
      <point x="152.0" y="424.0"/>
      <point x="152.0" y="310.0" type="curve"/>
      <point x="175.0" y="310.0"/>
      <point x="152.0" y="310.0"/>
    </contour>
  </outline>
</glyph>
<glyph name="yen" format="1">
  <advance width="780.0"/>
  <unicode hex="00A5"/>
  <outline>
    <contour>
      <point x="689.0" y="371.0" type="curve"/>
      <point x="594.0" y="371.0"/>
      <point x="499.0" y="371.0"/>
      <point x="404.0" y="371.0" type="curve"/>
      <point x="404.0" y="348.0"/>
      <point x="404.0" y="371.0"/>
      <point x="404.0" y="348.0" type="curve"/>
      <point x="499.0" y="348.0"/>
      <point x="594.0" y="348.0"/>
      <point x="689.0" y="348.0" type="curve"/>
      <point x="689.0" y="371.0"/>
      <point x="689.0" y="348.0"/>
    </contour>
    <contour>
      <point x="365.0" y="371.0" type="curve"/>
      <point x="272.0" y="371.0"/>
      <point x="178.0" y="371.0"/>
      <point x="85.0" y="371.0" type="curve"/>
      <point x="85.0" y="348.0"/>
      <point x="85.0" y="371.0"/>
      <point x="85.0" y="348.0" type="curve"/>
      <point x="178.0" y="348.0"/>
      <point x="272.0" y="348.0"/>
      <point x="365.0" y="348.0" type="curve"/>
      <point x="365.0" y="371.0"/>
      <point x="365.0" y="348.0"/>
    </contour>
    <contour>
      <point x="689.0" y="252.0" type="curve"/>
      <point x="488.0" y="252.0"/>
      <point x="286.0" y="252.0"/>
      <point x="85.0" y="252.0" type="curve"/>
      <point x="85.0" y="229.0"/>
      <point x="85.0" y="252.0"/>
      <point x="85.0" y="229.0" type="curve"/>
      <point x="286.0" y="229.0"/>
      <point x="488.0" y="229.0"/>
      <point x="689.0" y="229.0" type="curve"/>
      <point x="689.0" y="252.0"/>
      <point x="689.0" y="229.0"/>
    </contour>
    <contour>
      <point x="53" y="722" type="curve"/>
      <point x="159" y="593"/>
      <point x="265" y="464"/>
      <point x="374" y="332" type="curve"/>
      <point x="396" y="335"/>
      <point x="374" y="332"/>
      <point x="396.0" y="335.0" type="curve"/>
      <point x="291.0" y="464.0"/>
      <point x="185.0" y="593.0"/>
      <point x="80.0" y="722.0" type="curve"/>
      <point x="53.0" y="722.0"/>
      <point x="80.0" y="722.0"/>
    </contour>
    <contour>
      <point x="707.0" y="721.0" type="curve"/>
      <point x="595.0" y="592.0"/>
      <point x="484.0" y="464.0"/>
      <point x="373.0" y="335.0" type="curve"/>
      <point x="395" y="332"/>
      <point x="373" y="335"/>
      <point x="395" y="332" type="curve"/>
      <point x="510" y="464"/>
      <point x="622" y="593"/>
      <point x="734" y="721" type="curve"/>
      <point x="707.0" y="721.0"/>
      <point x="734.0" y="721.0"/>
    </contour>
    <contour>
      <point x="396.0" y="0.0" type="curve"/>
      <point x="396.0" y="112.0"/>
      <point x="396.0" y="223.0"/>
      <point x="396.0" y="335.0" type="curve"/>
      <point x="373.0" y="335.0"/>
      <point x="396.0" y="335.0"/>
      <point x="373.0" y="335.0" type="curve"/>
      <point x="373.0" y="223.0"/>
      <point x="373.0" y="112.0"/>
      <point x="373.0" y="0.0" type="curve"/>
      <point x="396.0" y="0.0"/>
      <point x="373.0" y="0.0"/>
    </contour>
  </outline>
</glyph>
<glyph name="brokenbar" format="1">
  <advance width="241.0"/>
  <unicode hex="00A6"/>
  <outline>
    <contour>
      <point x="132.1" y="-300.0" type="curve"/>
      <point x="132.1" y="-176.00124"/>
      <point x="132.1" y="-51.99876"/>
      <point x="132.1" y="72.0" type="curve"/>
      <point x="109.0" y="72.0"/>
      <point x="132.1" y="72.0"/>
      <point x="109.0" y="72.0" type="curve"/>
      <point x="109.0" y="-51.99876"/>
      <point x="109.0" y="-176.00124"/>
      <point x="109.0" y="-300.0" type="curve"/>
      <point x="132.1" y="-300.0"/>
      <point x="109.0" y="-300.0"/>
    </contour>
    <contour>
      <point x="132.1" y="428.0" type="curve"/>
      <point x="132.1" y="551.99876"/>
      <point x="132.1" y="676.00124"/>
      <point x="132.1" y="800.0" type="curve"/>
      <point x="109.0" y="800.0"/>
      <point x="132.1" y="800.0"/>
      <point x="109.0" y="800.0" type="curve"/>
      <point x="109.0" y="676.00124"/>
      <point x="109.0" y="551.99876"/>
      <point x="109.0" y="428.0" type="curve"/>
      <point x="132.1" y="428.0"/>
      <point x="109.0" y="428.0"/>
    </contour>
  </outline>
</glyph>
<glyph name="section" format="1">
  <advance width="596.0"/>
  <unicode hex="00A7"/>
  <outline>
    <contour>
      <point x="495.0" y="709.0" type="curve"/>
      <point x="426.0" y="738.0"/>
      <point x="374.0" y="752.0"/>
      <point x="299.0" y="752.0" type="curve"/>
      <point x="194.0" y="752.0"/>
      <point x="114.0" y="716.0"/>
      <point x="114.0" y="627.0" type="curve"/>
      <point x="114.0" y="540.0"/>
      <point x="189.0" y="509.0"/>
      <point x="279.0" y="485.0" type="curve"/>
      <point x="390.0" y="456.0"/>
      <point x="510.0" y="462.0"/>
      <point x="510.0" y="361.0" type="curve"/>
      <point x="510.0" y="280.0"/>
      <point x="436.0" y="241.0"/>
      <point x="341.0" y="228.0" type="curve"/>
      <point x="355.0" y="211.0"/>
      <point x="341.0" y="228.0"/>
      <point x="355.0" y="211.0" type="curve"/>
      <point x="455.0" y="230.0"/>
      <point x="533.0" y="267.0"/>
      <point x="533.0" y="361.0" type="curve"/>
      <point x="532.0" y="477.0"/>
      <point x="411.0" y="477.0"/>
      <point x="291.0" y="505.0" type="curve"/>
      <point x="209.0" y="525.0"/>
      <point x="137.0" y="551.0"/>
      <point x="137.0" y="627.0" type="curve"/>
      <point x="137.0" y="703.0"/>
      <point x="206.0" y="731.0"/>
      <point x="297.0" y="731.0" type="curve"/>
      <point x="369.0" y="731.0"/>
      <point x="418.0" y="719.0"/>
      <point x="485.0" y="691.0" type="curve"/>
      <point x="495.0" y="709.0"/>
      <point x="485.0" y="691.0"/>
    </contour>
    <contour>
      <point x="236.0" y="513.0" type="curve"/>
      <point x="143.0" y="492.0"/>
      <point x="68.0" y="457.0"/>
      <point x="68.0" y="367.0" type="curve"/>
      <point x="68.0" y="258.0"/>
      <point x="177.0" y="247.0"/>
      <point x="292.0" y="220.0" type="curve"/>
      <point x="382.0" y="196.0"/>
      <point x="471.0" y="182.0"/>
      <point x="471.0" y="100.0" type="curve"/>
      <point x="471.0" y="25.0"/>
      <point x="395.0" y="-8.0"/>
      <point x="302.0" y="-8.0" type="curve"/>
      <point x="220.0" y="-8.0"/>
      <point x="165" y="8"/>
      <point x="92" y="47" type="curve"/>
      <point x="80" y="28"/>
      <point x="92" y="47"/>
      <point x="80.0" y="28.0" type="curve"/>
      <point x="155.0" y="-13.0"/>
      <point x="215.0" y="-29.0"/>
      <point x="301.0" y="-29.0" type="curve"/>
      <point x="408.0" y="-29.0"/>
      <point x="494.0" y="4.0"/>
      <point x="494.0" y="100.0" type="curve"/>
      <point x="492.0" y="193.0"/>
      <point x="405.0" y="217.0"/>
      <point x="306.0" y="239.0" type="curve"/>
      <point x="200.0" y="266.0"/>
      <point x="92.0" y="273.0"/>
      <point x="92.0" y="367.0" type="curve"/>
      <point x="92.0" y="449.0"/>
      <point x="161.0" y="477.0"/>
      <point x="247.0" y="498.0" type="curve"/>
      <point x="236.0" y="513.0"/>
      <point x="247.0" y="498.0"/>
    </contour>
  </outline>
</glyph>
<glyph name="dieresis" format="1">
  <advance width="461.0"/>
  <unicode hex="00A8"/>
  <outline>
    <contour>
      <point x="209.0" y="669.0" type="move" name="_top"/>
    </contour>
    <component base="period" xOffset="35.0" yOffset="657.0"/>
    <component base="period" xOffset="197.0" yOffset="657.0"/>
  </outline>
</glyph>
<glyph name="copyright" format="1">
  <advance width="986.0"/>
  <unicode hex="00A9"/>
  <outline>
    <contour>
      <point x="96.8" y="319.093333333" type="curve"/>
      <point x="96.8" y="522.238272266"/>
      <point x="276.96122171" y="624.608888889"/>
      <point x="497.8" y="624.608888889" type="curve"/>
      <point x="712.840563188" y="624.608888889"/>
      <point x="889.35" y="518.9974257"/>
      <point x="889.35" y="318.055444444" type="curve"/>
      <point x="889.35" y="121.722662957"/>
      <point x="717.047254994" y="16.56"/>
      <point x="505.775" y="16.56" type="curve"/>
      <point x="284.160934056" y="16.56"/>
      <point x="96.8" y="114.731561529"/>
      <point x="96.8" y="319.093333333" type="curve"/>
      <point x="73.7" y="319.093333333"/>
      <point x="96.8" y="319.093333333"/>
      <point x="73.7" y="319.093333333" type="curve"/>
      <point x="73.7" y="103.527325087"/>
      <point x="268.143810668" y="-4.22"/>
      <point x="504.725" y="-4.22" type="curve"/>
      <point x="730.842836925" y="-4.22"/>
      <point x="912.45" y="109.191741441"/>
      <point x="912.45" y="319.094444444" type="curve"/>
      <point x="912.45" y="531.526604332"/>
      <point x="726.665454969" y="645.388888889"/>
      <point x="497.8" y="645.388888889" type="curve"/>
      <point x="264.507877805" y="645.388888889"/>
      <point x="73.7" y="534.695546995"/>
      <point x="73.7" y="319.093333333" type="curve"/>
      <point x="96.8" y="319.093333333"/>
      <point x="73.7" y="319.093333333"/>
    </contour>
    <contour>
      <point x="654.6" y="464.212333333" type="curve"/>
      <point x="614" y="482"/>
      <point x="562.921959776" y="495.504444444"/>
      <point x="505.775" y="495.504444444" type="curve"/>
      <point x="380.916627435" y="495.504444444"/>
      <point x="288.6" y="436.026822054"/>
      <point x="288.6" y="319.053222222" type="curve"/>
      <point x="288.6" y="206.55917781"/>
      <point x="372.12281589" y="145.675555556"/>
      <point x="489.825" y="145.675555556" type="curve"/>
      <point x="560.808925026" y="145.675555556"/>
      <point x="611.528009018" y="155.874050213"/>
      <point x="672.9" y="192.731555556" type="curve"/>
      <point x="658.2" y="209.355555556"/>
      <point x="672.9" y="192.731555556"/>
      <point x="658.2" y="209.355555556" type="curve"/>
      <point x="602.512717938" y="174.633610094"/>
      <point x="555.564364859" y="166.455555556"/>
      <point x="490.875" y="166.455555556" type="curve"/>
      <point x="385.834027019" y="166.455555556"/>
      <point x="311.7" y="220.232243601"/>
      <point x="311.7" y="320.092222222" type="curve"/>
      <point x="311.7" y="423.487412204"/>
      <point x="393.426842417" y="474.724444444"/>
      <point x="504.725" y="474.724444444" type="curve"/>
      <point x="557.737532965" y="474.724444444"/>
      <point x="592" y="468"/>
      <point x="644" y="448" type="curve"/>
      <point x="655" y="464"/>
      <point x="644" y="448"/>
    </contour>
  </outline>
</glyph>
<glyph name="ordfeminine" format="1">
  <advance width="487.0"/>
  <unicode hex="00AA"/>
  <outline>
    <contour>
      <point x="394.0" y="426.0" type="curve"/>
      <point x="394.0" y="520.0"/>
      <point x="394.0" y="586.0"/>
      <point x="394.0" y="680.0" type="curve"/>
      <point x="394.0" y="751.0"/>
      <point x="323.0" y="765.0"/>
      <point x="241.0" y="765.0" type="curve"/>
      <point x="179.0" y="765.0"/>
      <point x="123" y="743"/>
      <point x="81" y="712" type="curve"/>
      <point x="92" y="695"/>
      <point x="81" y="712"/>
      <point x="92.0" y="695.0" type="curve"/>
      <point x="126.0" y="720.0"/>
      <point x="180.0" y="743.0"/>
      <point x="238.0" y="743.0" type="curve"/>
      <point x="308.0" y="743.0"/>
      <point x="369.0" y="733.0"/>
      <point x="369.0" y="673.0" type="curve"/>
      <point x="369.0" y="582.0"/>
      <point x="369.0" y="517.0"/>
      <point x="369.0" y="426.0" type="curve"/>
      <point x="378.0" y="426.0"/>
      <point x="385.0" y="426.0"/>
    </contour>
    <contour>
      <point x="380" y="631" type="curve"/>
      <point x="313" y="624"/>
      <point x="266" y="624"/>
      <point x="199" y="617" type="curve"/>
      <point x="127" y="610"/>
      <point x="71.0" y="580.0"/>
      <point x="71.0" y="513.0" type="curve"/>
      <point x="71.0" y="445.0"/>
      <point x="131.0" y="418.0"/>
      <point x="207.0" y="418.0" type="curve"/>
      <point x="287.0" y="418.0"/>
      <point x="347.0" y="463.0"/>
      <point x="387.0" y="521.0" type="curve"/>
      <point x="383.0" y="525.0"/>
      <point x="379" y="529"/>
      <point x="373" y="537" type="curve"/>
      <point x="335" y="483"/>
      <point x="280" y="441"/>
      <point x="208" y="441" type="curve"/>
      <point x="144" y="441"/>
      <point x="95.0" y="458.0"/>
      <point x="95.0" y="515.0" type="curve"/>
      <point x="95.0" y="568.0"/>
      <point x="140.0" y="590.0"/>
      <point x="198.0" y="596.0" type="curve"/>
      <point x="265.0" y="603.0"/>
      <point x="314.0" y="604.0"/>
      <point x="381.0" y="611.0" type="curve"/>
      <point x="381.0" y="618.0"/>
      <point x="380" y="624"/>
    </contour>
  </outline>
</glyph>
<glyph name="guillemotleft" format="1">
  <advance width="617.0"/>
  <unicode hex="00AB"/>
  <outline>
    <contour>
      <point x="533.6" y="164.322444444" type="curve"/>
      <point x="452.1508145" y="205.563513511"/>
      <point x="370.6991855" y="246.805819822"/>
      <point x="289.25" y="288.046888889" type="curve"/>
      <point x="289.25" y="265.188888889"/>
      <point x="289.25" y="288.046888889"/>
      <point x="289.25" y="265.188888889" type="curve"/>
      <point x="370.6991855" y="223.947819822"/>
      <point x="452.1508145" y="182.705513511"/>
      <point x="533.6" y="141.464444444" type="curve"/>
      <point x="533.6" y="164.322444444"/>
      <point x="533.6" y="141.464444444"/>
    </contour>
    <contour>
      <point x="533.6" y="407.780222222" type="curve"/>
      <point x="452.1508145" y="367.869510222"/>
      <point x="370.6991855" y="327.957600889"/>
      <point x="289.25" y="288.046888889" type="curve"/>
      <point x="289.25" y="265.188888889"/>
      <point x="289.25" y="288.046888889"/>
      <point x="289.25" y="265.188888889" type="curve"/>
      <point x="370.6991855" y="305.099600889"/>
      <point x="452.1508145" y="345.011510222"/>
      <point x="533.6" y="384.922222222" type="curve"/>
      <point x="533.6" y="407.780222222"/>
      <point x="533.6" y="384.922222222"/>
    </contour>
    <contour>
      <point x="296.0" y="164.322444444" type="curve"/>
      <point x="214.5508145" y="205.563513511"/>
      <point x="133.0991855" y="246.805819822"/>
      <point x="51.65" y="288.046888889" type="curve"/>
      <point x="51.65" y="265.188888889"/>
      <point x="51.65" y="288.046888889"/>
      <point x="51.65" y="265.188888889" type="curve"/>
      <point x="133.0991855" y="223.947819822"/>
      <point x="214.5508145" y="182.705513511"/>
      <point x="296.0" y="141.464444444" type="curve"/>
      <point x="296.0" y="164.322444444"/>
      <point x="296.0" y="141.464444444"/>
    </contour>
    <contour>
      <point x="297.35" y="407.780222222" type="curve"/>
      <point x="215.450819" y="367.869510222"/>
      <point x="133.549181" y="327.957600889"/>
      <point x="51.65" y="288.046888889" type="curve"/>
      <point x="51.65" y="265.188888889"/>
      <point x="51.65" y="288.046888889"/>
      <point x="51.65" y="265.188888889" type="curve"/>
      <point x="133.549181" y="305.099600889"/>
      <point x="215.450819" y="345.011510222"/>
      <point x="297.35" y="384.922222222" type="curve"/>
      <point x="297.35" y="407.780222222"/>
      <point x="297.35" y="384.922222222"/>
    </contour>
  </outline>
</glyph>
<glyph name="logicalnot" format="1">
  <advance width="818.0"/>
  <unicode hex="00AC"/>
  <outline>
    <contour>
      <point x="95.0" y="297.0" type="curve"/>
      <point x="95.0" y="297.0"/>
      <point x="720.0" y="297.0"/>
      <point x="720.0" y="297.0" type="curve"/>
      <point x="720.0" y="321.0"/>
      <point x="720.0" y="297.0"/>
      <point x="720.0" y="321.0" type="curve"/>
      <point x="720.0" y="321.0"/>
      <point x="95.0" y="321.0"/>
      <point x="95.0" y="321.0" type="curve"/>
      <point x="95.0" y="297.0"/>
      <point x="95.0" y="321.0"/>
    </contour>
    <contour>
      <point x="720.0" y="153.0" type="curve"/>
      <point x="720.0" y="153.0"/>
      <point x="720.0" y="321.0"/>
      <point x="720.0" y="321.0" type="curve"/>
      <point x="696.0" y="321.0"/>
      <point x="720.0" y="321.0"/>
      <point x="696.0" y="321.0" type="curve"/>
      <point x="696.0" y="321.0"/>
      <point x="696.0" y="153.0"/>
      <point x="696.0" y="153.0" type="curve"/>
      <point x="720.0" y="153.0"/>
      <point x="696.0" y="153.0"/>
    </contour>
  </outline>
</glyph>
<glyph name="registered" format="1">
  <advance width="986.0"/>
  <unicode hex="00AE"/>
  <outline>
    <contour>
      <point x="97" y="319" type="curve"/>
      <point x="97" y="522"/>
      <point x="277" y="625"/>
      <point x="498" y="625" type="curve"/>
      <point x="713" y="625"/>
      <point x="889" y="519"/>
      <point x="889" y="318" type="curve"/>
      <point x="889" y="122"/>
      <point x="717" y="17"/>
      <point x="506" y="17" type="curve"/>
      <point x="284" y="17"/>
      <point x="97" y="115"/>
      <point x="97" y="319" type="curve"/>
      <point x="74" y="319"/>
      <point x="97" y="319"/>
      <point x="74" y="319" type="curve"/>
      <point x="74" y="104"/>
      <point x="268" y="-4"/>
      <point x="505" y="-4" type="curve"/>
      <point x="731" y="-4"/>
      <point x="912" y="109"/>
      <point x="912" y="319" type="curve"/>
      <point x="912" y="532"/>
      <point x="727" y="645"/>
      <point x="498" y="645" type="curve"/>
      <point x="265" y="645"/>
      <point x="74" y="535"/>
      <point x="74" y="319" type="curve"/>
      <point x="97" y="319"/>
      <point x="74" y="319"/>
    </contour>
    <contour>
      <point x="515" y="309" type="curve"/>
      <point x="629" y="150" type="line"/>
      <point x="657" y="150" type="line"/>
      <point x="543" y="309" type="line"/>
      <point x="515" y="309"/>
      <point x="543" y="309"/>
    </contour>
    <contour>
      <point x="407" y="149" type="line"/>
      <point x="407.0" y="263.496971912"/>
      <point x="407" y="377"/>
      <point x="407" y="491" type="curve"/>
      <point x="384" y="491" type="line"/>
      <point x="384" y="377"/>
      <point x="384.0" y="263.0"/>
      <point x="384" y="149" type="curve"/>
    </contour>
    <contour>
      <point x="398" y="295" type="curve"/>
      <point x="426" y="295"/>
      <point x="455" y="295"/>
      <point x="483" y="295" type="curve"/>
      <point x="568" y="295"/>
      <point x="634" y="314"/>
      <point x="634" y="392" type="curve"/>
      <point x="634" y="463"/>
      <point x="572" y="491"/>
      <point x="493" y="491" type="curve"/>
      <point x="465" y="491"/>
      <point x="436" y="491"/>
      <point x="407" y="491" type="curve"/>
      <point x="384" y="470"/>
      <point x="407" y="491"/>
      <point x="384" y="470" type="curve"/>
      <point x="419" y="470"/>
      <point x="454" y="470"/>
      <point x="489" y="470" type="curve"/>
      <point x="556" y="470"/>
      <point x="611" y="450"/>
      <point x="611" y="390" type="curve"/>
      <point x="611" y="327"/>
      <point x="556" y="316"/>
      <point x="486" y="316" type="curve"/>
      <point x="457" y="316"/>
      <point x="427" y="316"/>
      <point x="398" y="316" type="curve"/>
      <point x="398" y="295"/>
      <point x="398" y="316"/>
    </contour>
  </outline>
</glyph>
<glyph name="macron" format="1">
  <advance width="286.0"/>
  <unicode hex="00AF"/>
  <outline>
    <contour>
      <point x="201.0" y="669.0" type="move" name="_top"/>
    </contour>
    <contour>
      <point x="345.6" y="680.093333333" type="curve"/>
      <point x="244.3510125" y="680.093333333"/>
      <point x="143.0989875" y="680.093333333"/>
      <point x="41.85" y="680.093333333" type="curve"/>
      <point x="41.85" y="659.313333333"/>
      <point x="41.85" y="680.093333333"/>
      <point x="41.85" y="659.313333333" type="curve"/>
      <point x="143.0989875" y="659.313333333"/>
      <point x="244.3510125" y="659.313333333"/>
      <point x="345.6" y="659.313333333" type="curve"/>
      <point x="345.6" y="680.093333333"/>
      <point x="345.6" y="659.313333333"/>
    </contour>
  </outline>
</glyph>
<glyph name="degree" format="1">
  <advance width="584.0"/>
  <unicode hex="00B0"/>
  <outline>
    <contour>
      <point x="98.125" y="432.84" type="curve"/>
      <point x="98.125" y="546.664671884"/>
      <point x="173.315727184" y="616.626666667"/>
      <point x="288.65" y="616.626666667" type="curve"/>
      <point x="406.90490079" y="616.626666667"/>
      <point x="486.775" y="547.2405626"/>
      <point x="486.775" y="430.844444444" type="curve"/>
      <point x="486.775" y="312.049406478"/>
      <point x="410.522989559" y="238.077777778"/>
      <point x="292.325" y="238.077777778" type="curve"/>
      <point x="173.303274182" y="238.077777778"/>
      <point x="98.125" y="314.251612426"/>
      <point x="98.125" y="432.84" type="curve"/>
      <point x="76.075" y="432.84"/>
      <point x="98.125" y="432.84"/>
      <point x="76.075" y="432.84" type="curve"/>
      <point x="76.075" y="300.553089453"/>
      <point x="159.416842266" y="217.297777778"/>
      <point x="291.275" y="217.297777778" type="curve"/>
      <point x="423.553377811" y="217.297777778"/>
      <point x="508.825" y="299.347183678"/>
      <point x="508.825" y="430.844444444" type="curve"/>
      <point x="508.825" y="559.77408802"/>
      <point x="421.688812655" y="637.406666667"/>
      <point x="290.75" y="637.406666667" type="curve"/>
      <point x="161.373320449" y="637.406666667"/>
      <point x="76.075" y="560.484500856"/>
      <point x="76.075" y="432.84" type="curve"/>
      <point x="98.125" y="432.84"/>
      <point x="76.075" y="432.84"/>
    </contour>
  </outline>
</glyph>
<glyph name="acute" format="1">
  <advance width="223.0"/>
  <unicode hex="00B4"/>
  <outline>
    <contour>
      <point x="133.0" y="599.0" type="move" name="_top"/>
    </contour>
    <contour>
      <point x="58.35" y="591.0" type="line"/>
      <point x="281.1" y="757.0" type="line"/>
      <point x="245.0" y="757.0" type="line"/>
      <point x="22.0" y="591.0" type="line"/>
    </contour>
  </outline>
</glyph>
<glyph name="paragraph" format="1">
  <advance width="861.0"/>
  <unicode hex="00B6"/>
  <outline>
    <contour>
      <point x="543.0" y="346.0" type="curve"/>
      <point x="471.0" y="318.0"/>
      <point x="415.0" y="302.0"/>
      <point x="337.0" y="302.0" type="curve"/>
      <point x="191.0" y="302.0"/>
      <point x="73.0" y="360.0"/>
      <point x="73.0" y="493.0" type="curve"/>
      <point x="73.0" y="642.0"/>
      <point x="209.0" y="700.0"/>
      <point x="376.0" y="700.0" type="curve"/>
      <point x="432.0" y="700.0"/>
      <point x="489.0" y="700.0"/>
      <point x="545.0" y="700.0" type="curve"/>
      <point x="545.0" y="722.0"/>
      <point x="545.0" y="700.0"/>
      <point x="545.0" y="722.0" type="curve"/>
      <point x="488.0" y="722.0"/>
      <point x="430.0" y="722.0"/>
      <point x="373.0" y="722.0" type="curve"/>
      <point x="194.0" y="722.0"/>
      <point x="48.0" y="654.0"/>
      <point x="48.0" y="494.0" type="curve"/>
      <point x="48.0" y="347.0"/>
      <point x="177.0" y="283.0"/>
      <point x="340.0" y="280.0" type="curve"/>
      <point x="416.0" y="280.0"/>
      <point x="480.0" y="299.0"/>
      <point x="551.0" y="326.0" type="curve"/>
      <point x="543.0" y="346.0"/>
      <point x="551.0" y="326.0"/>
    </contour>
    <contour>
      <point x="563.0" y="0.0" type="curve"/>
      <point x="563.0" y="241.0"/>
      <point x="563.0" y="481.0"/>
      <point x="563.0" y="722.0" type="curve"/>
      <point x="538.0" y="722.0"/>
      <point x="563.0" y="722.0"/>
      <point x="538.0" y="722.0" type="curve"/>
      <point x="538.0" y="481.0"/>
      <point x="538.0" y="241.0"/>
      <point x="538.0" y="0.0" type="curve"/>
      <point x="563.0" y="0.0"/>
      <point x="538.0" y="0.0"/>
    </contour>
    <contour>
      <point x="760.0" y="0.0" type="curve"/>
      <point x="760.0" y="241.0"/>
      <point x="760.0" y="481.0"/>
      <point x="760.0" y="722.0" type="curve"/>
      <point x="735.0" y="722.0"/>
      <point x="760.0" y="722.0"/>
      <point x="735.0" y="722.0" type="curve"/>
      <point x="735.0" y="481.0"/>
      <point x="735.0" y="241.0"/>
      <point x="735.0" y="0.0" type="curve"/>
      <point x="760.0" y="0.0"/>
      <point x="735.0" y="0.0"/>
    </contour>
  </outline>
</glyph>
<glyph name="cedilla" format="1">
  <advance width="286.0"/>
  <unicode hex="00B8"/>
  <outline>
    <contour>
      <point x="205.0" y="16.0" type="move" name="_bottom"/>
    </contour>
    <contour>
      <point x="205" y="17" type="curve"/>
      <point x="185" y="-10"/>
      <point x="165" y="-36"/>
      <point x="145" y="-63" type="curve"/>
      <point x="161" y="-80"/>
      <point x="145" y="-63"/>
      <point x="161" y="-80" type="curve"/>
      <point x="181" y="-52"/>
      <point x="202" y="-25"/>
      <point x="222" y="3" type="curve"/>
      <point x="205" y="17"/>
      <point x="222" y="3"/>
    </contour>
    <contour>
      <point x="161" y="-81" type="curve"/>
      <point x="183" y="-70"/>
      <point x="201" y="-68"/>
      <point x="226" y="-68" type="curve"/>
      <point x="269" y="-68"/>
      <point x="301" y="-85"/>
      <point x="301" y="-125" type="curve"/>
      <point x="301" y="-169"/>
      <point x="259" y="-180"/>
      <point x="208" y="-180" type="curve"/>
      <point x="172" y="-180"/>
      <point x="145" y="-178"/>
      <point x="112" y="-163" type="curve"/>
      <point x="103" y="-180"/>
      <point x="112" y="-163"/>
      <point x="103" y="-180" type="curve"/>
      <point x="139" y="-195"/>
      <point x="168" y="-201"/>
      <point x="207" y="-201" type="curve"/>
      <point x="272" y="-201"/>
      <point x="324" y="-183"/>
      <point x="324" y="-125" type="curve"/>
      <point x="324" y="-73"/>
      <point x="283" y="-47"/>
      <point x="228" y="-47" type="curve"/>
      <point x="197" y="-47"/>
      <point x="175" y="-53"/>
      <point x="146" y="-64" type="curve"/>
      <point x="161" y="-81"/>
      <point x="146" y="-64"/>
    </contour>
  </outline>
</glyph>
<glyph name="ordmasculine" format="1">
  <advance width="524.0"/>
  <unicode hex="00BA"/>
  <outline>
    <contour>
      <point x="88.0" y="599.0" type="curve"/>
      <point x="88.0" y="696.0"/>
      <point x="160.0" y="748.0"/>
      <point x="262.0" y="748.0" type="curve"/>
      <point x="364.0" y="748.0"/>
      <point x="435.0" y="694.0"/>
      <point x="435.0" y="597.0" type="curve"/>
      <point x="435.0" y="498.0"/>
      <point x="368.0" y="438.0"/>
      <point x="267.0" y="438.0" type="curve"/>
      <point x="161.0" y="438.0"/>
      <point x="88.0" y="497.0"/>
      <point x="88.0" y="599.0" type="curve"/>
      <point x="79.0" y="599.0"/>
      <point x="73.0" y="599.0"/>
      <point x="64.0" y="599.0" type="curve"/>
      <point x="64.0" y="483.0"/>
      <point x="146.0" y="416.0"/>
      <point x="266.0" y="416.0" type="curve"/>
      <point x="382.0" y="416.0"/>
      <point x="460.0" y="484.0"/>
      <point x="460.0" y="597.0" type="curve"/>
      <point x="460.0" y="708.0"/>
      <point x="379.0" y="769.0"/>
      <point x="263.0" y="769.0" type="curve"/>
      <point x="147.0" y="769.0"/>
      <point x="64.0" y="709.0"/>
      <point x="64.0" y="599.0" type="curve"/>
      <point x="73.0" y="599.0"/>
      <point x="79.0" y="599.0"/>
    </contour>
  </outline>
</glyph>
<glyph name="guillemotright" format="1">
  <advance width="635.0"/>
  <unicode hex="00BB"/>
  <outline>
    <contour>
      <point x="95.3" y="384.064222222" type="curve"/>
      <point x="176.7491855" y="342.823153156"/>
      <point x="258.2008145" y="301.580846844"/>
      <point x="339.65" y="260.339777778" type="curve"/>
      <point x="339.65" y="283.197777778"/>
      <point x="339.65" y="260.339777778"/>
      <point x="339.65" y="283.197777778" type="curve"/>
      <point x="258.2008145" y="324.438846844"/>
      <point x="176.7491855" y="365.681153156"/>
      <point x="95.3" y="406.922222222" type="curve"/>
      <point x="95.3" y="384.064222222"/>
      <point x="95.3" y="406.922222222"/>
    </contour>
    <contour>
      <point x="95.3" y="140.606444444" type="curve"/>
      <point x="176.7491855" y="180.517156444"/>
      <point x="258.2008145" y="220.429065778"/>
      <point x="339.65" y="260.339777778" type="curve"/>
      <point x="339.65" y="283.197777778"/>
      <point x="339.65" y="260.339777778"/>
      <point x="339.65" y="283.197777778" type="curve"/>
      <point x="258.2008145" y="243.287065778"/>
      <point x="176.7491855" y="203.375156444"/>
      <point x="95.3" y="163.464444444" type="curve"/>
      <point x="95.3" y="140.606444444"/>
      <point x="95.3" y="163.464444444"/>
    </contour>
    <contour>
      <point x="332.9" y="384.064222222" type="curve"/>
      <point x="414.3491855" y="342.823153156"/>
      <point x="495.8008145" y="301.580846844"/>
      <point x="577.25" y="260.339777778" type="curve"/>
      <point x="577.25" y="283.197777778"/>
      <point x="577.25" y="260.339777778"/>
      <point x="577.25" y="283.197777778" type="curve"/>
      <point x="495.8008145" y="324.438846844"/>
      <point x="414.3491855" y="365.681153156"/>
      <point x="332.9" y="406.922222222" type="curve"/>
      <point x="332.9" y="384.064222222"/>
      <point x="332.9" y="406.922222222"/>
    </contour>
    <contour>
      <point x="331.55" y="140.606444444" type="curve"/>
      <point x="413.449181" y="180.517156444"/>
      <point x="495.350819" y="220.429065778"/>
      <point x="577.25" y="260.339777778" type="curve"/>
      <point x="577.25" y="283.197777778"/>
      <point x="577.25" y="260.339777778"/>
      <point x="577.25" y="283.197777778" type="curve"/>
      <point x="495.350819" y="243.287065778"/>
      <point x="413.449181" y="203.375156444"/>
      <point x="331.55" y="163.464444444" type="curve"/>
      <point x="331.55" y="140.606444444"/>
      <point x="331.55" y="163.464444444"/>
    </contour>
  </outline>
</glyph>
<glyph name="AE" format="1">
  <advance width="1122.0"/>
  <unicode hex="00C6"/>
  <outline>
    <contour>
      <point x="510.0" y="237.0" type="curve"/>
      <point x="351.0" y="237.0"/>
      <point x="330.0" y="237.0"/>
      <point x="172.0" y="237.0" type="curve"/>
      <point x="162.0" y="214.0"/>
      <point x="172.0" y="237.0"/>
      <point x="162.0" y="214.0" type="curve"/>
      <point x="326.0" y="214.0"/>
      <point x="353.0" y="214.0"/>
      <point x="517.0" y="214.0" type="curve"/>
      <point x="510.0" y="237.0"/>
      <point x="517.0" y="214.0"/>
    </contour>
    <contour>
      <point x="27.0" y="0.0" type="curve"/>
      <point x="530.0" y="722.0" type="line"/>
      <point x="508.0" y="722.0"/>
      <point x="524.0" y="722.0"/>
      <point x="502.0" y="722.0" type="curve"/>
      <point x="-2.0" y="0.0" type="line"/>
      <point x="24.0" y="0.0"/>
      <point x="1.0" y="0.0"/>
    </contour>
    <component base="E" xOffset="375.0"/>
  </outline>
</glyph>
<glyph name="multiply" format="1">
  <advance width="600.0"/>
  <unicode hex="00D7"/>
  <outline>
    <contour>
      <point x="88.0" y="80.0" type="curve"/>
      <point x="88.0" y="80.0"/>
      <point x="530.0" y="521.0"/>
      <point x="530.0" y="521.0" type="curve"/>
      <point x="513.0" y="538.0"/>
      <point x="530.0" y="521.0"/>
      <point x="513.0" y="538.0" type="curve"/>
      <point x="513.0" y="538.0"/>
      <point x="71.0" y="97.0"/>
      <point x="71.0" y="97.0" type="curve"/>
      <point x="88.0" y="80.0"/>
      <point x="71.0" y="97.0"/>
    </contour>
    <contour>
      <point x="529.0" y="97.0" type="curve"/>
      <point x="529.0" y="97.0"/>
      <point x="89.0" y="538.0"/>
      <point x="89.0" y="538.0" type="curve"/>
      <point x="72.0" y="521.0"/>
      <point x="89.0" y="538.0"/>
      <point x="72.0" y="521.0" type="curve"/>
      <point x="72.0" y="521.0"/>
      <point x="512.0" y="80.0"/>
      <point x="512.0" y="80.0" type="curve"/>
      <point x="529.0" y="97.0"/>
      <point x="512.0" y="80.0"/>
    </contour>
  </outline>
</glyph>
<glyph name="Oslash" format="1">
  <advance width="949.0"/>
  <unicode hex="00D8"/>
  <outline>
    <contour>
      <point x="203.0" y="-79.0" type="line"/>
      <point x="772.0" y="764.0" type="line"/>
      <point x="753.0" y="775.0" type="line"/>
      <point x="184.0" y="-66.0" type="line"/>
    </contour>
    <component base="O"/>
  </outline>
</glyph>
<glyph name="Thorn" format="1">
  <advance width="695.0"/>
  <unicode hex="00DE"/>
  <outline>
    <contour>
      <point x="140.0" y="223.0" type="curve"/>
      <point x="211.0" y="196.0"/>
      <point x="275.0" y="177.0"/>
      <point x="351.0" y="177.0" type="curve"/>
      <point x="514.0" y="180.0"/>
      <point x="643.0" y="244.0"/>
      <point x="643.0" y="391.0" type="curve"/>
      <point x="643.0" y="551.0"/>
      <point x="497.0" y="619.0"/>
      <point x="318.0" y="619.0" type="curve"/>
      <point x="261.0" y="619.0"/>
      <point x="203.0" y="619.0"/>
      <point x="146.0" y="619.0" type="curve"/>
      <point x="146.0" y="597.0"/>
      <point x="146.0" y="619.0"/>
      <point x="146.0" y="597.0" type="curve"/>
      <point x="202.0" y="597.0"/>
      <point x="259.0" y="597.0"/>
      <point x="315.0" y="597.0" type="curve"/>
      <point x="482.0" y="597.0"/>
      <point x="618.0" y="539.0"/>
      <point x="618.0" y="390.0" type="curve"/>
      <point x="618.0" y="257.0"/>
      <point x="500.0" y="199.0"/>
      <point x="354.0" y="199.0" type="curve"/>
      <point x="276.0" y="199.0"/>
      <point x="220.0" y="215.0"/>
      <point x="148.0" y="243.0" type="curve"/>
      <point x="140.0" y="223.0"/>
      <point x="148.0" y="243.0"/>
    </contour>
    <contour>
      <point x="153.0" y="0.0" type="curve"/>
      <point x="153.0" y="241.0"/>
      <point x="153.0" y="481.0"/>
      <point x="153.0" y="722.0" type="curve"/>
      <point x="128.0" y="722.0"/>
      <point x="153.0" y="722.0"/>
      <point x="128.0" y="722.0" type="curve"/>
      <point x="128.0" y="481.0"/>
      <point x="128.0" y="241.0"/>
      <point x="128.0" y="0.0" type="curve"/>
      <point x="153.0" y="0.0"/>
      <point x="128.0" y="0.0"/>
    </contour>
  </outline>
</glyph>
<glyph name="germandbls" format="1">
  <advance width="701.0"/>
  <unicode hex="00DF"/>
  <outline>
    <contour>
      <point x="132" y="0" type="curve"/>
      <point x="132" y="207"/>
      <point x="132" y="412"/>
      <point x="132" y="619" type="curve"/>
      <point x="109" y="619"/>
      <point x="132" y="619"/>
      <point x="109" y="619" type="curve"/>
      <point x="109" y="412"/>
      <point x="109" y="207"/>
      <point x="109" y="0" type="curve"/>
      <point x="132" y="0"/>
      <point x="109" y="0"/>
    </contour>
    <contour>
      <point x="132.0" y="619.0" type="curve"/>
      <point x="132.0" y="731.0"/>
      <point x="226.0" y="783.0"/>
      <point x="349.0" y="783.0" type="curve"/>
      <point x="478.0" y="783.0"/>
      <point x="582.0" y="742.0"/>
      <point x="582.0" y="627.0" type="curve"/>
      <point x="582.0" y="516.0"/>
      <point x="468.0" y="471.0"/>
      <point x="329.0" y="471.0" type="curve"/>
      <point x="329.0" y="454.0"/>
      <point x="329.0" y="471.0"/>
      <point x="329.0" y="454.0" type="curve"/>
      <point x="480.0" y="454.0"/>
      <point x="604.0" y="495.0"/>
      <point x="604.0" y="628.0" type="curve"/>
      <point x="604.0" y="755.0"/>
      <point x="493.0" y="804.0"/>
      <point x="351.0" y="804.0" type="curve"/>
      <point x="213.0" y="804.0"/>
      <point x="109.0" y="745.0"/>
      <point x="109.0" y="619.0" type="curve"/>
      <point x="132.0" y="619.0"/>
      <point x="109.0" y="619.0"/>
    </contour>
    <contour>
      <point x="458.0" y="87.0" type="curve"/>
      <point x="564.0" y="105.0"/>
      <point x="649.0" y="156.0"/>
      <point x="649.0" y="273.0" type="curve"/>
      <point x="649.0" y="422.0"/>
      <point x="513.0" y="471.0"/>
      <point x="329.0" y="471.0" type="curve"/>
      <point x="329.0" y="454.0"/>
      <point x="329.0" y="471.0"/>
      <point x="329.0" y="454.0" type="curve"/>
      <point x="476.0" y="454.0"/>
      <point x="627.0" y="417.0"/>
      <point x="627.0" y="272.0" type="curve"/>
      <point x="627.0" y="170.0"/>
      <point x="541.0" y="127.0"/>
      <point x="451.0" y="108.0" type="curve"/>
      <point x="458.0" y="87.0"/>
      <point x="451.0" y="108.0"/>
    </contour>
  </outline>
</glyph>
<glyph name="ae" format="1">
  <advance width="1143.0"/>
  <unicode hex="00E6"/>
  <outline>
    <contour>
      <point x="558.0" y="284.0" type="curve"/>
      <point x="558.0" y="414.0"/>
      <point x="558.0" y="260.0"/>
      <point x="558.0" y="390.0" type="curve"/>
      <point x="558.0" y="513.0"/>
      <point x="469.0" y="538.0"/>
      <point x="337.0" y="538.0" type="curve"/>
      <point x="228.0" y="538.0"/>
      <point x="147.0" y="508.0"/>
      <point x="81.0" y="464.0" type="curve"/>
      <point x="93" y="444"/>
      <point x="81" y="464"/>
      <point x="93" y="444" type="curve"/>
      <point x="156" y="486"/>
      <point x="230.0" y="516.0"/>
      <point x="334.0" y="516.0" type="curve"/>
      <point x="454.0" y="516.0"/>
      <point x="534.0" y="496.0"/>
      <point x="534.0" y="383.0" type="curve"/>
      <point x="534.0" y="255.0"/>
      <point x="534.0" y="412.0"/>
      <point x="534.0" y="284.0" type="curve"/>
      <point x="559.0" y="284.0"/>
      <point x="533.0" y="284.0"/>
    </contour>
    <contour>
      <point x="546.0" y="294.0" type="curve"/>
      <point x="441.0" y="294.0"/>
      <point x="377.0" y="295.0"/>
      <point x="267.0" y="286.0" type="curve"/>
      <point x="151.0" y="274.0"/>
      <point x="61.0" y="254.0"/>
      <point x="61.0" y="149.0" type="curve"/>
      <point x="61.0" y="40.0"/>
      <point x="140.0" y="-5.0"/>
      <point x="258.0" y="-5.0" type="curve"/>
      <point x="392.0" y="-5.0"/>
      <point x="483.0" y="45.0"/>
      <point x="577.0" y="143.0" type="curve"/>
      <point x="565.0" y="155.0"/>
      <point x="575.0" y="148.0"/>
      <point x="563.0" y="160.0" type="curve"/>
      <point x="472.0" y="71.0"/>
      <point x="388.0" y="17.0"/>
      <point x="263.0" y="17.0" type="curve"/>
      <point x="163.0" y="17.0"/>
      <point x="85.0" y="53.0"/>
      <point x="85.0" y="151.0" type="curve"/>
      <point x="85.0" y="229.0"/>
      <point x="166.0" y="256.0"/>
      <point x="266.0" y="266.0" type="curve"/>
      <point x="377.0" y="275.0"/>
      <point x="440.0" y="272.0"/>
      <point x="545.0" y="272.0" type="curve"/>
      <point x="544.0" y="291.0"/>
      <point x="547.0" y="275.0"/>
    </contour>
    <component base="e" xOffset="466.0" yOffset="-1.0"/>
  </outline>
</glyph>
<glyph name="eth" format="1">
  <advance width="696.0"/>
  <unicode hex="00F0"/>
  <outline>
    <contour>
      <point x="165.0" y="509.0" type="curve"/>
      <point x="258.0" y="601.0"/>
      <point x="350.0" y="694.0"/>
      <point x="443.0" y="787.0" type="curve"/>
      <point x="460.0" y="770.0"/>
      <point x="443.0" y="787.0"/>
      <point x="460.0" y="770.0" type="curve"/>
      <point x="367.0" y="677.0"/>
      <point x="274.0" y="585.0"/>
      <point x="182.0" y="492.0" type="curve"/>
      <point x="165.0" y="509.0"/>
      <point x="182.0" y="492.0"/>
    </contour>
    <component base="nine" yScale="-1" xOffset="-28.0" yOffset="715.0"/>
  </outline>
</glyph>
<glyph name="oslash" format="1">
  <advance width="740.0"/>
  <unicode hex="00F8"/>
  <outline>
    <contour>
      <point x="160.0" y="-79.0" type="line"/>
      <point x="609.0" y="587.0" type="line"/>
      <point x="591.0" y="598.0" type="line"/>
      <point x="142.0" y="-66.0" type="line"/>
    </contour>
    <component base="o"/>
  </outline>
</glyph>
<glyph name="dotlessi" format="1">
  <advance width="244.0"/>
  <unicode hex="0131"/>
  <outline>
    <contour>
      <point x="119.0" y="667.0" type="move" name="top"/>
    </contour>
    <contour>
      <point x="135.0" y="0.0" type="curve"/>
      <point x="135.0" y="178.0"/>
      <point x="135.0" y="355.0"/>
      <point x="135.0" y="533.0" type="curve"/>
      <point x="109.0" y="533.0"/>
      <point x="135.0" y="533.0"/>
      <point x="109.0" y="533.0" type="curve"/>
      <point x="109.0" y="355.0"/>
      <point x="109.0" y="178.0"/>
      <point x="109.0" y="0.0" type="curve"/>
      <point x="135.0" y="0.0"/>
      <point x="109.0" y="0.0"/>
    </contour>
  </outline>
</glyph>
<glyph name="florin" format="1">
  <advance width="594.0"/>
  <unicode hex="0192"/>
  <outline>
    <contour>
      <point x="545.55" y="546.391111111" type="curve"/>
      <point x="429.0011655" y="546.391111111"/>
      <point x="312.4488345" y="546.391111111"/>
      <point x="195.9" y="546.391111111" type="curve"/>
      <point x="195.9" y="525.611111111"/>
      <point x="195.9" y="546.391111111"/>
      <point x="195.9" y="525.611111111" type="curve"/>
      <point x="312.4488345" y="525.611111111"/>
      <point x="429.0011655" y="525.611111111"/>
      <point x="545.55" y="525.611111111" type="curve"/>
      <point x="545.55" y="546.391111111"/>
      <point x="545.55" y="525.611111111"/>
    </contour>
    <contour>
      <point x="596.35" y="827.764444444" type="curve"/>
      <point x="496.821974447" y="842.542591034"/>
      <point x="421.497704395" y="803.821991986"/>
      <point x="395.875" y="709.264555556" type="curve"/>
      <point x="339.598502474" y="493.104469227"/>
      <point x="283.276497526" y="276.94930855"/>
      <point x="227.0" y="60.7892222222" type="curve"/>
      <point x="205.439978688" y="-22.0966538399"/>
      <point x="138.764928152" y="-57.6744225376"/>
      <point x="49.6" y="-44.2933333333" type="curve"/>
      <point x="45.4" y="-65.0733333333"/>
      <point x="49.6" y="-44.2933333333"/>
      <point x="45.4" y="-65.0733333333" type="curve"/>
      <point x="146.536249658" y="-78.5518840322"/>
      <point x="224.40519435" y="-39.7129579488"/>
      <point x="250.1" y="57.6722222222" type="curve"/>
      <point x="306.764971911" y="274.514928825"/>
      <point x="363.360028089" y="491.382848952"/>
      <point x="420.025" y="708.225555556" type="curve"/>
      <point x="440.565297818" y="790.021462212"/>
      <point x="505.750190393" y="819.306218434"/>
      <point x="592.15" y="806.984444444" type="curve"/>
      <point x="596.35" y="827.764444444"/>
      <point x="592.15" y="806.984444444"/>
    </contour>
  </outline>
</glyph>
<glyph name="circumflex" format="1">
  <advance width="531.0"/>
  <unicode hex="02C6"/>
  <outline>
    <contour>
      <point x="267.0" y="600.0" type="move" name="_top"/>
    </contour>
    <component base="acute"/>
    <component base="grave" xOffset="119"/>
  </outline>
</glyph>
<glyph name="caron" format="1">
  <advance width="500.0"/>
  <unicode hex="02C7"/>
  <outline>
    <contour>
      <point x="267.0" y="601.0" type="move" name="_top"/>
    </contour>
    <component base="acute" xScale="-1.0" yScale="-1.0" xOffset="535" yOffset="1348"/>
    <component base="grave" xScale="-1.0" yScale="-1.0" xOffset="416" yOffset="1348"/>
  </outline>
</glyph>
<glyph name="breve" format="1">
  <advance width="302.0"/>
  <unicode hex="02D8"/>
  <outline>
    <contour>
      <point x="201.0" y="629.0" type="move" name="_top"/>
    </contour>
    <contour>
      <point x="361.725" y="742.151111111" type="curve"/>
      <point x="361.725" y="664.578100295"/>
      <point x="290.703038529" y="640.182222222"/>
      <point x="202.25" y="640.182222222" type="curve"/>
      <point x="117.021920096" y="640.182222222"/>
      <point x="50.025" y="667.85967495"/>
      <point x="50.025" y="743.148888889" type="curve"/>
      <point x="27.975" y="743.148888889"/>
      <point x="50.025" y="743.148888889"/>
      <point x="27.975" y="743.148888889" type="curve"/>
      <point x="27.975" y="653.534318527"/>
      <point x="101.269384961" y="619.402222222"/>
      <point x="200.15" y="619.402222222" type="curve"/>
      <point x="304.5254243" y="619.402222222"/>
      <point x="383.775" y="650.124103769"/>
      <point x="383.775" y="742.151111111" type="curve"/>
      <point x="361.725" y="742.151111111"/>
      <point x="383.775" y="742.151111111"/>
    </contour>
  </outline>
</glyph>
<glyph name="ring" format="1">
  <advance width="259.0"/>
  <unicode hex="02DA"/>
  <outline>
    <contour>
      <point x="180.0" y="650.0" type="move" name="_top"/>
    </contour>
    <contour>
      <point x="32.0" y="755.0" type="curve"/>
      <point x="32.0" y="677.0"/>
      <point x="96.0" y="639.0"/>
      <point x="181.0" y="639.0" type="curve"/>
      <point x="268.0" y="639.0"/>
      <point x="334.0" y="675.0"/>
      <point x="334.0" y="755.0" type="curve"/>
      <point x="334.0" y="836.0"/>
      <point x="267.0" y="872.0"/>
      <point x="178.0" y="872.0" type="curve"/>
      <point x="94.0" y="872.0"/>
      <point x="32.0" y="834.0"/>
      <point x="32.0" y="755.0" type="curve"/>
      <point x="54.0" y="755.0"/>
      <point x="32.0" y="755.0"/>
      <point x="54.0" y="755.0" type="curve"/>
      <point x="54.0" y="820.0"/>
      <point x="107.0" y="851.0"/>
      <point x="178.0" y="851.0" type="curve"/>
      <point x="254.0" y="851.0"/>
      <point x="311.0" y="823.0"/>
      <point x="311.0" y="755.0" type="curve"/>
      <point x="311.0" y="689.0"/>
      <point x="255.0" y="660.0"/>
      <point x="181.0" y="660.0" type="curve"/>
      <point x="109.0" y="660.0"/>
      <point x="54.0" y="689.0"/>
      <point x="54.0" y="755.0" type="curve"/>
      <point x="32.0" y="755.0"/>
      <point x="54.0" y="755.0"/>
    </contour>
  </outline>
</glyph>
